<svg width="311" height="322" viewBox="0 0 311 322" fill="none" xmlns="http://www.w3.org/2000/svg">
<path d="M247.109 52.0752C239.397 35.7751 231.81 20.5598 207.812 17.8617C189.001 15.7755 167.43 15.6434 150.184 24.6349C135.206 32.4511 129.483 50.2463 114.942 58.5076C103.558 64.9678 89.5252 63.3753 76.5074 62.0263C49.6303 59.2447 23.7825 69.4461 9.67291 93.6459C-2.14881 113.924 -1.9541 140.655 10.1805 160.745C14.9927 168.721 21.446 175.584 26.5223 183.394C31.5987 191.203 35.326 200.528 33.7058 209.7C32.315 217.385 27.4472 223.907 24.3875 231.084C16.2096 250.242 22.6073 274.275 38.5527 287.668C49.7485 297.07 64.4422 301.291 78.9482 303.113C101.896 305.992 125.268 303.44 147.792 298.245C161.311 295.144 175.003 291.062 188.821 292.536C200.538 293.795 211.414 298.968 222.485 303.022C235.516 307.786 249.39 311.075 263.207 309.796C280.23 308.224 295.891 299.038 302.761 282.877C310.716 264.157 304.847 242.773 299.236 223.212C293.283 202.35 289.875 182.636 298.637 162.108C306.05 144.723 319.068 122.887 303.394 106.052C293.325 95.2383 278.485 91.824 267.407 82.5265C257.38 74.1261 252.213 62.8607 247.109 52.0752Z" fill="#27B1FF"/>
<path opacity="0.7" d="M247.109 52.0752C239.397 35.7751 231.81 20.5598 207.812 17.8617C189.001 15.7755 167.43 15.6434 150.184 24.6349C135.206 32.4511 129.483 50.2463 114.942 58.5076C103.558 64.9678 89.5252 63.3753 76.5074 62.0263C49.6303 59.2447 23.7825 69.4461 9.67291 93.6459C-2.14881 113.924 -1.9541 140.655 10.1805 160.745C14.9927 168.721 21.446 175.584 26.5223 183.394C31.5987 191.203 35.326 200.528 33.7058 209.7C32.315 217.385 27.4472 223.907 24.3875 231.084C16.2096 250.242 22.6073 274.275 38.5527 287.668C49.7485 297.07 64.4422 301.291 78.9482 303.113C101.896 305.992 125.268 303.44 147.792 298.245C161.311 295.144 175.003 291.062 188.821 292.536C200.538 293.795 211.414 298.968 222.485 303.022C235.516 307.786 249.39 311.075 263.207 309.796C280.23 308.224 295.891 299.038 302.761 282.877C310.716 264.157 304.847 242.773 299.236 223.212C293.283 202.35 289.875 182.636 298.637 162.108C306.05 144.723 319.068 122.887 303.394 106.052C293.325 95.2383 278.485 91.824 267.407 82.5265C257.38 74.1261 252.213 62.8607 247.109 52.0752Z" fill="white"/>
<path d="M150.692 322C233.072 322 299.854 317.174 299.854 311.221C299.854 305.269 233.072 300.443 150.692 300.443C68.312 300.443 1.52979 305.269 1.52979 311.221C1.52979 317.174 68.312 322 150.692 322Z" fill="#263238"/>
<path d="M136.228 46.9851C136.228 46.9851 131.979 41.5193 129.907 41.4915C127.835 41.4637 125.88 45.8029 124.427 45.5735C122.974 45.344 121.395 40.3649 117.661 41.5402C113.927 42.7154 113.002 48.4941 110.519 48.2855C108.037 48.0769 96.0271 26.8882 96.0271 26.8882L87.3764 31.9159C87.3764 31.9159 100.318 52.5552 99.1981 54.7874C98.0786 57.0197 92.6892 54.7457 89.699 57.2978C86.7088 59.8499 90.1163 63.8415 89.5461 65.1906C88.9758 66.5396 85.2416 65.8303 84.1776 67.6105C83.1137 69.3907 84.5114 75.9553 84.5114 75.9553L108.753 57.4021L136.228 46.9851Z" fill="white" stroke="#263238" stroke-miterlimit="10"/>
<path d="M79.414 21.7212L77.1331 32.02L79.8242 37.1312L86.5557 33.5916C86.5557 33.5916 83.1065 29.4192 79.414 21.7212Z" fill="#27B1FF" stroke="#263238" stroke-miterlimit="10"/>
<path d="M91.0759 15.5742L100.811 19.5241L103.503 24.6352L96.799 28.1817C96.799 28.1817 95.3248 22.9802 91.0759 15.5742Z" fill="#27B1FF" stroke="#263238" stroke-miterlimit="10"/>
<path d="M77.3279 3.78711C77.3279 3.78711 71.8134 19.7812 86.5488 33.5639L97.4248 27.8478C97.4248 27.8478 94.7545 9.38504 77.3279 3.78711Z" fill="white" stroke="#263238" stroke-miterlimit="10"/>
<path d="M82.8911 29.5446C84.0187 30.9756 85.2531 32.3193 86.5837 33.5639L97.4249 27.8478C97.1216 26.0705 96.656 24.3247 96.0341 22.6323L82.8911 29.5446Z" fill="#27B1FF" stroke="#263238" stroke-miterlimit="10"/>
<path d="M88.0601 17.1082C88.722 14.8449 87.4237 12.4736 85.1604 11.8117C82.8971 11.1499 80.5257 12.4481 79.8639 14.7115C79.2021 16.9748 80.5003 19.3461 82.7636 20.0079C85.027 20.6698 87.3983 19.3715 88.0601 17.1082Z" fill="#27B1FF" stroke="#263238" stroke-miterlimit="10"/>
<path d="M86.368 14.6353C86.1202 14.1677 85.7395 13.784 85.2738 13.5327C84.8081 13.2813 84.2784 13.1736 83.7516 13.2232C83.2247 13.2727 82.7244 13.4773 82.3137 13.811C81.9031 14.1447 81.6005 14.5927 81.4443 15.0982C81.2881 15.6038 81.2852 16.1444 81.4359 16.6516C81.5867 17.1588 81.8844 17.61 82.2915 17.9481C82.6985 18.2862 83.1966 18.4962 83.7229 18.5514C84.2492 18.6066 84.78 18.5046 85.2484 18.2583C85.5602 18.0943 85.8365 17.8704 86.0616 17.5994C86.2867 17.3285 86.4561 17.0157 86.5601 16.6792C86.6641 16.3426 86.7007 15.9888 86.6677 15.6381C86.6348 15.2873 86.5329 14.9466 86.368 14.6353Z" fill="white" stroke="#263238" stroke-miterlimit="10"/>
<path d="M289.542 132.845L283.86 136.788L283.895 143.7L278.388 139.521L271.823 141.691L274.097 135.161L270.008 129.584L276.92 129.73L280.961 124.118L282.956 130.738L289.542 132.845Z" fill="white" stroke="#263238" stroke-miterlimit="10"/>
<path d="M24.1719 160.585L22.8089 165.32L25.9382 169.131L21.0079 169.298L18.3515 173.45L16.6686 168.811L11.8982 167.573L15.7924 164.542L15.5003 159.618L19.5823 162.379L24.1719 160.585Z" fill="white" stroke="#263238" stroke-miterlimit="10"/>
<path d="M104.003 221.814L102.64 226.55L105.77 230.361L100.839 230.528L98.1829 234.679L96.507 230.048L91.7366 228.803L95.6238 225.771L95.3318 220.848L99.4137 223.608L104.003 221.814Z" fill="white" stroke="#263238" stroke-miterlimit="10"/>
<path d="M218.827 221.814L217.457 226.55L220.586 230.361L215.663 230.528L213.006 234.679L211.324 230.048L206.553 228.803L210.441 225.771L210.148 220.848L214.23 223.608L218.827 221.814Z" fill="white" stroke="#263238" stroke-miterlimit="10"/>
<path d="M48.2396 74.5993L47.2869 77.9233L49.4774 80.5936L46.0213 80.7049L44.1646 83.6186L42.9824 80.3711L39.6445 79.4949L42.3705 77.374L42.1619 73.9248L45.0269 75.865L48.2396 74.5993Z" fill="white" stroke="#263238" stroke-miterlimit="10"/>
<path d="M111.819 6.68696L108.829 8.42545L108.572 11.8746L105.999 9.57285L102.64 10.3865L104.031 7.22242L102.216 4.28785L105.658 4.63555L107.89 2L108.621 5.37962L111.819 6.68696Z" fill="white" stroke="#263238" stroke-miterlimit="10"/>
<path d="M295.828 143.548L294.868 146.872L297.066 149.542L293.61 149.653L291.746 152.567L290.571 149.319L287.226 148.45L289.952 146.322L289.75 142.873L292.608 144.813L295.828 143.548Z" fill="white" stroke="#263238" stroke-miterlimit="10"/>
<path d="M186.199 21.2762L184.829 26.0118L187.958 29.8226L183.035 29.9895L180.379 34.141L178.696 29.5097L173.925 28.2649L177.813 25.233L177.52 20.3096L181.602 23.0703L186.199 21.2762Z" fill="white" stroke="#263238" stroke-miterlimit="10"/>
<path d="M156.923 225.542C208.071 225.542 249.536 184.078 249.536 132.929C249.536 81.7805 208.071 40.3164 156.923 40.3164C105.774 40.3164 64.3101 81.7805 64.3101 132.929C64.3101 184.078 105.774 225.542 156.923 225.542Z" fill="#27B1FF" stroke="#263238" stroke-miterlimit="10"/>
<path d="M138.321 218.616C143.287 219.698 148.339 220.34 153.418 220.535" stroke="#263238" stroke-miterlimit="10"/>
<path d="M126.972 215.326C129.483 216.237 132.035 217.044 134.622 217.725" stroke="#263238" stroke-miterlimit="10"/>
<path d="M72.5921 108.938C66.6975 129.696 68.6619 151.898 78.1094 171.299C87.5569 190.699 103.825 205.936 123.801 214.096" stroke="#263238" stroke-miterlimit="10"/>
<path d="M84.3792 83.7158C81.2122 88.3882 78.4994 93.3527 76.2778 98.5417" stroke="#263238" stroke-miterlimit="10"/>
<path d="M144.371 91.7964L153.814 93.7504L157.034 97.0883L161.227 97.7351L162.562 101.713L161.582 104.411L158.724 105.718L151.714 104.578L151.526 103.715L154.837 101.407L152.549 97.1857L146.283 96.3234L142.945 93.4653L144.371 91.7964Z" fill="white" stroke="#263238" stroke-miterlimit="10"/>
<path d="M220.461 178.922L212.972 177.657L203.932 176.509L197.284 177.984L190.775 178.081L184.238 181.106L180.427 182.184L178.063 182.705L174.127 186.28L170.219 188.95L163.613 186.586L163.786 180.251L159.802 179.555L155.511 180.508L154.447 178.749L154.016 174.792L152.041 172.977L149.127 174.075L148.745 176.412L145.15 177.434L141.075 174.291L138.641 169.423L140.525 162.699L146.84 161.746L148.891 162.873L151.471 162.295L154.253 159.653L157.229 159.889L162.569 165.682L164.023 165.14L162.5 160.272L160.643 157.977L160.163 153.805L167.34 148.61L166.644 140.432L169.426 136.879L171.123 131.316L173.174 130.405L177.395 126.093L177.228 124.327L173.842 125.307L172.82 123.729L170.455 124.257L166.978 125.926L168.077 122.755L175.17 118.945L176.457 116.636L180.511 120.69L182.875 122.192L185.657 120.662L183.751 118.159L178.529 115.947L172.124 111.295L165.949 108.84L160.608 109.126L157.458 107.123L153.835 107.025L153.599 107.978L154.552 114.292L155.887 116.253L155.476 123.548L150.428 121.065V117.915L145.449 116.775L142.994 114.842L142.876 109.237L148.098 103.354L147.403 98.1035L145.087 98.8476L143.161 97.2482L141.77 94.1745L140.219 94.2927L140.129 97.9157L137.827 98.8754L135.087 91.6016L133.133 90.9062L129.844 90.2873L126.791 92.7629L131.986 95.8852L133.655 99.3622L124.615 95.2872L117.967 90.6836L116.27 84.9744L110.311 84.4946L106.639 88.2358C105.738 89.0977 104.791 89.9101 103.802 90.6697C102.821 91.3651 98.8435 92.6725 98.8435 92.6725L98.7948 96.5111L93.927 97.8184L94.8797 100.085L103.106 99.6125L108.183 103.208L109.852 110.718L108.968 117.894L110.971 124.848L107.293 136.67L109.483 152.616L113.419 161.204L117.73 167.462L121.047 167.177L119.212 163.978L116.924 161.788L114.803 157.303L116.639 156.447L121.353 163.505L125.025 169.896L126.263 175.459L131.437 179.486L139.913 183.296L151.735 183.825L155.908 186.28L159.245 189.138L163.626 190.64L168.633 190.883L173.306 189.618C173.306 189.618 173.571 191.808 173.807 192.886C174.043 193.964 171.853 198.275 171.853 198.275L170.462 203.087L173.244 207.427L178.397 208.31L186.505 213.699L189.794 214.318L190.49 217.538L191.185 218.928C207.293 212.543 221.278 201.751 231.539 187.789L231.309 186.21L234.786 174.388L231.567 173.074L220.461 178.922Z" fill="white" stroke="#263238" stroke-miterlimit="10"/>
<path d="M223.952 89.2095L220.691 85.656L216.636 81.6018L214.349 75.3433L218.354 75.1277L218.09 72.9372L215.253 73.3405L217.374 71.7411L219.62 69.6549L219.14 67.5062L215.802 64.6481L214.23 60.1489C198.368 47.6631 178.863 40.6975 158.68 40.311C138.497 39.9244 118.74 46.1379 102.411 58.0071L108.141 60.4131L105.992 64.9402L102.105 66.7065L102.967 72.5965L101.389 73.6187L99.7683 76.4559L100.839 80.2736L104.587 79.8912L103.892 83.8688L107.543 83.0622L112 73.7439L111.882 70.1695L117.793 68.4102L118.725 65.4965L124.803 63.4729L124.636 59.683L129.093 58.466C129.093 58.466 131.93 56.0322 132.57 55.8931C133.871 55.8851 135.17 55.9734 136.457 56.1573L140.247 58.014L144.781 57.0544L148.119 53.8417L153.147 53.1463C153.959 53.4591 154.834 53.5735 155.699 53.4801C156.77 53.2367 159.656 51.0253 159.656 51.0253L166.735 53.5009L169.739 54.8917L170.434 58.1114L173.751 57.8263L174.391 55.6566L177.472 56.352L177.639 58.1114L171.582 61.2268L176.276 65.1349L184.954 67.7148L189.127 71.2891L193.939 70.6702L194.537 68.285L196.157 67.4784L189.627 64.4256L186.102 64.7594L188.695 63.2782L185.309 60.2045L188.911 59.1753L194.203 60.7052L196.421 65.6147L199.398 67.8817L202.715 73.6743L208.194 76.0595L209.773 83.1387L215.419 85.2666L215.712 87.6518V90.5863L217.86 94.1607L218.716 95.9965L222.506 95.8296L223.41 91.8033L223.952 89.2095Z" fill="white" stroke="#263238" stroke-miterlimit="10"/>
<path d="M221.97 66.9707L222.241 68.2016L221.935 71.8732L223.243 74.7383L225.795 75.0721L226.699 79.1471L223.917 78.6464L225.843 90.3777L224.321 95.6697L227.366 101.295L230.732 103.249L233.305 114.842L238.096 123.228L242.623 129.431L247.846 129.619L248.611 124.946L249.188 124.25C248.821 120.42 248.219 116.616 247.387 112.86C243.537 95.4249 234.707 79.483 221.97 66.9707Z" fill="white" stroke="#263238" stroke-miterlimit="10"/>
<path d="M172.076 76.6368L156.533 73.5562L150.358 75.1556L149.76 79.5644L146.568 77.346L142.09 79.467L143.231 86.6435L147.709 88.5767L149.593 83.8828L153.529 86.3862L161.471 90.6976L164.134 96.6363L171.29 102.478L179.968 98.9728L179.036 95.8088L176.297 92.5891L173.96 84.0983L175.295 79.9747L172.076 76.6368Z" fill="white" stroke="#263238" stroke-miterlimit="10"/>
<path d="M184.711 78.7857L181.303 78.6396L179.036 81.6229L181.922 87.5059L184.711 86.887V78.7857Z" fill="white" stroke="#263238" stroke-miterlimit="10"/>
<path d="M205.573 78.4306L197.423 76.1845L195.343 73.9453L193.772 74.9745L196.226 78.9313L198.758 84.2233L202.262 84.7935L202.715 83.7921L200.065 81.0036L206.122 81.9076L205.573 78.4306Z" fill="white" stroke="#263238" stroke-miterlimit="10"/>
<path d="M160.122 169.806L159.454 170.856L166.318 171.356L169.558 173.79L173.731 173.31L174.711 170.619L169.586 170.856L160.122 169.806Z" fill="white" stroke="#263238" stroke-miterlimit="10"/>
<path d="M180.121 169.639L175.9 171.927L176.929 173.505L182.506 172.26L183.202 170.306L181.317 170.953L180.121 169.639Z" fill="white" stroke="#263238" stroke-miterlimit="10"/>
<path d="M267.866 42.1173L227.86 31.4917L237.436 43.8419L267.866 42.1173Z" fill="white" stroke="#263238" stroke-linecap="round" stroke-linejoin="round"/>
<path d="M237.436 43.8418L237.137 52.1517L267.866 42.1172L237.436 43.8418Z" fill="white" stroke="#263238" stroke-linecap="round" stroke-linejoin="round"/>
<path d="M241.059 47.9933L237.137 52.1517L267.866 42.1172L241.059 47.9933Z" fill="white" stroke="#263238" stroke-linecap="round" stroke-linejoin="round"/>
<path d="M267.866 42.1172L241.059 47.9933L248.047 60.1697L267.866 42.1172Z" fill="white" stroke="#263238" stroke-linecap="round" stroke-linejoin="round"/>
<path d="M230.85 50.2466L229.821 50.3857" stroke="#263238" stroke-linecap="round" stroke-linejoin="round"/>
<path d="M227.763 50.6777C204.94 53.9322 62.3282 75.5242 32.5444 110.6C6.06373 141.788 50.0683 150.523 60.3602 152.101" stroke="#263238" stroke-linecap="round" stroke-linejoin="round" stroke-dasharray="2.99 2.99"/>
<path d="M61.3337 152.247C61.9944 152.344 62.3629 152.379 62.3629 152.379" stroke="#263238" stroke-linecap="round" stroke-linejoin="round"/>
<path d="M238.166 189.987L228.097 176.322C228.097 176.322 224.933 175.022 224.62 174.159C224.085 172.59 223.461 171.053 222.749 169.556C222.646 169.352 222.574 169.134 222.534 168.909C222.514 168.771 222.543 168.631 222.614 168.511C222.686 168.392 222.796 168.3 222.926 168.251C223.057 168.203 223.2 168.2 223.332 168.244C223.464 168.287 223.578 168.375 223.653 168.492C223.909 168.83 224.142 169.186 224.349 169.556C224.471 169.867 224.681 170.135 224.954 170.328C224.954 170.328 225.934 171.28 225.649 170.564C225.364 169.848 224.356 165.529 224.07 164.667C223.785 163.805 224.07 163.374 224.766 163.374C225.461 163.374 226.49 167.108 226.49 167.108C226.303 166.246 226.115 165.376 225.92 164.514L225.503 162.588C225.29 162.093 225.206 161.552 225.26 161.016C225.406 160.502 225.879 159.932 226.351 160.495C227.047 161.357 228.507 166.107 228.507 166.107V162.365C228.507 162.365 229.369 161.357 229.947 162.365C230.524 163.374 230.753 166.837 230.753 166.837L231.087 165.703C231.184 165.383 231.177 164.799 231.414 164.542C231.859 164.055 232.109 165.043 232.248 165.383C232.679 166.538 232.102 174.424 232.102 174.424L231.963 175.863L246.372 187.094L239.606 191.558L238.166 189.987Z" fill="#BFBFBF" stroke="#263238" stroke-linecap="round" stroke-linejoin="round"/>
<path d="M265.12 182.157C265.12 182.157 259.946 173.652 251.073 174.389C242.199 175.126 239.613 183.819 239.425 185.703C239.237 187.588 237.207 188.589 236.469 188.659C234.62 188.846 234.988 191.614 235.725 192.539L236.469 193.464C236.469 193.464 237.359 200.063 238.5 200.675C240.906 201.968 245.711 201.968 245.711 201.968L246.268 204.75L256.045 203.971C256.045 203.971 254.939 203.046 256.045 201.377C257.15 199.708 262.15 198.422 264.549 194.542C266.949 190.661 265.676 184.743 265.12 182.157Z" fill="#BFBFBF" stroke="#263238" stroke-linecap="round" stroke-linejoin="round"/>
<path d="M265.12 182.157C265.12 182.157 259.946 173.652 251.073 174.389C250.465 174.443 249.861 174.536 249.265 174.667C250.801 174.89 253.166 175.634 253.66 178.089C254.397 181.788 249.96 184.347 250.148 186.593C250.336 188.839 252.178 191.767 252.735 191.767C253.291 191.767 257.171 193.617 256.434 196.016C255.697 198.415 253.653 198.797 255.322 200.64C255.562 200.895 255.85 201.101 256.17 201.245C257.456 199.646 262.227 198.318 264.563 194.542C266.9 190.766 265.676 184.743 265.12 182.157Z" fill="#263238" stroke="#263238" stroke-linecap="round" stroke-linejoin="round"/>
<path d="M261.239 179.938C261.239 179.938 262.713 172.171 264.563 169.772C266.413 167.372 267.706 171.246 267.706 171.246C267.706 171.246 273.624 166.072 277.505 167.553C281.385 169.034 276.948 171.802 276.948 171.802C276.948 171.802 283.422 170.877 285.084 175.682C286.746 180.488 282.678 181.6 282.678 181.6C282.678 181.6 287.671 186.593 285.46 188.067C283.248 189.542 278.624 189.18 278.624 189.18C278.624 189.18 282.504 190.473 280.467 192.323C278.429 194.173 273.443 190.473 273.443 190.473C273.443 190.473 274 194.542 271.225 194.542C268.45 194.542 266.608 189.736 266.608 189.736C266.608 189.736 264.758 192.692 263.277 190.661C261.796 188.631 260.871 180.835 261.239 179.938Z" fill="#263238" stroke="#263238" stroke-linecap="round" stroke-linejoin="round"/>
<path d="M260.314 183.45C260.283 181.968 260.643 180.504 261.359 179.206C262.074 177.908 263.12 176.822 264.389 176.058C268.826 173.276 269.195 175.87 269.195 175.87C269.195 175.87 273.263 172.17 276.774 174.945C280.286 177.72 276.774 181.204 276.774 181.204C276.774 181.204 287.337 180.494 286.19 183.617C285.043 186.739 280.46 187.316 280.46 187.316C280.46 187.316 286.19 192.879 283.603 194.527C281.016 196.175 276.023 194.527 276.023 194.527C276.023 194.527 278.061 197.114 274.181 198.22C270.3 199.326 268.263 195.264 268.263 195.264C268.263 195.264 269.556 196.926 264.751 196.558C259.946 196.189 259.758 190.299 259.758 190.299C259.758 190.299 255.141 189.736 260.314 183.45Z" fill="#263238" stroke="#263238" stroke-linecap="round" stroke-linejoin="round"/>
<path d="M251.629 192.691C251.629 192.691 254.953 188.992 256.434 192.135C257.915 195.278 254.584 200.084 251.629 197.865" fill="#BFBFBF"/>
<path d="M251.629 192.691C251.629 192.691 254.953 188.992 256.434 192.135C257.915 195.278 254.584 200.084 251.629 197.865" stroke="#263238" stroke-linecap="round" stroke-linejoin="round"/>
<path d="M243.291 187.094C243.145 187.893 242.651 188.484 242.206 188.394C241.761 188.304 241.511 187.587 241.657 186.788C241.803 185.988 242.297 185.397 242.749 185.487C243.201 185.578 243.444 186.315 243.291 187.094Z" fill="#263238"/>
<path d="M242.199 182.921C242.199 182.921 244.599 181.44 245.155 185.327" stroke="#263238" stroke-linecap="round" stroke-linejoin="round"/>
<path d="M238.131 193.985C238.131 193.985 239.613 194.91 242.199 193.248" stroke="#263238" stroke-linecap="round" stroke-linejoin="round"/>
<path d="M255.878 264.783C255.878 264.783 263.381 274.707 264.918 274.707C266.455 274.707 288.074 265.882 288.074 265.882C289.626 266.679 290.982 267.809 292.045 269.192C293.373 271.174 292.268 274.269 294.917 274.269C297.567 274.269 296.683 267.648 295.8 265.228C294.917 262.808 293.151 256.404 291.628 255.743C290.105 255.083 284.792 259.714 284.792 259.714L274.82 263.017C273.499 263.455 265.558 264.783 265.558 264.783H255.878Z" fill="#BFBFBF" stroke="#263238" stroke-linecap="round" stroke-linejoin="round"/>
<path d="M291.614 255.736C290.55 255.284 287.72 257.329 286.051 258.657C287.685 259.992 290.293 261.911 290.293 261.911C289.676 262.482 289.01 262.999 288.304 263.455C286.983 264.338 288.082 265.882 288.082 265.882C289.633 266.679 290.989 267.809 292.052 269.192C293.38 271.174 292.275 274.269 294.924 274.269C297.574 274.269 296.691 267.648 295.807 265.229C294.924 262.809 293.158 256.397 291.614 255.736Z" fill="white" stroke="#263238" stroke-linecap="round" stroke-linejoin="round"/>
<path d="M295.682 274.018C297.4 272.857 296.614 267.363 295.828 265.201C294.945 262.774 293.179 256.376 291.656 255.715C291.232 255.535 290.529 255.75 289.737 256.16C291.422 258.496 292.853 261.004 294.006 263.643C295.508 267.391 296.405 270.993 295.807 273.538C295.724 273.726 295.682 273.886 295.682 274.018Z" fill="#27B1FF" stroke="#263238" stroke-linecap="round" stroke-linejoin="round"/>
<path d="M239.112 263.017C239.112 263.017 238.451 270.736 239.807 272.94C241.163 275.145 246.205 296.765 246.205 297.425C246.109 298.39 245.963 299.348 245.767 300.297C245.767 300.297 244 305.165 240.69 306.91C237.38 308.656 235.398 310.881 237.165 311.778C238.931 312.675 247.088 310.234 249.299 309.351C251.511 308.468 256.358 306.924 256.573 304.942C256.789 302.961 253.263 297.21 253.263 296.104C253.263 294.998 254.591 285.513 254.369 280.444C254.146 275.374 251.059 269.63 251.059 269.63L251.281 264.116L239.112 263.017Z" fill="#BFBFBF" stroke="#263238" stroke-linecap="round" stroke-linejoin="round"/>
<path d="M256.538 304.929C256.684 303.628 255.224 300.721 254.195 298.559L247.936 301.18C247.917 300.702 247.787 300.234 247.558 299.813C247.329 299.392 247.006 299.03 246.615 298.753C246.45 298.63 246.251 298.559 246.045 298.552C245.913 299.379 245.732 300.297 245.732 300.297C245.732 300.297 243.966 305.165 240.656 306.91C237.346 308.656 235.364 310.881 237.13 311.778C238.896 312.675 247.053 310.234 249.265 309.351C251.476 308.468 256.323 306.91 256.538 304.929Z" fill="white" stroke="#263238" stroke-linecap="round" stroke-linejoin="round"/>
<path d="M256.538 304.929C256.554 304.393 256.467 303.859 256.281 303.357C252.716 305.648 248.904 307.53 244.918 308.969C240.537 310.526 237.964 310.909 236.483 310.916C236.502 311.104 236.574 311.283 236.689 311.433C236.805 311.583 236.96 311.698 237.137 311.764C238.903 312.647 247.06 310.22 249.271 309.337C251.483 308.454 256.323 306.91 256.538 304.929Z" fill="#27B1FF" stroke="#263238" stroke-linecap="round" stroke-linejoin="round"/>
<path d="M239.988 235.361L232.499 265.444C232.499 265.444 237.79 268.754 253.013 267.648C268.235 266.543 276.392 261.028 276.392 261.028C276.392 261.028 275.071 257.28 274.41 256.619C273.626 255.703 272.89 254.747 272.206 253.754L265.78 232.99L239.988 235.361Z" fill="white" stroke="#263238" stroke-linecap="round" stroke-linejoin="round"/>
<path d="M244.188 238.532L241.761 248.901" stroke="#263238" stroke-linecap="round" stroke-linejoin="round"/>
<path d="M252.352 238.748V245.59" stroke="#263238" stroke-linecap="round" stroke-linejoin="round"/>
<path d="M262.053 238.087L265.586 249.999" stroke="#263238" stroke-linecap="round" stroke-linejoin="round"/>
<path d="M258.659 205.501C258.659 205.501 255.238 203.234 251.636 203.234C248.034 203.234 243.027 203.074 243.027 203.074C243.027 203.074 230.204 197.281 227.033 195.077C223.862 192.872 215.002 182.455 215.002 182.455C215.393 181.183 215.676 179.88 215.851 178.561C215.851 177.56 215.74 176.67 215.74 175.446C215.74 174.222 216.073 172.88 214.849 172.991C213.626 173.102 214.071 175.334 214.154 175.668C214.238 176.002 213.459 178.005 213.459 178.005C213.459 178.005 212.763 174.333 212.457 172.768C212.151 171.204 211.901 169.097 211.456 169.097C211.011 169.097 210.343 169.653 210.455 170.209C210.566 170.766 210.663 176.03 210.663 176.03L209.898 175.112L208.354 170.404C207.798 168.735 206.797 169.625 206.797 170.627C206.797 171.628 208.354 176.885 208.354 176.885L207.798 177.441C207.798 177.441 205.795 173.77 205.462 173.213C205.128 172.657 204.572 172.873 205.017 174.549C205.527 176.173 206.121 177.77 206.797 179.333L204.126 177.358C203.681 177.024 203.236 178.137 204.126 178.804C205.319 179.882 206.4 181.078 207.353 182.372C208.512 183.6 209.74 184.761 211.032 185.849C211.032 185.849 219.272 198.324 221.497 200.661C223.723 202.997 227.401 206.565 227.401 206.565C227.401 206.565 232.638 210.132 235.085 211.69L242.436 216.3L242.881 218.199L239.988 235.347C239.988 235.347 239.877 237.572 249.675 237.795C259.473 238.017 264.932 235.709 265.599 234.012C266.267 232.315 262.262 215.855 261.371 211.182C260.481 206.509 258.659 205.501 258.659 205.501Z" fill="#BFBFBF" stroke="#263238" stroke-linecap="round" stroke-linejoin="round"/>
<path d="M258.659 205.501C258.659 205.501 255.238 203.234 251.636 203.234C250.301 203.234 248.785 203.234 247.394 203.185C249.738 204.186 253.361 206.662 252.79 212.336C252.053 219.687 248.048 224.29 242.638 219.645L239.988 235.361C239.988 235.361 239.877 237.586 249.675 237.809C259.473 238.031 264.932 235.723 265.599 234.026C266.267 232.329 262.262 215.869 261.371 211.196C260.481 206.523 258.659 205.501 258.659 205.501Z" fill="#27B1FF" stroke="#263238" stroke-linecap="round" stroke-linejoin="round"/>
<path d="M21.6546 279.525L17.0719 283.26C17.0719 283.26 12.4962 284.949 10.6256 286.312C8.75499 287.675 10.2849 290.38 11.1332 291.396C11.9816 292.411 14.3599 293.6 15.8828 295.812C17.4057 298.023 19.6171 301.236 22.3291 302.07C25.0411 302.905 26.0634 302.411 26.0634 300.547C26.0634 298.684 23.1775 294.775 22.8367 293.079C22.496 291.382 22.1413 287.821 22.1413 287.821L25.3819 283.753L21.6546 279.525Z" fill="white" stroke="#263238" stroke-linecap="round" stroke-linejoin="round"/>
<path d="M22.1623 287.836L20.2986 288.009L19.1095 288.517L16.2653 283.566C14.2997 284.294 12.4106 285.214 10.6257 286.313C8.76203 287.669 10.2849 290.381 11.1333 291.396C11.9817 292.411 14.36 293.6 15.8829 295.812C17.4058 298.023 19.6171 301.236 22.3292 302.07C25.0412 302.905 26.0635 302.411 26.0635 300.541C26.0635 298.67 23.1776 294.776 22.8368 293.079C22.4961 291.382 22.1623 287.836 22.1623 287.836Z" fill="white" stroke="#263238" stroke-linecap="round" stroke-linejoin="round"/>
<path d="M36.2369 246.96L35.5415 265.958L20.3054 280.207L26.0702 288.176L47.6275 272.231L52.3771 261.375L39.1645 247.467C39.1645 247.467 36.2369 245.938 36.2369 246.96Z" fill="#263238" stroke="#263238" stroke-linecap="round" stroke-linejoin="round"/>
<path d="M50.6595 290.888L48.622 300.895C48.622 300.895 45.91 307.682 46.7584 309.038C47.6067 310.394 56.2575 311.416 58.7956 311.75C61.3338 312.084 65.9234 312.091 67.4464 311.055C68.9693 310.019 68.2947 308.85 67.2795 308.343C66.2642 307.835 59.9848 303.419 59.1364 302.912C58.288 302.404 56.932 300.366 56.932 300.366L59.1364 293.579L50.6595 290.888Z" fill="white" stroke="#263238" stroke-linecap="round" stroke-linejoin="round"/>
<path d="M67.4463 311.075C68.9762 310.053 68.2947 308.871 67.2795 308.363C66.2642 307.856 59.9848 303.44 59.1364 302.932C58.288 302.425 56.932 300.387 56.932 300.387C56.932 300.387 54.8945 301.236 54.8945 301.917V303.099L48.4551 301.319C47.8849 302.821 46.0351 307.884 46.7583 309.038C47.6067 310.394 56.2574 311.416 58.7956 311.75C61.3338 312.084 65.9234 312.091 67.4463 311.075Z" fill="white" stroke="#263238" stroke-linecap="round" stroke-linejoin="round"/>
<path d="M36.2371 247.975L53.8792 267.655L48.1214 291.57L60.4994 294.963C60.4994 294.963 68.1487 267.655 68.6425 265.958C69.1362 264.262 60.1656 248.149 60.1656 248.149C57.8315 246.233 55.0136 244.998 52.0225 244.582C46.7306 243.734 36.2371 247.975 36.2371 247.975Z" fill="#263238" stroke="#263238" stroke-linecap="round" stroke-linejoin="round"/>
<path d="M75.047 176.169L80.2416 172.574C80.2416 172.574 80.937 166.823 81.0413 166.315C81.1456 165.807 83.7603 162.477 84.3166 162.24C85.2038 161.919 86.0603 161.519 86.8756 161.044C87.1955 160.724 88.0717 160.801 87.9952 161.364C87.8339 161.993 87.6199 162.607 87.3555 163.2C87.3555 163.2 89.2678 160.801 89.3512 162.504C89.4347 164.208 87.5154 165.863 87.265 166.899C87.0147 167.935 86.3889 171.134 86.3889 171.134C86.3889 171.134 89.2608 168.179 89.6642 167.539C90.0675 166.899 90.9437 167.622 90.6238 168.582C90.3039 169.542 89.1009 171.218 88.628 172.754C88.1552 174.291 85.5057 175.793 84.6295 176.03C83.7533 176.266 82.7102 176.593 82.7102 176.593L76.3195 183.783L72.8843 177.226L75.047 176.169Z" fill="white" stroke="#263238" stroke-linecap="round" stroke-linejoin="round"/>
<path d="M87.3555 163.228C87.3555 163.228 85.9161 165.223 85.9161 165.62C85.6664 166.54 85.3527 167.441 84.9773 168.318" stroke="#263238" stroke-linecap="round" stroke-linejoin="round"/>
<path d="M86.2359 161.552C86.2359 161.552 84.4001 164.424 83.9203 165.223C83.5611 166.111 83.3451 167.05 83.2805 168.005" stroke="#263238" stroke-linecap="round" stroke-linejoin="round"/>
<path d="M83.197 163.45C82.7795 164.255 82.4058 165.081 82.0774 165.926C82.0774 166.169 81.9175 167.525 81.9175 167.525" stroke="#263238" stroke-linecap="round" stroke-linejoin="round"/>
<path d="M75.5825 176.551C76.2963 177.651 76.6933 178.926 76.7299 180.237C76.8481 182.539 78.1206 184.952 78.4614 185.07C78.8021 185.188 80.9926 185.07 80.6449 186.795C80.3922 187.913 79.9194 188.969 79.2541 189.903C79.2541 189.903 78.7952 196.927 78.218 198.074C77.6408 199.221 69.9358 198.54 69.9358 198.54C69.9358 198.54 66.8274 204.52 66.8274 204.868C66.8274 205.216 56.8137 200.146 56.8137 200.146L57.1545 196.349C55.45 195.158 53.9032 193.757 52.551 192.177C51.241 190.737 50.2252 189.055 49.5608 187.226C49.5031 184.382 50.0507 181.559 51.1671 178.944C53.0099 174.771 59.8039 172.031 66.5979 171.572C73.392 171.113 75.5825 176.551 75.5825 176.551Z" fill="white" stroke="#263238" stroke-linecap="round" stroke-linejoin="round"/>
<path d="M66.9457 184.381C67.0639 183.345 66.2503 180.578 66.2503 180.578L63.9485 174.938C63.9485 174.938 56.6051 178.088 50.4926 180.772C49.831 182.868 49.5163 185.057 49.5608 187.253C50.2252 189.083 51.241 190.765 52.551 192.205C53.9032 193.784 55.45 195.186 57.1545 196.377C58.1648 196.042 59.2061 195.809 60.2629 195.682C60.2629 195.682 55.6594 192.114 57.6135 190.153C59.5675 188.192 62.2239 190.153 62.4812 190.501C62.7385 190.849 64.4353 190.96 64.4353 190.271C64.2841 189.294 64.0515 188.331 63.7399 187.393C63.7399 187.393 66.8344 185.418 66.9457 184.381Z" fill="#263238" stroke="#263238" stroke-linecap="round" stroke-linejoin="round"/>
<path d="M66.7162 181.732L73.1625 178.95L72.5853 174.458L74.8871 177.935L78.225 175.849C78.225 175.849 77.0776 170.981 69.8246 168.825C62.5716 166.67 56.7025 167.212 50.7152 173.318C44.7278 179.423 49.679 191.502 49.679 191.502L57.6204 187.239V182.984L59.4632 185.633L66.7162 181.732Z" fill="#263238" stroke="#263238" stroke-linecap="round" stroke-linejoin="round"/>
<path d="M75.3322 183.554C75.5338 184.291 75.4713 184.945 75.1931 185.021C74.9149 185.098 74.4977 184.562 74.3308 183.825C74.1639 183.088 74.1917 182.434 74.4699 182.358C74.748 182.281 75.1305 182.817 75.3322 183.554Z" fill="#263238"/>
<path d="M75.937 183.151C75.937 183.151 74.8939 181.878 73.6213 182.455" stroke="#263238" stroke-linecap="round" stroke-linejoin="round"/>
<path d="M72.5852 181.614C72.8012 181.115 73.1545 180.688 73.6039 180.383C74.0534 180.078 74.5803 179.906 75.1234 179.889" stroke="#263238" stroke-linecap="round" stroke-linejoin="round"/>
<path d="M78.1138 191.746C77.4702 191.996 76.7627 192.03 76.098 191.843C75.4332 191.656 74.8472 191.258 74.4282 190.709" stroke="#263238" stroke-linecap="round" stroke-linejoin="round"/>
<path d="M69.4352 206.648L55.1935 197.691C55.1935 197.691 34.0326 236.759 32.607 241.439C31.1815 246.119 33.0104 248.393 38.3023 249.373C43.5943 250.354 49.6998 248.56 52.3423 247.544C54.9848 246.529 60.6871 249.783 60.6871 249.783C60.6871 249.783 61.7024 251 62.1127 249.985C62.5229 248.97 62.7176 245.507 62.7176 243.88C62.7176 242.252 70.2488 213.157 70.2488 210.104C70.2488 207.051 69.4352 206.648 69.4352 206.648Z" fill="#27B1FF" stroke="#263238" stroke-linecap="round" stroke-linejoin="round"/>
<path d="M65.9444 215.604C65.9444 215.604 53.9071 219.311 51.3411 219.54" stroke="#263238" stroke-linecap="round" stroke-linejoin="round"/>
<path d="M51.5984 226.334C50.7013 226.856 49.9086 227.315 49.2549 227.677" stroke="#263238" stroke-linecap="round" stroke-linejoin="round"/>
<path d="M65.9442 217.482C65.9442 217.482 59.3728 221.655 54.0669 224.868" stroke="#263238" stroke-linecap="round" stroke-linejoin="round"/>
<path d="M56.647 244.881C57.4538 245.278 58.2384 245.72 58.9974 246.202" stroke="#263238" stroke-linecap="round" stroke-linejoin="round"/>
<path d="M46.4941 242.962C46.4941 242.962 49.7694 242.266 54.4286 243.949" stroke="#263238" stroke-linecap="round" stroke-linejoin="round"/>
<path d="M53.7678 200.132L56.4103 195.862C56.4103 195.862 58.8581 196.064 62.5159 198.505C66.1737 200.946 69.4698 206.648 69.4698 206.648L53.7678 200.132Z" fill="#27B1FF" stroke="#263238" stroke-linecap="round" stroke-linejoin="round"/>
<path d="M81.0345 211.94L101.994 200.744V194.235L104.636 189.145C104.636 189.145 105.234 187.914 106.25 188.526L105.742 189.333L106.771 188.074C106.771 188.074 107.612 187.302 108.162 186.739C108.711 186.176 109.198 186.739 109.358 187.059C109.518 187.379 109.476 187.198 109.476 187.198C109.641 187.094 109.826 187.027 110.019 186.999C110.212 186.971 110.408 186.985 110.596 187.038C111.486 187.434 109.72 190.473 109.72 190.473C109.72 190.473 111.952 188.797 111.952 189.833C111.952 190.87 109.316 193.721 109.316 193.721C109.316 193.721 112.098 192.073 112.098 193.025C112.098 193.978 108.343 197.344 108.343 197.344C107.946 199.093 107.339 200.788 106.535 202.392C105.951 203.473 105.064 204.36 103.983 204.944C103.983 204.944 86.8828 219.332 83.9273 220.765C82.2183 221.624 80.2447 221.796 78.4128 221.244L80.2487 212.204L81.0345 211.94Z" fill="white" stroke="#263238" stroke-linecap="round" stroke-linejoin="round"/>
<path d="M109.483 187.198C109.483 187.198 107.091 190.473 106.771 190.869C106.254 191.802 105.79 192.764 105.38 193.748" stroke="#263238" stroke-linecap="round" stroke-linejoin="round"/>
<path d="M106.771 188.074C105.902 189.309 105.101 190.591 104.372 191.913C104.212 192.469 104.052 193.185 104.052 193.185" stroke="#263238" stroke-linecap="round" stroke-linejoin="round"/>
<path d="M109.726 190.473C109.726 190.473 108.127 192.559 107.891 193.025C107.654 193.491 106.931 194.548 106.931 194.548" stroke="#263238" stroke-linecap="round" stroke-linejoin="round"/>
<path d="M109.323 193.721L108.238 194.972" stroke="#263238" stroke-linecap="round" stroke-linejoin="round"/>
<path d="M61.5008 204.409L82.0497 210.306L77.1819 227.809C77.1819 227.809 61.1044 214.596 60.2908 213.358" fill="#27B1FF"/>
<path d="M61.5008 204.409L82.0497 210.306L77.1819 227.809C77.1819 227.809 61.1044 214.596 60.2908 213.358" stroke="#263238" stroke-linecap="round" stroke-linejoin="round"/>
<path d="M69.9428 198.54L66.6396 197.803L68.0304 201.739L69.9428 198.54Z" fill="#263238" stroke="#263238" stroke-linecap="round" stroke-linejoin="round"/>
<path d="M75.6174 41.1645C75.6173 39.9552 75.334 38.7627 74.7902 37.6825C74.2465 36.6023 73.4574 35.6644 72.4861 34.9439C71.5149 34.2233 70.3884 33.7402 69.1969 33.5332C68.0054 33.3262 66.782 33.401 65.6246 33.7516C64.845 31.5422 63.4004 29.6285 61.4892 28.2733C59.578 26.9182 57.294 26.1882 54.9511 26.1836C52.6082 26.179 50.3214 26.9001 48.4049 28.2478C46.4884 29.5955 45.0363 31.5036 44.2481 33.7099C43.5697 33.516 42.8675 33.4177 42.162 33.4178C40.2676 33.4461 38.4493 34.1677 37.051 35.4459C35.6527 36.7242 34.7712 38.4705 34.5734 40.3547C34.3755 42.2389 34.875 44.1303 35.9774 45.6711C37.0797 47.2119 38.7085 48.2954 40.5556 48.7165L69.6787 48.7096C71.3729 48.303 72.8805 47.3371 73.958 45.9681C75.0356 44.5991 75.6202 42.9068 75.6174 41.1645Z" fill="white" stroke="#263238" stroke-miterlimit="10"/>
<path d="M82.5503 45.0099C82.5514 44.4146 82.4126 43.8274 82.1454 43.2955C81.8781 42.7637 81.4897 42.3019 81.0115 41.9475C80.5333 41.593 79.9785 41.3558 79.3919 41.2548C78.8053 41.1538 78.2031 41.1919 77.6339 41.366C77.2571 40.2704 76.5476 39.3199 75.6045 38.6469C74.6614 37.974 73.5318 37.6123 72.3732 37.6123C71.2147 37.6123 70.085 37.974 69.142 38.6469C68.1989 39.3199 67.4894 40.2704 67.1126 41.366C66.62 41.2269 66.1044 41.1884 65.5967 41.2529C65.0889 41.3174 64.5993 41.4836 64.1572 41.7414C63.715 41.9993 63.3293 42.3435 63.0231 42.7537C62.717 43.1639 62.4965 43.6315 62.375 44.1287C62.2535 44.626 62.2334 45.1426 62.316 45.6477C62.3985 46.1529 62.5819 46.6362 62.8553 47.0689C63.1288 47.5016 63.4865 47.8748 63.9073 48.1662C64.3281 48.4576 64.8033 48.6613 65.3045 48.765H79.6297C80.4703 48.5632 81.2172 48.0815 81.7479 47.3992C82.2787 46.7168 82.5616 45.8743 82.5503 45.0099Z" fill="white" stroke="#263238" stroke-miterlimit="10"/>
<path d="M287.407 85.3779C287.407 84.1686 287.123 82.9761 286.58 81.8959C286.036 80.8157 285.247 79.8778 284.276 79.1572C283.304 78.4367 282.178 77.9536 280.986 77.7466C279.795 77.5396 278.571 77.6144 277.414 77.965C276.631 75.7609 275.185 73.8527 273.276 72.5015C271.366 71.1504 269.086 70.4224 266.746 70.417C264.407 70.4117 262.123 71.1293 260.208 72.4718C258.292 73.8142 256.838 75.7158 256.045 77.9163C255.366 77.7223 254.664 77.624 253.958 77.6243C252.064 77.6526 250.246 78.3741 248.847 79.6524C247.449 80.9306 246.568 82.677 246.37 84.5612C246.172 86.4453 246.671 88.3367 247.774 89.8775C248.876 91.4184 250.505 92.5018 252.352 92.923L281.475 92.8673C283.159 92.4616 284.658 91.5035 285.733 90.1459C286.808 88.7884 287.398 87.1097 287.407 85.3779Z" fill="white" stroke="#263238" stroke-miterlimit="10"/>
<path d="M294.34 89.2304C294.34 88.2198 293.938 87.2505 293.224 86.5358C292.509 85.8212 291.54 85.4197 290.529 85.4197C290.155 85.4147 289.783 85.4639 289.423 85.5657C289.047 84.4702 288.337 83.5196 287.394 82.8466C286.451 82.1737 285.321 81.812 284.163 81.812C283.004 81.812 281.875 82.1737 280.931 82.8466C279.988 83.5196 279.279 84.4702 278.902 85.5657C278.572 85.4733 278.23 85.4266 277.887 85.4266C276.945 85.4267 276.037 85.7754 275.337 86.4055C274.638 87.0356 274.196 87.9024 274.097 88.8388C273.999 89.7753 274.251 90.715 274.804 91.4769C275.357 92.2387 276.173 92.7687 277.094 92.9647H291.426C292.262 92.7623 293.005 92.2832 293.534 91.6052C294.063 90.9273 294.347 90.0903 294.34 89.2304Z" fill="white" stroke="#263238" stroke-miterlimit="10"/>
<path d="M64.9499 153.666C64.952 152.456 64.6705 151.263 64.1281 150.181C63.5856 149.1 62.7973 148.161 61.8263 147.44C60.8554 146.718 59.7288 146.235 58.5371 146.027C57.3454 145.82 56.1216 145.895 54.9641 146.246C54.1828 144.037 52.7371 142.124 50.8254 140.77C48.9138 139.416 46.6298 138.686 44.2871 138.682C41.9443 138.677 39.6576 139.398 37.7406 140.744C35.8237 142.091 34.3706 143.998 33.5807 146.204C32.9015 146.013 32.1998 145.915 31.4945 145.912C29.6001 145.94 27.7819 146.662 26.3835 147.94C24.9852 149.218 24.1037 150.965 23.9059 152.849C23.7081 154.733 24.2075 156.624 25.3099 158.165C26.4122 159.706 28.041 160.789 29.8881 161.211L59.0113 161.155C60.6979 160.754 62.2006 159.797 63.2778 158.439C64.3549 157.08 64.9439 155.399 64.9499 153.666Z" fill="white" stroke="#263238" stroke-miterlimit="10"/>
<path d="M71.883 157.511C71.883 156.5 71.4815 155.531 70.7669 154.817C70.0522 154.102 69.0829 153.7 68.0722 153.7C67.6979 153.7 67.3255 153.754 66.9666 153.86C66.5882 152.767 65.8786 151.819 64.9363 151.148C63.9941 150.477 62.8661 150.117 61.7094 150.117C60.5526 150.117 59.4247 150.477 58.4824 151.148C57.5402 151.819 56.8305 152.767 56.4522 153.86C55.9609 153.725 55.4474 153.689 54.942 153.755C54.4367 153.822 53.9497 153.989 53.5101 154.247C53.0704 154.504 52.687 154.848 52.3824 155.256C52.0778 155.665 51.8583 156.131 51.7369 156.626C51.6155 157.121 51.5946 157.635 51.6755 158.138C51.7564 158.642 51.9374 159.123 52.2078 159.555C52.4782 159.988 52.8326 160.361 53.2498 160.654C53.6671 160.946 54.1389 161.152 54.6372 161.259H68.9693C69.8074 161.056 70.5519 160.575 71.0811 159.894C71.6104 159.214 71.8931 158.373 71.883 157.511Z" fill="white" stroke="#263238" stroke-miterlimit="10"/>
</svg>
