<svg width="298" height="322" viewBox="0 0 298 322" fill="none" xmlns="http://www.w3.org/2000/svg">
<path d="M269.741 172.124C269.704 116.155 278.119 101.337 247.789 54.0535C217.459 6.76952 143.109 -3.70143 86.8832 31.3701C30.6576 66.4415 15.5402 111.545 15.5402 111.545C15.5402 111.545 -4.86028 164.229 23.8086 217.279C50.0263 265.807 101.657 293.378 146.438 316.062H260.945C267.906 310.195 273.824 303.194 278.448 295.354C301.768 256.111 269.785 228.094 269.741 172.124Z" fill="#27B1FF"/>
<path opacity="0.7" d="M269.741 172.124C269.704 116.155 278.119 101.337 247.789 54.0535C217.459 6.76952 143.109 -3.70143 86.8832 31.3701C30.6576 66.4415 15.5402 111.545 15.5402 111.545C15.5402 111.545 -4.86028 164.229 23.8086 217.279C50.0263 265.807 101.657 293.378 146.438 316.062H260.945C267.906 310.195 273.824 303.194 278.448 295.354C301.768 256.111 269.785 228.094 269.741 172.124Z" fill="white"/>
<path d="M133.977 19.0771C134.965 22.9918 134.482 15.7843 136.421 6.95974C138.36 -1.86484 141.675 1.7206 141.675 1.7206" stroke="#263238" stroke-linecap="round" stroke-linejoin="round"/>
<path d="M133.369 10.0621L139.45 7.57422" stroke="#263238" stroke-linecap="round" stroke-linejoin="round"/>
<path d="M144.477 4.58887C144.477 4.58887 140.818 12.0963 146.314 15.294" stroke="#263238" stroke-linecap="round" stroke-linejoin="round"/>
<path d="M149.628 2.45215C149.628 2.45215 155.621 5.78149 151.868 12.9963" stroke="#263238" stroke-linecap="round" stroke-linejoin="round"/>
<path d="M145.516 7.12793L149.811 10.267" stroke="#263238" stroke-linecap="round" stroke-linejoin="round"/>
<path d="M148.889 5.75244L145.523 11.1013" stroke="#263238" stroke-linecap="round" stroke-linejoin="round"/>
<path d="M18.0134 195.935C18.0134 195.935 7.82051 195.788 7.76929 204.584" stroke="#263238" stroke-linecap="round" stroke-linejoin="round"/>
<path d="M17.1645 201.481C16.9523 200.186 12.5181 198.554 11.7498 201.935C10.9815 205.315 16.4913 203.288 18.1963 201.708C18.1963 201.708 15.0352 204.781 16.0011 205.644" stroke="#263238" stroke-linecap="round" stroke-linejoin="round"/>
<path d="M17.7864 206.603C17.7864 206.603 16.4473 208.279 14.9985 207.481" stroke="#263238" stroke-linecap="round" stroke-linejoin="round"/>
<path d="M26.7061 200.75L19.0596 208.513C19.0596 208.513 22.9084 204.613 25.1402 205.872C27.9207 207.394 24.3133 211.564 21.3425 208.579" stroke="#263238" stroke-linecap="round" stroke-linejoin="round"/>
<path d="M30.5696 202.842C30.5696 202.842 32.5965 212.127 22.1328 212.457" stroke="#263238" stroke-linecap="round" stroke-linejoin="round"/>
<path d="M167.08 44.9872L170.768 45.5945L170.819 53.9728L178.897 39.2432L191.644 41.3359" stroke="#263238" stroke-linecap="round" stroke-linejoin="round"/>
<path d="M180.295 45.6973L185.9 55.5902" stroke="#263238" stroke-linecap="round" stroke-linejoin="round"/>
<path d="M187.341 46.8535L177.309 54.1781" stroke="#263238" stroke-linecap="round" stroke-linejoin="round"/>
<path d="M116.686 59.9001C115.742 58.7 110.305 59.5561 111.41 63.405C112.515 67.2539 117.008 62.1245 117.864 59.5561C117.864 59.5561 116.364 64.466 117.864 64.7953" stroke="#263238" stroke-linecap="round" stroke-linejoin="round"/>
<path d="M120.85 55.9414L119.635 60.2586C119.635 60.2586 120.242 58.0634 121.311 58.0634C122.62 58.0634 122.145 60.2586 120.469 59.8049" stroke="#263238" stroke-linecap="round" stroke-linejoin="round"/>
<path d="M223.349 109.152L220.788 118.409L226.386 124.54" stroke="#263238" stroke-linecap="round" stroke-linejoin="round"/>
<path d="M226.554 112.913L232.964 118.277" stroke="#263238" stroke-linecap="round" stroke-linejoin="round"/>
<path d="M230.967 111.596L228.193 118.409" stroke="#263238" stroke-linecap="round" stroke-linejoin="round"/>
<path d="M235.474 117.53C235.474 117.53 235.533 119.462 234.698 119.725" stroke="#263238" stroke-linecap="round" stroke-linejoin="round"/>
<path d="M236.286 110.784L240.157 113.66" stroke="#263238" stroke-linecap="round" stroke-linejoin="round"/>
<path d="M241.591 108.42L237.772 122.177" stroke="#263238" stroke-linecap="round" stroke-linejoin="round"/>
<path d="M241.781 103.642L247.987 110.667L245.345 118.35" stroke="#263238" stroke-linecap="round" stroke-linejoin="round"/>
<path d="M70.895 284.905L79.8733 258.182L90.7613 270.336L70.895 284.905Z" stroke="#263238" stroke-linecap="round" stroke-linejoin="round"/>
<path d="M88.0903 272.29L85.7927 269.663L88.244 267.541" stroke="#263238" stroke-linecap="round" stroke-linejoin="round"/>
<path d="M17.8261 134.768C22.4893 132.836 24.7038 127.49 22.7722 122.827C20.8406 118.163 15.4945 115.949 10.8312 117.881C6.168 119.812 3.95354 125.158 5.88512 129.821C7.8167 134.485 13.1629 136.699 17.8261 134.768Z" stroke="#263238" stroke-linecap="round" stroke-linejoin="round"/>
<path d="M24.4671 128.463C30.0682 128.463 34.6088 123.922 34.6088 118.321C34.6088 112.72 30.0682 108.179 24.4671 108.179C18.866 108.179 14.3254 112.72 14.3254 118.321C14.3254 123.922 18.866 128.463 24.4671 128.463Z" stroke="#263238" stroke-linecap="round" stroke-linejoin="round"/>
<path d="M16.1255 117.362L14.8889 121.658" stroke="#263238" stroke-linecap="round" stroke-linejoin="round"/>
<path d="M17.8743 117.896L16.1255 124.087" stroke="#263238" stroke-linecap="round" stroke-linejoin="round"/>
<path d="M19.7109 118.936L17.8743 125.938" stroke="#263238" stroke-linecap="round" stroke-linejoin="round"/>
<path d="M21.7524 120.992L20.4426 127.636" stroke="#263238" stroke-linecap="round" stroke-linejoin="round"/>
<path d="M22.9012 123.157L21.7524 128.096" stroke="#263238" stroke-linecap="round" stroke-linejoin="round"/>
<path d="M5.58869 114.611C4.79111 114.369 2.60326 116.447 4.30086 117.845C5.99845 119.243 6.43017 115.518 6.01309 114.091C6.01309 114.091 6.8692 116.777 7.64483 116.455" stroke="#263238" stroke-linecap="round" stroke-linejoin="round"/>
<path d="M17.384 102.881L20.3109 108.208C20.3109 108.208 18.8475 105.545 19.8792 104.55C21.1378 103.32 22.8061 105.918 20.6987 107.008" stroke="#263238" stroke-linecap="round" stroke-linejoin="round"/>
<path d="M70.8657 102.245L75 106.159" stroke="#263238" stroke-linecap="round" stroke-linejoin="round"/>
<path d="M74.9999 101.228L71.5388 106.394" stroke="#263238" stroke-linecap="round" stroke-linejoin="round"/>
<path d="M79.0684 102.713L83.2026 101.169" stroke="#263238" stroke-linecap="round" stroke-linejoin="round"/>
<path d="M85.1855 96.8594L87.7027 99.0838" stroke="#263238" stroke-linecap="round" stroke-linejoin="round"/>
<path d="M89.6271 94.1812L86.4441 105.113" stroke="#263238" stroke-linecap="round" stroke-linejoin="round"/>
<path d="M270.333 91.9862L270.158 83.6299H276.472C276.472 83.6299 272.975 85.5616 274.585 90.0544C276.194 94.5472 278.785 91.9862 278.785 91.9862" stroke="#263238" stroke-linecap="round" stroke-linejoin="round"/>
<path d="M259.635 234.533L266.821 229.586L276.333 230.252L276.926 242.311L269.945 247.309L261.326 246.679L259.635 234.533Z" stroke="#263238" stroke-linecap="round" stroke-linejoin="round"/>
<path d="M261.326 246.68L268.277 241.675L276.926 242.311" stroke="#263238" stroke-linecap="round" stroke-linejoin="round"/>
<path d="M268.284 241.674L266.821 229.586" stroke="#263238" stroke-linecap="round" stroke-linejoin="round"/>
<path d="M259.635 234.533L269.126 235.631L276.333 230.252" stroke="#263238" stroke-linecap="round" stroke-linejoin="round"/>
<path d="M269.126 235.63L269.946 247.309" stroke="#263238" stroke-linecap="round" stroke-linejoin="round"/>
<path d="M260.945 143.96L260.638 160.036L274.724 153.641L260.945 143.96Z" stroke="#263238" stroke-linecap="round" stroke-linejoin="round"/>
<path d="M260.945 143.96L267.655 156.758" stroke="#263238" stroke-linecap="round" stroke-linejoin="round"/>
<path d="M266.58 154.702L268.211 153.912L269.309 156.099" stroke="#263238" stroke-linecap="round" stroke-linejoin="round"/>
<path d="M138.133 142.438L143.958 148.68" stroke="#263238" stroke-linecap="round" stroke-linejoin="round"/>
<path d="M144.001 141.597L139.106 148.299" stroke="#263238" stroke-linecap="round" stroke-linejoin="round"/>
<path d="M146.387 138.326C146.666 138.196 146.986 138.183 147.275 138.288C147.565 138.394 147.8 138.61 147.931 138.889C147.977 138.989 148.009 139.095 148.026 139.204C148.311 140.609 146.006 142.438 146.006 142.438H149.292" stroke="#263238" stroke-linecap="round" stroke-linejoin="round"/>
<path d="M47.4504 48.9169C47.7293 45.3714 48.8972 41.9534 50.8463 38.9786C52.7953 36.0039 55.4627 33.5683 58.6019 31.897" stroke="#263238" stroke-linecap="round" stroke-linejoin="round"/>
<path d="M63.629 71.2344C58.2923 69.9544 53.6616 66.6513 50.7141 62.022" stroke="#263238" stroke-linecap="round" stroke-linejoin="round"/>
<path d="M89.7148 52.29C89.2631 57.8939 86.6061 63.0894 82.3271 66.736C78.0481 70.3825 72.4969 72.182 66.8923 71.7392" stroke="#263238" stroke-linecap="round" stroke-linejoin="round"/>
<path d="M70.2656 29.4751C75.0835 29.8613 79.6252 31.8807 83.1392 35.1992C86.6533 38.5177 88.9292 42.9364 89.5904 47.7243" stroke="#263238" stroke-linecap="round" stroke-linejoin="round"/>
<path d="M77.7291 66.9244C74.7713 68.5839 71.4181 69.4082 68.028 69.3092C64.6379 69.2102 61.3384 68.1916 58.4825 66.3623C55.6266 64.533 53.3216 61.9618 51.8141 58.9238C50.3065 55.8857 49.6531 52.495 49.9237 49.1143" stroke="#263238" stroke-linecap="round" stroke-linejoin="round"/>
<path d="M51.1238 43.8753C52.1084 41.3157 53.6436 39.0038 55.6208 37.1033C57.598 35.2028 59.9688 33.7602 62.5654 32.8777C65.162 31.9951 67.9208 31.6941 70.6466 31.9961C73.3724 32.298 75.9985 33.1955 78.3389 34.625C80.6794 36.0544 82.677 37.9809 84.1903 40.2681C85.7036 42.5552 86.6956 45.147 87.0962 47.8601C87.4967 50.5732 87.2958 53.3411 86.5079 55.968C85.72 58.5948 84.3643 61.0163 82.5367 63.0611" stroke="#263238" stroke-linecap="round" stroke-linejoin="round"/>
<path d="M66.7461 37.1436L68.5827 50.6073L78.9293 47.3877" stroke="#263238" stroke-linecap="round" stroke-linejoin="round"/>
<path d="M229.913 76.7735C226.939 76.8022 224.026 75.9266 221.56 74.2627C219.095 72.5987 217.193 70.225 216.107 67.4559C215.021 64.6869 214.801 61.6531 215.478 58.7566C216.155 55.8601 217.695 53.2376 219.896 51.2363" stroke="#263238" stroke-linecap="round" stroke-linejoin="round"/>
<path d="M243.662 66.8438C242.949 68.9466 241.767 70.8597 240.205 72.4381C238.643 74.0164 236.743 75.2186 234.647 75.9537" stroke="#263238" stroke-linecap="round" stroke-linejoin="round"/>
<path d="M224.901 48.2507C228.572 46.9587 232.607 47.1779 236.117 48.8602C239.627 50.5426 242.325 53.5502 243.618 57.2217" stroke="#263238" stroke-linecap="round" stroke-linejoin="round"/>
<path d="M237.018 51.3608C238.535 52.3859 239.817 53.7208 240.78 55.2775C241.743 56.8343 242.365 58.5775 242.606 60.3923C242.846 62.2071 242.699 64.0522 242.174 65.8059C241.649 67.5596 240.758 69.1821 239.56 70.5664C238.362 71.9506 236.884 73.0653 235.224 73.8368C233.564 74.6082 231.759 75.019 229.929 75.0421C228.099 75.0651 226.284 74.6998 224.605 73.9704C222.926 73.2409 221.421 72.1638 220.188 70.81" stroke="#263238" stroke-linecap="round" stroke-linejoin="round"/>
<path d="M217.547 66.3904C216.768 64.1745 216.607 61.7885 217.08 59.4878C217.553 57.1871 218.642 55.0583 220.232 53.3294C221.822 51.6004 223.852 50.3364 226.105 49.6726C228.358 49.0087 230.75 48.9701 233.023 49.5608" stroke="#263238" stroke-linecap="round" stroke-linejoin="round"/>
<path d="M224.828 54.0972L229.774 62.0949L225.267 67.9414" stroke="#263238" stroke-linecap="round" stroke-linejoin="round"/>
<path d="M126.081 280.822C126.074 278.902 126.537 277.011 127.43 275.311C128.323 273.612 129.619 272.158 131.203 271.075" stroke="#263238" stroke-linecap="round" stroke-linejoin="round"/>
<path d="M146.357 288.929C144.962 290.397 143.211 291.48 141.274 292.073C139.338 292.666 137.281 292.75 135.303 292.316C133.324 291.882 131.492 290.945 129.981 289.595C128.471 288.246 127.334 286.529 126.681 284.612" stroke="#263238" stroke-linecap="round" stroke-linejoin="round"/>
<path d="M137.826 269.048C140.948 269.048 143.943 270.289 146.151 272.497C148.359 274.705 149.599 277.699 149.599 280.822" stroke="#263238" stroke-linecap="round" stroke-linejoin="round"/>
<path d="M137.826 291.205C135.072 291.205 132.431 290.111 130.484 288.164C128.536 286.217 127.442 283.576 127.442 280.822" stroke="#263238" stroke-linecap="round" stroke-linejoin="round"/>
<path d="M129.74 274.302C130.703 273.113 131.916 272.151 133.293 271.485C134.671 270.819 136.178 270.466 137.708 270.45C139.238 270.434 140.752 270.756 142.143 271.393C143.534 272.03 144.767 272.966 145.754 274.135C146.741 275.304 147.458 276.676 147.854 278.154C148.249 279.632 148.313 281.179 148.042 282.684C147.77 284.19 147.17 285.617 146.283 286.863C145.396 288.11 144.245 289.145 142.911 289.895" stroke="#263238" stroke-linecap="round" stroke-linejoin="round"/>
<path d="M136.216 287.875L137.826 280.822L135.579 275.056" stroke="#263238" stroke-linecap="round" stroke-linejoin="round"/>
<path d="M0.744629 316.325H296.785" stroke="#263238" stroke-linecap="round" stroke-linejoin="round"/>
<path d="M150.953 162.026L146.131 253.836L85.0391 250.631L85.5513 240.899L89.8611 158.814L128.328 160.834L150.953 162.026Z" fill="white"/>
<mask id="mask0_1969_7898" style="mask-type:luminance" maskUnits="userSpaceOnUse" x="85" y="158" width="66" height="96">
<path d="M150.953 162.026L146.131 253.836L85.0391 250.631L85.5513 240.899L89.8611 158.814L128.328 160.834L150.953 162.026Z" fill="white"/>
</mask>
<g mask="url(#mask0_1969_7898)">
<path opacity="0.2" d="M131.884 215.815L118.12 216.949L122.137 234.284L85.5513 240.899L89.8611 158.814L128.328 160.834L131.884 215.815Z" fill="black" fill-opacity="0.7"/>
</g>
<path d="M150.953 162.026L146.131 253.836L85.0391 250.631L85.5513 240.899L89.8611 158.814L128.328 160.834L150.953 162.026Z" stroke="#263238" stroke-linecap="round" stroke-linejoin="round"/>
<path d="M94.1709 165.092L110.071 165.926" stroke="#263238" stroke-width="2" stroke-linecap="round" stroke-linejoin="round"/>
<path d="M94.01 168.144L104.825 168.714" stroke="#263238" stroke-width="2" stroke-linecap="round" stroke-linejoin="round"/>
<path d="M97.5076 175.556L143.24 177.956" stroke="#263238" stroke-width="2" stroke-linecap="round" stroke-linejoin="round"/>
<path d="M97.3467 178.607L143.079 181.007" stroke="#263238" stroke-width="2" stroke-linecap="round" stroke-linejoin="round"/>
<path d="M97.1638 182.171L136.165 184.212" stroke="#263238" stroke-width="2" stroke-linecap="round" stroke-linejoin="round"/>
<path d="M97.1797 185.421L96.9841 189.141L100.703 189.336L100.899 185.617L97.1797 185.421Z" stroke="#263238" stroke-linecap="round" stroke-linejoin="round"/>
<path d="M103.921 185.778L103.726 189.498L107.445 189.693L107.641 185.974L103.921 185.778Z" stroke="#263238" stroke-linecap="round" stroke-linejoin="round"/>
<path d="M110.655 186.136L110.459 189.855L114.179 190.051L114.374 186.331L110.655 186.136Z" stroke="#263238" stroke-linecap="round" stroke-linejoin="round"/>
<path d="M117.396 186.493L117.201 190.212L120.92 190.407L121.116 186.688L117.396 186.493Z" stroke="#263238" stroke-linecap="round" stroke-linejoin="round"/>
<path d="M95.071 175.424C95.0663 175.545 95.0377 175.664 94.987 175.774C94.9363 175.884 94.8643 175.983 94.7753 176.066C94.6863 176.148 94.5819 176.212 94.4681 176.254C94.3544 176.295 94.2335 176.314 94.1124 176.31C93.866 176.297 93.6346 176.187 93.4693 176.004C93.3039 175.82 93.2181 175.579 93.2307 175.333C93.2433 175.086 93.3533 174.855 93.5365 174.689C93.7197 174.524 93.9611 174.438 94.2076 174.451C94.3287 174.457 94.4475 174.486 94.5572 174.538C94.6669 174.589 94.7654 174.662 94.847 174.752C94.9285 174.841 94.9916 174.946 95.0325 175.06C95.0735 175.175 95.0915 175.296 95.0856 175.417L95.071 175.424Z" fill="#263238"/>
<path d="M96.571 193.359L142.304 195.759" stroke="#263238" stroke-width="2" stroke-linecap="round" stroke-linejoin="round"/>
<path d="M96.4102 196.41L142.143 198.81" stroke="#263238" stroke-width="2" stroke-linecap="round" stroke-linejoin="round"/>
<path d="M96.2271 199.974L135.228 202.015" stroke="#263238" stroke-width="2" stroke-linecap="round" stroke-linejoin="round"/>
<path d="M96.2351 203.236L96.0396 206.955L99.7589 207.151L99.9545 203.431L96.2351 203.236Z" stroke="#263238" stroke-linecap="round" stroke-linejoin="round"/>
<path d="M102.984 203.585L102.788 207.305L106.508 207.5L106.703 203.781L102.984 203.585Z" stroke="#263238" stroke-linecap="round" stroke-linejoin="round"/>
<path d="M109.718 203.935L109.522 207.655L113.242 207.85L113.437 204.131L109.718 203.935Z" stroke="#263238" stroke-linecap="round" stroke-linejoin="round"/>
<path d="M116.452 204.292L116.256 208.012L119.976 208.207L120.171 204.488L116.452 204.292Z" stroke="#263238" stroke-linecap="round" stroke-linejoin="round"/>
<path d="M94.1418 193.227C94.1361 193.349 94.1065 193.469 94.0545 193.579C94.0025 193.69 93.9292 193.789 93.8388 193.872C93.7484 193.954 93.6427 194.017 93.5277 194.059C93.4127 194.1 93.2907 194.118 93.1686 194.112C92.9836 194.103 92.8055 194.04 92.6566 193.93C92.5077 193.82 92.3948 193.668 92.3321 193.494C92.2695 193.32 92.2598 193.131 92.3045 192.951C92.3491 192.771 92.446 192.609 92.5829 192.484C92.7198 192.36 92.8906 192.278 93.0737 192.251C93.2568 192.223 93.4439 192.25 93.6115 192.329C93.7791 192.408 93.9197 192.534 94.0153 192.693C94.111 192.851 94.1576 193.035 94.1491 193.22L94.1418 193.227Z" fill="#263238"/>
<path d="M95.6418 211.162L141.367 213.562" stroke="#263238" stroke-width="2" stroke-linecap="round" stroke-linejoin="round"/>
<path d="M95.4807 214.213L141.206 216.613" stroke="#263238" stroke-width="2" stroke-linecap="round" stroke-linejoin="round"/>
<path d="M95.2905 217.769L134.291 219.818" stroke="#263238" stroke-width="2" stroke-linecap="round" stroke-linejoin="round"/>
<path d="M95.3057 221.028L95.1101 224.747L98.8294 224.943L99.025 221.223L95.3057 221.028Z" stroke="#263238" stroke-linecap="round" stroke-linejoin="round"/>
<path d="M102.836 221.362L102.65 225.089L106.377 225.276L106.563 221.548L102.836 221.362Z" stroke="#263238" stroke-width="1.00125" stroke-linecap="round" stroke-linejoin="round"/>
<path d="M108.781 221.743L108.585 225.462L112.304 225.657L112.5 221.938L108.781 221.743Z" stroke="#263238" stroke-linecap="round" stroke-linejoin="round"/>
<path d="M115.53 222.092L115.334 225.811L119.054 226.007L119.249 222.287L115.53 222.092Z" stroke="#263238" stroke-linecap="round" stroke-linejoin="round"/>
<path d="M93.2052 211.03C93.1996 211.152 93.1699 211.272 93.1179 211.382C93.0659 211.493 92.9927 211.592 92.9023 211.674C92.8119 211.757 92.7061 211.82 92.5911 211.862C92.4761 211.903 92.3541 211.921 92.232 211.915C91.9836 211.915 91.7454 211.817 91.5697 211.641C91.3941 211.465 91.2954 211.227 91.2954 210.979C91.2954 210.73 91.3941 210.492 91.5697 210.316C91.7454 210.141 91.9836 210.042 92.232 210.042H92.3637C92.4858 210.048 92.6056 210.077 92.7162 210.129C92.8268 210.181 92.926 210.255 93.0083 210.345C93.0905 210.435 93.1541 210.541 93.1954 210.656C93.2368 210.771 93.255 210.893 93.2491 211.015L93.2052 211.03Z" fill="#263238"/>
<path d="M94.676 229.469L140.401 231.877" stroke="#263238" stroke-width="2" stroke-linecap="round" stroke-linejoin="round"/>
<path d="M94.5149 232.521L140.248 234.928" stroke="#263238" stroke-width="2" stroke-linecap="round" stroke-linejoin="round"/>
<path d="M94.332 236.084L133.333 238.133" stroke="#263238" stroke-width="2" stroke-linecap="round" stroke-linejoin="round"/>
<path d="M94.3362 239.345L94.1406 243.064L97.86 243.26L98.0555 239.54L94.3362 239.345Z" stroke="#263238" stroke-linecap="round" stroke-linejoin="round"/>
<path d="M101.086 239.694L100.89 243.414L104.61 243.609L104.805 239.89L101.086 239.694Z" stroke="#263238" stroke-linecap="round" stroke-linejoin="round"/>
<path d="M107.835 240.044L107.639 243.764L111.358 243.959L111.554 240.24L107.835 240.044Z" stroke="#263238" stroke-linecap="round" stroke-linejoin="round"/>
<path d="M114.569 240.409L114.373 244.128L118.092 244.324L118.288 240.605L114.569 240.409Z" stroke="#263238" stroke-linecap="round" stroke-linejoin="round"/>
<path d="M92.2392 229.345C92.2288 229.529 92.1643 229.705 92.0538 229.851C91.9434 229.998 91.7919 230.109 91.6185 230.17C91.4452 230.23 91.2577 230.238 91.0798 230.193C90.902 230.147 90.7416 230.049 90.6191 229.913C90.4966 229.776 90.4173 229.606 90.3914 229.424C90.3655 229.242 90.394 229.057 90.4734 228.891C90.5528 228.725 90.6795 228.587 90.8375 228.493C90.9955 228.4 91.1777 228.355 91.3611 228.365C91.4832 228.371 91.6028 228.402 91.7131 228.455C91.8233 228.507 91.9221 228.582 92.0036 228.673C92.0852 228.764 92.148 228.87 92.1884 228.985C92.2288 229.101 92.2461 229.223 92.2392 229.345Z" fill="#263238"/>
<path d="M98.4443 186.971L98.9273 187.805L100.91 185.617" stroke="#263238" stroke-width="2" stroke-linecap="round" stroke-linejoin="round"/>
<path d="M111.001 205.257L111.484 206.091L113.467 203.903" stroke="#263238" stroke-width="2" stroke-linecap="round" stroke-linejoin="round"/>
<path d="M117.301 224.048L117.784 224.882L119.767 222.687" stroke="#263238" stroke-width="2" stroke-linecap="round" stroke-linejoin="round"/>
<path d="M102.374 240.819L102.856 241.645L104.839 239.458" stroke="#263238" stroke-width="2" stroke-linecap="round" stroke-linejoin="round"/>
<path d="M110.357 227.852L51.4164 244.236L26.8013 155.646L51.2042 148.863L85.7416 139.27L108.074 219.642L110.357 227.852Z" fill="white"/>
<mask id="mask1_1969_7898" style="mask-type:luminance" maskUnits="userSpaceOnUse" x="26" y="139" width="85" height="106">
<path d="M110.357 227.852L51.4164 244.236L26.8013 155.646L51.2042 148.863L85.7416 139.27L108.074 219.642L110.357 227.852Z" fill="white"/>
</mask>
<g mask="url(#mask1_1969_7898)">
<path opacity="0.2" d="M108.074 219.642L62.5022 222.591L51.2043 148.863L85.7417 139.27L108.074 219.642Z" fill="black" fill-opacity="0.7"/>
</g>
<path d="M110.357 227.852L51.4164 244.236L26.8013 155.646L51.2042 148.863L85.7416 139.27L108.074 219.642L110.357 227.852Z" stroke="#263238" stroke-linecap="round" stroke-linejoin="round"/>
<path d="M32.8892 160.226L48.2261 155.968" stroke="#263238" stroke-width="2" stroke-linecap="round" stroke-linejoin="round"/>
<path d="M33.7014 163.175L44.1358 160.278" stroke="#263238" stroke-width="2" stroke-linecap="round" stroke-linejoin="round"/>
<path d="M39.3723 169.087L83.4952 156.831" stroke="#263238" stroke-width="2" stroke-linecap="round" stroke-linejoin="round"/>
<path d="M40.1919 172.029L84.3148 159.773" stroke="#263238" stroke-width="2" stroke-linecap="round" stroke-linejoin="round"/>
<path d="M41.1431 175.468L78.7756 165.012" stroke="#263238" stroke-width="2" stroke-linecap="round" stroke-linejoin="round"/>
<path d="M45.7933 177.55L42.2048 178.547L43.202 182.135L46.7905 181.138L45.7933 177.55Z" stroke="#263238" stroke-linecap="round" stroke-linejoin="round"/>
<path d="M52.2992 175.735L48.7107 176.732L49.7079 180.321L53.2964 179.324L52.2992 175.735Z" stroke="#263238" stroke-linecap="round" stroke-linejoin="round"/>
<path d="M58.807 173.926L55.2185 174.923L56.2157 178.512L59.8042 177.515L58.807 173.926Z" stroke="#263238" stroke-linecap="round" stroke-linejoin="round"/>
<path d="M65.3029 172.122L61.7144 173.12L62.7116 176.708L66.3001 175.711L65.3029 172.122Z" stroke="#263238" stroke-linecap="round" stroke-linejoin="round"/>
<path d="M37.0234 169.739C37.0894 169.976 37.0582 170.231 36.9368 170.445C36.8153 170.66 36.6135 170.818 36.3758 170.884C36.1381 170.95 35.8839 170.919 35.6691 170.797C35.4544 170.676 35.2966 170.474 35.2307 170.236C35.1647 169.998 35.1958 169.744 35.3173 169.529C35.4387 169.315 35.6405 169.157 35.8782 169.091C36.116 169.025 36.3702 169.056 36.5849 169.178C36.7997 169.299 36.9574 169.501 37.0234 169.739Z" fill="#263238"/>
<path d="M44.1431 186.261L88.266 174.005" stroke="#263238" stroke-width="2" stroke-linecap="round" stroke-linejoin="round"/>
<path d="M44.9626 189.21L89.0856 176.946" stroke="#263238" stroke-width="2" stroke-linecap="round" stroke-linejoin="round"/>
<path d="M45.9211 192.642L83.5463 182.186" stroke="#263238" stroke-width="2" stroke-linecap="round" stroke-linejoin="round"/>
<path d="M50.568 194.72L46.9795 195.717L47.9767 199.305L51.5652 198.308L50.568 194.72Z" stroke="#263238" stroke-linecap="round" stroke-linejoin="round"/>
<path d="M57.069 192.914L53.4805 193.911L54.4777 197.5L58.0662 196.502L57.069 192.914Z" stroke="#263238" stroke-linecap="round" stroke-linejoin="round"/>
<path d="M63.577 191.107L59.9885 192.104L60.9857 195.692L64.5742 194.695L63.577 191.107Z" stroke="#263238" stroke-linecap="round" stroke-linejoin="round"/>
<path d="M70.0902 189.29L66.5017 190.288L67.4989 193.876L71.0874 192.879L70.0902 189.29Z" stroke="#263238" stroke-linecap="round" stroke-linejoin="round"/>
<path d="M41.8015 186.919C41.851 187.098 41.8465 187.287 41.7887 187.463C41.7308 187.639 41.6221 187.793 41.4764 187.907C41.3306 188.021 41.1543 188.09 40.9698 188.104C40.7852 188.118 40.6006 188.077 40.4393 187.986C40.2781 187.895 40.1473 187.758 40.0636 187.593C39.9799 187.428 39.947 187.242 39.9691 187.058C39.9911 186.875 40.0671 186.701 40.1875 186.561C40.3079 186.42 40.4672 186.318 40.6454 186.268C40.7631 186.235 40.8863 186.225 41.0078 186.239C41.1293 186.254 41.2468 186.292 41.3536 186.352C41.4603 186.411 41.5542 186.492 41.6298 186.588C41.7054 186.684 41.7613 186.794 41.7942 186.912L41.8015 186.919Z" fill="#263238"/>
<path d="M48.9211 203.442L93.0367 191.178" stroke="#263238" stroke-width="2" stroke-linecap="round" stroke-linejoin="round"/>
<path d="M49.7407 206.383L93.8563 194.127" stroke="#263238" stroke-width="2" stroke-linecap="round" stroke-linejoin="round"/>
<path d="M50.6921 209.823L88.3247 199.366" stroke="#263238" stroke-width="2" stroke-linecap="round" stroke-linejoin="round"/>
<path d="M55.336 211.893L51.7476 212.89L52.7448 216.479L56.3332 215.481L55.336 211.893Z" stroke="#263238" stroke-linecap="round" stroke-linejoin="round"/>
<path d="M61.8512 210.084L58.2627 211.081L59.2599 214.67L62.8484 213.672L61.8512 210.084Z" stroke="#263238" stroke-linecap="round" stroke-linejoin="round"/>
<path d="M68.3448 208.278L64.7563 209.275L65.7535 212.864L69.342 211.867L68.3448 208.278Z" stroke="#263238" stroke-linecap="round" stroke-linejoin="round"/>
<path d="M74.8529 206.471L71.2644 207.468L72.2616 211.057L75.8501 210.06L74.8529 206.471Z" stroke="#263238" stroke-linecap="round" stroke-linejoin="round"/>
<path d="M46.5725 204.093C46.622 204.272 46.6175 204.461 46.5597 204.637C46.5018 204.812 46.3931 204.967 46.2474 205.081C46.1016 205.195 45.9253 205.264 45.7408 205.278C45.5562 205.292 45.3716 205.251 45.2103 205.16C45.0491 205.069 44.9183 204.932 44.8346 204.767C44.7509 204.602 44.718 204.416 44.7401 204.232C44.7621 204.048 44.8381 203.875 44.9585 203.735C45.0789 203.594 45.2382 203.492 45.4164 203.442C45.5341 203.409 45.6573 203.399 45.7788 203.413C45.9003 203.427 46.0178 203.466 46.1246 203.525C46.2313 203.585 46.3252 203.666 46.4008 203.762C46.4764 203.858 46.5323 203.968 46.5652 204.086L46.5725 204.093Z" fill="#263238"/>
<path d="M53.8311 221.106L97.9466 208.85" stroke="#263238" stroke-width="2" stroke-linecap="round" stroke-linejoin="round"/>
<path d="M54.6433 224.055L98.7662 211.791" stroke="#263238" stroke-width="2" stroke-linecap="round" stroke-linejoin="round"/>
<path d="M55.6018 227.487L93.2343 217.03" stroke="#263238" stroke-width="2" stroke-linecap="round" stroke-linejoin="round"/>
<path d="M60.2467 229.565L56.6582 230.562L57.6554 234.151L61.2439 233.154L60.2467 229.565Z" stroke="#263238" stroke-linecap="round" stroke-linejoin="round"/>
<path d="M66.7545 227.756L63.166 228.753L64.1632 232.342L67.7517 231.345L66.7545 227.756Z" stroke="#263238" stroke-linecap="round" stroke-linejoin="round"/>
<path d="M73.2626 225.949L69.6741 226.946L70.6713 230.534L74.2598 229.537L73.2626 225.949Z" stroke="#263238" stroke-linecap="round" stroke-linejoin="round"/>
<path d="M79.7635 224.143L76.175 225.141L77.1722 228.729L80.7607 227.732L79.7635 224.143Z" stroke="#263238" stroke-linecap="round" stroke-linejoin="round"/>
<path d="M51.4823 221.757C51.5512 221.996 51.5224 222.252 51.4023 222.47C51.2823 222.687 51.0807 222.848 50.842 222.917C50.6033 222.986 50.347 222.957 50.1295 222.837C49.912 222.717 49.7511 222.515 49.6822 222.277C49.6143 222.037 49.6439 221.78 49.7645 221.562C49.8852 221.344 50.087 221.183 50.3261 221.113C50.5629 221.048 50.8159 221.077 51.0308 221.196C51.2457 221.316 51.4052 221.514 51.4749 221.75L51.4823 221.757Z" fill="#263238"/>
<path d="M50.0115 177.905L50.7359 178.541L51.9213 175.834" stroke="#263238" stroke-width="2" stroke-linecap="round" stroke-linejoin="round"/>
<path d="M48.248 197.069L48.9725 197.705L50.1505 194.998" stroke="#263238" stroke-width="2" stroke-linecap="round" stroke-linejoin="round"/>
<path d="M53.0188 214.066L53.7432 214.703L54.9213 211.996" stroke="#263238" stroke-width="2" stroke-linecap="round" stroke-linejoin="round"/>
<path d="M70.9241 227.991L71.6485 228.628L72.8339 225.92" stroke="#263238" stroke-width="2" stroke-linecap="round" stroke-linejoin="round"/>
<path d="M116.112 118.806L55.2209 124.658L64.0171 216.177L124.909 210.325L116.112 118.806Z" fill="white" stroke="#263238" stroke-linecap="round" stroke-linejoin="round"/>
<path d="M60.4094 130.24L76.2585 128.718" stroke="#263238" stroke-width="2" stroke-linecap="round" stroke-linejoin="round"/>
<path d="M60.7019 133.284L71.4802 132.245" stroke="#263238" stroke-width="2" stroke-linecap="round" stroke-linejoin="round"/>
<path d="M65.2534 140.097L110.832 135.714" stroke="#263238" stroke-width="2" stroke-linecap="round" stroke-linejoin="round"/>
<path d="M65.5459 143.134L111.125 138.758" stroke="#263238" stroke-width="2" stroke-linecap="round" stroke-linejoin="round"/>
<path d="M65.8899 146.682L104.766 142.95" stroke="#263238" stroke-width="2" stroke-linecap="round" stroke-linejoin="round"/>
<path d="M70.1097 149.536L66.4023 149.893L66.7587 153.6L70.4661 153.244L70.1097 149.536Z" stroke="#263238" stroke-linecap="round" stroke-linejoin="round"/>
<path d="M76.8297 148.888L73.1223 149.245L73.4786 152.952L77.186 152.596L76.8297 148.888Z" stroke="#263238" stroke-linecap="round" stroke-linejoin="round"/>
<path d="M83.5497 148.249L79.8423 148.605L80.1986 152.312L83.906 151.956L83.5497 148.249Z" stroke="#263238" stroke-linecap="round" stroke-linejoin="round"/>
<path d="M90.2689 147.594L86.5615 147.951L86.9179 151.658L90.6252 151.302L90.2689 147.594Z" stroke="#263238" stroke-linecap="round" stroke-linejoin="round"/>
<path d="M62.8312 140.331C62.8491 140.515 62.812 140.701 62.7245 140.864C62.6371 141.027 62.5032 141.161 62.3398 141.248C62.1764 141.335 61.9908 141.372 61.8066 141.354C61.6223 141.335 61.4476 141.263 61.3045 141.145C61.1614 141.028 61.0564 140.87 61.0027 140.693C60.949 140.516 60.949 140.327 61.0027 140.15C61.0565 139.972 61.1616 139.815 61.3047 139.698C61.4478 139.58 61.6225 139.508 61.8068 139.489C61.9284 139.477 62.0512 139.489 62.1681 139.525C62.2851 139.56 62.3939 139.618 62.4883 139.696C62.5828 139.773 62.6611 139.868 62.7187 139.976C62.7762 140.084 62.812 140.202 62.8239 140.324L62.8312 140.331Z" fill="#263238"/>
<path d="M66.9583 157.841L112.537 153.465" stroke="#263238" stroke-width="2" stroke-linecap="round" stroke-linejoin="round"/>
<path d="M67.251 160.885L112.83 156.502" stroke="#263238" stroke-width="2" stroke-linecap="round" stroke-linejoin="round"/>
<path d="M67.5947 164.434L106.471 160.695" stroke="#263238" stroke-width="2" stroke-linecap="round" stroke-linejoin="round"/>
<path d="M71.8143 167.277L68.1069 167.634L68.4633 171.341L72.1706 170.985L71.8143 167.277Z" stroke="#263238" stroke-linecap="round" stroke-linejoin="round"/>
<path d="M78.534 166.637L74.8267 166.993L75.183 170.701L78.8904 170.344L78.534 166.637Z" stroke="#263238" stroke-linecap="round" stroke-linejoin="round"/>
<path d="M85.254 165.99L81.5466 166.346L81.903 170.054L85.6104 169.697L85.254 165.99Z" stroke="#263238" stroke-linecap="round" stroke-linejoin="round"/>
<path d="M91.9747 165.358L88.2673 165.714L88.6237 169.421L92.331 169.065L91.9747 165.358Z" stroke="#263238" stroke-linecap="round" stroke-linejoin="round"/>
<path d="M64.5363 158.075C64.5542 158.259 64.5171 158.445 64.4296 158.608C64.3421 158.771 64.2083 158.905 64.0449 158.992C63.8815 159.079 63.6959 159.116 63.5117 159.098C63.3274 159.079 63.1527 159.007 63.0096 158.889C62.8665 158.772 62.7615 158.614 62.7078 158.437C62.654 158.26 62.6541 158.071 62.7078 157.894C62.7616 157.717 62.8666 157.559 63.0098 157.442C63.1529 157.324 63.3276 157.252 63.5119 157.234C63.6344 157.221 63.7581 157.234 63.876 157.269C63.9938 157.305 64.1034 157.364 64.1986 157.442C64.2937 157.52 64.3725 157.616 64.4305 157.725C64.4884 157.833 64.5244 157.952 64.5363 158.075Z" fill="#263238"/>
<path d="M68.6631 175.585L114.242 171.209" stroke="#263238" stroke-width="2" stroke-linecap="round" stroke-linejoin="round"/>
<path d="M68.9558 178.629L114.535 174.246" stroke="#263238" stroke-width="2" stroke-linecap="round" stroke-linejoin="round"/>
<path d="M69.2998 182.178L108.176 178.439" stroke="#263238" stroke-width="2" stroke-linecap="round" stroke-linejoin="round"/>
<path d="M73.5187 185.026L69.8113 185.382L70.1676 189.09L73.875 188.733L73.5187 185.026Z" stroke="#263238" stroke-linecap="round" stroke-linejoin="round"/>
<path d="M80.2386 184.379L76.5312 184.735L76.8876 188.443L80.595 188.086L80.2386 184.379Z" stroke="#263238" stroke-linecap="round" stroke-linejoin="round"/>
<path d="M86.9584 183.738L83.251 184.095L83.6073 187.802L87.3147 187.446L86.9584 183.738Z" stroke="#263238" stroke-linecap="round" stroke-linejoin="round"/>
<path d="M93.6783 183.091L89.9709 183.448L90.3273 187.155L94.0347 186.799L93.6783 183.091Z" stroke="#263238" stroke-linecap="round" stroke-linejoin="round"/>
<path d="M66.2339 175.819C66.2505 176.002 66.2125 176.186 66.1246 176.348C66.0368 176.509 65.903 176.641 65.7403 176.726C65.5775 176.812 65.3931 176.847 65.2104 176.828C65.0276 176.808 64.8547 176.735 64.7135 176.617C64.5723 176.5 64.4692 176.343 64.4172 176.167C64.3651 175.99 64.3665 175.803 64.4212 175.627C64.4758 175.452 64.5813 175.296 64.7242 175.181C64.8672 175.065 65.0411 174.995 65.2242 174.978C65.3457 174.967 65.4683 174.98 65.5848 175.016C65.7013 175.052 65.8096 175.111 65.9034 175.19C65.9971 175.268 66.0746 175.364 66.1313 175.472C66.188 175.58 66.2229 175.698 66.2339 175.819Z" fill="#263238"/>
<path d="M70.4192 193.842L115.998 189.459" stroke="#263238" stroke-width="2" stroke-linecap="round" stroke-linejoin="round"/>
<path d="M70.7119 196.879L116.291 192.503" stroke="#263238" stroke-width="2" stroke-linecap="round" stroke-linejoin="round"/>
<path d="M71.0486 200.427L109.925 196.695" stroke="#263238" stroke-width="2" stroke-linecap="round" stroke-linejoin="round"/>
<path d="M75.2718 203.279L71.5645 203.636L71.9208 207.343L75.6282 206.987L75.2718 203.279Z" stroke="#263238" stroke-linecap="round" stroke-linejoin="round"/>
<path d="M81.9991 202.639L78.2917 202.996L78.6481 206.703L82.3555 206.347L81.9991 202.639Z" stroke="#263238" stroke-linecap="round" stroke-linejoin="round"/>
<path d="M88.711 201.985L85.0037 202.342L85.36 206.049L89.0674 205.693L88.711 201.985Z" stroke="#263238" stroke-linecap="round" stroke-linejoin="round"/>
<path d="M95.431 201.338L91.7236 201.694L92.08 205.402L95.7873 205.045L95.431 201.338Z" stroke="#263238" stroke-linecap="round" stroke-linejoin="round"/>
<path d="M67.9901 194.069C68.0096 194.253 67.9738 194.44 67.8871 194.604C67.8004 194.769 67.6668 194.903 67.5033 194.992C67.3398 195.08 67.1537 195.117 66.9688 195.1C66.7838 195.082 66.6084 195.009 66.4647 194.891C66.3211 194.774 66.2157 194.616 66.162 194.438C66.1083 194.26 66.1088 194.07 66.1633 193.893C66.2177 193.715 66.3238 193.558 66.468 193.44C66.6122 193.323 66.788 193.252 66.973 193.235C67.0946 193.222 67.2173 193.234 67.3343 193.27C67.4512 193.305 67.5601 193.363 67.6545 193.441C67.749 193.518 67.8273 193.614 67.8848 193.721C67.9424 193.829 67.9782 193.947 67.9901 194.069Z" fill="#263238"/>
<path d="M67.8655 151.248L68.4655 152.002L70.1045 149.543" stroke="#263238" stroke-width="2" stroke-linecap="round" stroke-linejoin="round"/>
<path d="M82.9902 167.478L83.5902 168.232L85.222 165.773" stroke="#263238" stroke-width="2" stroke-linecap="round" stroke-linejoin="round"/>
<path d="M78.0073 186.239L78.6073 186.993L80.2464 184.534" stroke="#263238" stroke-width="2" stroke-linecap="round" stroke-linejoin="round"/>
<path d="M93.1028 203.061L93.7028 203.815L95.3419 201.356" stroke="#263238" stroke-width="2" stroke-linecap="round" stroke-linejoin="round"/>
<path d="M190.583 82.7295H152.775C151.44 82.7295 150.159 83.2599 149.215 84.204C148.271 85.1481 147.74 86.4286 147.74 87.7637V120.26C147.74 121.595 148.271 122.875 149.215 123.819C150.159 124.763 151.44 125.294 152.775 125.294H169.531L179.131 136.862L176.724 125.294H190.583C191.914 125.288 193.189 124.755 194.128 123.812C195.068 122.868 195.595 121.591 195.595 120.26V87.7637C195.595 86.4324 195.068 85.1552 194.128 84.2117C193.189 83.2683 191.914 82.7353 190.583 82.7295Z" fill="white" stroke="#263238" stroke-linecap="round" stroke-linejoin="round"/>
<path d="M174.705 100.554V97.1152L172.129 96.8957C171.975 96.3588 171.762 95.8409 171.492 95.3517L173.153 93.3761L170.717 90.9468L168.741 92.6078C168.254 92.3342 167.736 92.1204 167.197 91.9712L166.978 89.3955H163.538L163.319 91.9712C162.781 92.1204 162.262 92.3342 161.775 92.6078L159.799 90.9468L157.363 93.3761L159.009 95.381C158.736 95.8693 158.52 96.3874 158.365 96.9249L155.79 97.1445V100.584L158.365 100.81C158.52 101.348 158.736 101.866 159.009 102.354L157.341 104.33L159.777 106.759L161.753 105.098C162.24 105.372 162.759 105.586 163.297 105.735L163.517 108.311H166.956L167.175 105.735C167.714 105.586 168.232 105.372 168.719 105.098L170.695 106.759L173.131 104.33L171.47 102.354C171.74 101.865 171.953 101.347 172.107 100.81L174.705 100.554ZM165.258 102.837C164.466 102.839 163.692 102.605 163.033 102.167C162.374 101.728 161.86 101.104 161.556 100.373C161.251 99.6424 161.171 98.8378 161.324 98.0611C161.477 97.2844 161.857 96.5705 162.415 96.0097C162.974 95.4489 163.687 95.0664 164.463 94.9106C165.239 94.7547 166.044 94.8325 166.776 95.1341C167.508 95.4357 168.134 95.9476 168.575 96.605C169.016 97.2624 169.252 98.0358 169.253 98.8274C169.255 99.3523 169.153 99.8725 168.954 100.358C168.754 100.844 168.461 101.285 168.09 101.657C167.72 102.029 167.28 102.324 166.795 102.525C166.31 102.726 165.79 102.83 165.265 102.83L165.258 102.837Z" fill="#27B1FF"/>
<path d="M186.083 108.23V105.786L184.246 105.625C184.14 105.243 183.987 104.874 183.793 104.528L184.978 103.123L183.251 101.396L181.839 102.574C181.491 102.382 181.123 102.23 180.741 102.12L180.588 100.291H178.136L177.983 102.12C177.599 102.23 177.228 102.382 176.878 102.574L175.473 101.396L173.746 103.123L174.924 104.528C174.732 104.874 174.582 105.243 174.478 105.625L172.641 105.786V108.23L174.478 108.391C174.582 108.774 174.732 109.142 174.924 109.489L173.746 110.894L175.473 112.628L176.878 111.442C177.225 111.64 177.597 111.793 177.983 111.896L178.136 113.733H180.588L180.741 111.896C181.125 111.793 181.494 111.64 181.839 111.442L183.251 112.628L184.978 110.894L183.793 109.489C183.99 109.144 184.143 108.775 184.246 108.391L186.083 108.23ZM179.358 109.855C178.795 109.855 178.245 109.688 177.777 109.375C177.309 109.062 176.944 108.618 176.729 108.097C176.513 107.577 176.457 107.005 176.567 106.453C176.676 105.901 176.948 105.394 177.346 104.996C177.744 104.597 178.251 104.326 178.803 104.217C179.355 104.107 179.927 104.163 180.448 104.378C180.968 104.594 181.412 104.959 181.725 105.427C182.038 105.895 182.205 106.445 182.205 107.008C182.205 107.763 181.905 108.487 181.371 109.021C180.837 109.555 180.113 109.855 179.358 109.855Z" fill="#27B1FF"/>
<path d="M174.112 113.93V112.211L172.802 112.094C172.727 111.82 172.619 111.557 172.48 111.311L173.321 110.315L172.092 109.079L171.09 109.92C170.842 109.788 170.583 109.68 170.314 109.598L170.197 108.296H168.455L168.346 109.598C168.074 109.676 167.811 109.784 167.563 109.92L166.56 109.079L165.331 110.315L166.173 111.311C166.037 111.559 165.929 111.821 165.851 112.094L164.548 112.211V113.945L165.851 114.062C165.929 114.334 166.037 114.597 166.173 114.845L165.331 115.869L166.56 117.106L167.563 116.264C167.813 116.397 168.075 116.505 168.346 116.586L168.455 117.889H170.197L170.314 116.586C170.583 116.505 170.842 116.397 171.09 116.264L172.092 117.106L173.321 115.869L172.48 114.874C172.619 114.627 172.727 114.364 172.802 114.091L174.112 113.93ZM169.326 115.086C168.925 115.086 168.533 114.967 168.2 114.745C167.867 114.522 167.607 114.205 167.454 113.835C167.3 113.465 167.26 113.057 167.338 112.664C167.417 112.271 167.61 111.91 167.893 111.626C168.176 111.343 168.538 111.15 168.931 111.071C169.324 110.993 169.732 111.033 170.102 111.187C170.472 111.34 170.789 111.6 171.012 111.933C171.234 112.267 171.353 112.659 171.353 113.059C171.351 113.596 171.137 114.109 170.757 114.488C170.377 114.866 169.863 115.079 169.326 115.079V115.086Z" fill="#27B1FF"/>
<path d="M170.666 207.606L200.139 316.325H204.544L175.078 207.606H170.666Z" fill="#757575" stroke="#263238" stroke-linecap="round" stroke-linejoin="round"/>
<path d="M237.047 285.505H181.18V290.056H237.047V285.505Z" fill="#999999" stroke="#263238" stroke-linecap="round" stroke-linejoin="round"/>
<path d="M266.851 183.188L230.755 316.362H226.364L262.453 183.188C263.785 178.278 260.733 174.283 255.648 174.283H224.55C219.471 174.283 214.247 178.278 212.915 183.188L176.812 316.362H172.422L208.518 183.188C210.486 175.922 218.184 170.017 225.706 170.017H256.811C264.311 170.017 268.819 175.915 266.851 183.188Z" fill="#757575" stroke="#263238" stroke-linecap="round" stroke-linejoin="round"/>
<path d="M267.421 183.225L258.465 216.284C258.033 217.676 257.181 218.899 256.025 219.787C254.869 220.674 253.467 221.181 252.011 221.238H200.908C200.291 221.286 199.673 221.18 199.108 220.928C198.544 220.676 198.052 220.287 197.676 219.795C197.301 219.304 197.054 218.727 196.959 218.116C196.864 217.506 196.924 216.881 197.132 216.299L206.096 183.24C206.531 181.851 207.384 180.631 208.54 179.747C209.695 178.863 211.096 178.358 212.549 178.3H263.646C264.133 178.266 264.622 178.327 265.086 178.482C265.549 178.636 265.978 178.88 266.347 179.2C266.716 179.52 267.018 179.91 267.236 180.347C267.454 180.784 267.584 181.26 267.619 181.747C267.652 182.248 267.585 182.75 267.421 183.225Z" fill="#27B1FF"/>
<mask id="mask2_1969_7898" style="mask-type:luminance" maskUnits="userSpaceOnUse" x="196" y="178" width="72" height="44">
<path d="M267.421 183.225L258.465 216.284C258.033 217.676 257.181 218.899 256.025 219.787C254.869 220.674 253.467 221.181 252.011 221.238H200.908C200.291 221.286 199.673 221.18 199.108 220.928C198.544 220.676 198.052 220.287 197.676 219.795C197.301 219.304 197.054 218.727 196.959 218.116C196.864 217.506 196.924 216.881 197.132 216.299L206.096 183.24C206.531 181.851 207.384 180.631 208.54 179.747C209.695 178.863 211.096 178.358 212.549 178.3H263.646C264.133 178.266 264.622 178.327 265.086 178.482C265.549 178.636 265.978 178.88 266.347 179.2C266.716 179.52 267.018 179.91 267.236 180.347C267.454 180.784 267.584 181.26 267.619 181.747C267.652 182.248 267.585 182.75 267.421 183.225Z" fill="white"/>
</mask>
<g mask="url(#mask2_1969_7898)">
<path opacity="0.2" d="M267.421 183.225L258.465 216.284C258.033 217.676 257.181 218.9 256.025 219.787C254.869 220.674 253.467 221.181 252.011 221.238H200.908C200.291 221.286 199.673 221.18 199.108 220.928C198.544 220.676 198.052 220.287 197.676 219.796C197.301 219.304 197.054 218.727 196.959 218.116C196.864 217.506 196.924 216.881 197.132 216.299L206.096 183.24C206.531 181.851 207.384 180.631 208.54 179.747C209.695 178.863 211.096 178.358 212.549 178.301H238.972C250.394 190.008 248.938 211.587 248.192 218.099C249.384 217.812 250.481 217.221 251.379 216.386C252.276 215.55 252.942 214.497 253.314 213.328L262.255 180.262C262.438 179.622 262.475 178.949 262.365 178.293H263.646C264.26 178.249 264.875 178.358 265.437 178.611C265.999 178.864 266.489 179.252 266.863 179.741C267.237 180.23 267.484 180.805 267.582 181.413C267.679 182.021 267.624 182.644 267.421 183.225Z" fill="black" fill-opacity="0.7"/>
</g>
<path d="M267.421 183.225L258.465 216.284C258.033 217.676 257.181 218.899 256.025 219.787C254.869 220.674 253.467 221.181 252.011 221.238H200.908C200.291 221.286 199.673 221.18 199.108 220.928C198.544 220.676 198.052 220.287 197.676 219.795C197.301 219.304 197.054 218.727 196.959 218.116C196.864 217.506 196.924 216.881 197.132 216.299L206.096 183.24C206.531 181.851 207.384 180.631 208.54 179.747C209.695 178.863 211.096 178.358 212.549 178.3H263.646C264.133 178.266 264.622 178.327 265.086 178.482C265.549 178.636 265.978 178.88 266.347 179.2C266.716 179.52 267.018 179.91 267.236 180.347C267.454 180.784 267.584 181.26 267.619 181.747C267.652 182.248 267.585 182.75 267.421 183.225Z" stroke="#263238" stroke-linecap="round" stroke-linejoin="round"/>
<path d="M237.377 254.685L254.089 316.325H258.494L241.789 254.685H237.377Z" fill="#757575" stroke="#263238" stroke-linecap="round" stroke-linejoin="round"/>
<path d="M241.804 247.58V253.609H176.007V247.58C176.007 246.404 176.474 245.276 177.306 244.444C178.137 243.613 179.265 243.146 180.441 243.146H237.362C237.945 243.144 238.523 243.257 239.062 243.479C239.602 243.701 240.092 244.027 240.504 244.44C240.917 244.852 241.244 245.341 241.467 245.88C241.69 246.419 241.805 246.997 241.804 247.58Z" fill="#27B1FF"/>
<mask id="mask3_1969_7898" style="mask-type:luminance" maskUnits="userSpaceOnUse" x="176" y="243" width="66" height="11">
<path d="M241.804 247.58V253.609H176.007V247.58C176.007 246.404 176.474 245.276 177.306 244.444C178.137 243.613 179.265 243.146 180.441 243.146H237.362C237.945 243.144 238.523 243.257 239.062 243.479C239.602 243.701 240.092 244.027 240.504 244.44C240.917 244.852 241.244 245.341 241.467 245.88C241.69 246.419 241.805 246.997 241.804 247.58Z" fill="white"/>
</mask>
<g mask="url(#mask3_1969_7898)">
<path opacity="0.2" d="M241.65 246.446C239.521 248.948 235.701 251.494 229.13 253.638H176.007V247.58C176.007 246.404 176.474 245.276 177.306 244.444C178.137 243.613 179.265 243.146 180.441 243.146H237.362C238.34 243.146 239.291 243.471 240.067 244.067C240.842 244.664 241.399 245.5 241.65 246.446Z" fill="black" fill-opacity="0.7"/>
</g>
<path d="M241.804 247.58V253.609H176.007V247.58C176.007 246.404 176.474 245.276 177.306 244.444C178.137 243.613 179.265 243.146 180.441 243.146H237.362C237.945 243.144 238.523 243.257 239.062 243.479C239.602 243.701 240.092 244.027 240.504 244.44C240.917 244.852 241.244 245.341 241.467 245.88C241.69 246.419 241.805 246.997 241.804 247.58Z" stroke="#263238" stroke-linecap="round" stroke-linejoin="round"/>
<path d="M244.035 251.787H174.346C173.655 251.787 173.095 252.347 173.095 253.038V256.192C173.095 256.883 173.655 257.443 174.346 257.443H244.035C244.726 257.443 245.287 256.883 245.287 256.192V253.038C245.287 252.347 244.726 251.787 244.035 251.787Z" fill="#999999" stroke="#263238" stroke-linecap="round" stroke-linejoin="round"/>
<path d="M173.87 251.97C170.717 255.182 186.002 305.657 186.002 305.657C184.334 307.12 181.875 307.793 179.549 308.101C177.41 308.366 175.248 308.398 173.102 308.196C173.102 308.196 151.194 255.058 157.224 241.872C163.253 228.687 200.666 222.701 200.666 222.701L202.261 218.75L221.615 216.028L224.813 239.728C224.813 239.728 221.637 240.036 216.859 240.65C204.047 242.275 179.666 246.116 173.87 251.97Z" fill="#263238"/>
<mask id="mask4_1969_7898" style="mask-type:luminance" maskUnits="userSpaceOnUse" x="156" y="216" width="69" height="93">
<path d="M173.87 251.97C170.717 255.182 186.002 305.657 186.002 305.657C184.334 307.12 181.875 307.793 179.549 308.101C177.41 308.366 175.248 308.398 173.102 308.196C173.102 308.196 151.194 255.058 157.224 241.872C163.253 228.687 200.666 222.701 200.666 222.701L202.261 218.75L221.615 216.028L224.813 239.728C224.813 239.728 221.637 240.036 216.859 240.65C204.047 242.275 179.666 246.116 173.87 251.97Z" fill="white"/>
</mask>
<g mask="url(#mask4_1969_7898)">
<path opacity="0.3" d="M186.002 305.686C184.334 307.149 181.875 307.822 179.549 308.13C175.297 292.324 164.475 250.148 168.573 244.989C173.629 238.623 198.654 232.835 198.654 232.835C198.756 229.587 207.53 226.66 207.53 226.66L216.852 240.628C204.039 242.275 179.658 246.116 173.863 251.97C170.717 255.211 186.002 305.686 186.002 305.686Z" fill="black"/>
</g>
<path d="M173.87 251.97C170.717 255.182 186.002 305.657 186.002 305.657C184.334 307.12 181.875 307.793 179.549 308.101C177.41 308.366 175.248 308.398 173.102 308.196C173.102 308.196 151.194 255.058 157.224 241.872C163.253 228.687 200.666 222.701 200.666 222.701L202.261 218.75L221.615 216.028L224.813 239.728C224.813 239.728 221.637 240.036 216.859 240.65C204.047 242.275 179.666 246.116 173.87 251.97Z" stroke="#263238" stroke-linecap="round" stroke-linejoin="round"/>
<path d="M163.041 204.196C159.829 203.647 182.695 183.598 182.695 183.598L193.722 191.018C193.722 191.018 174.961 204.233 172.012 204.591C169.063 204.95 163.041 204.196 163.041 204.196Z" fill="white"/>
<mask id="mask5_1969_7898" style="mask-type:luminance" maskUnits="userSpaceOnUse" x="162" y="183" width="32" height="22">
<path d="M163.041 204.196C159.829 203.647 182.695 183.598 182.695 183.598L193.722 191.018C193.722 191.018 174.961 204.233 172.012 204.591C169.063 204.95 163.041 204.196 163.041 204.196Z" fill="white"/>
</mask>
<g mask="url(#mask5_1969_7898)">
<path opacity="0.2" d="M163.041 204.196C159.829 203.647 182.695 183.598 182.695 183.598L193.722 191.018C193.722 191.018 174.961 204.233 172.012 204.591C169.063 204.95 163.041 204.196 163.041 204.196Z" fill="black" fill-opacity="0.7"/>
</g>
<path d="M163.041 204.196C159.829 203.647 182.695 183.598 182.695 183.598L193.722 191.018C193.722 191.018 174.961 204.233 172.012 204.591C169.063 204.95 163.041 204.196 163.041 204.196Z" stroke="#263238" stroke-linecap="round" stroke-linejoin="round"/>
<path d="M167.058 195.767C167.058 195.767 171.851 196.959 173.322 197.962C174.792 198.964 174.368 202.586 174.368 202.586C174.368 202.586 167.98 200.786 167.058 195.767Z" fill="white" stroke="#263238" stroke-linecap="round" stroke-linejoin="round"/>
<path d="M164 186.584L172.912 203.677H173.966L165.5 185.742L164 186.584Z" fill="#263238"/>
<path d="M172.034 198.942C172.034 198.942 166.414 194.947 165.038 194.947C163.663 194.947 159.543 199.813 159.543 202.264C159.543 204.716 168.529 206.055 170.285 203.984C171.163 202.952 169.421 200.464 169.421 200.464C170.468 201.578 171.59 202.617 172.78 203.574C173.512 203.984 174.909 203.45 174.909 203.45C174.909 203.45 173.036 200.45 172.034 198.942Z" fill="white" stroke="#263238" stroke-linecap="round" stroke-linejoin="round"/>
<path d="M169.422 204.547C168.126 202.902 166.535 201.513 164.731 200.45" stroke="#263238" stroke-linecap="round" stroke-linejoin="round"/>
<path d="M169.421 200.45C169.421 200.45 167.475 198.752 166.165 198.379" stroke="#263238" stroke-linecap="round" stroke-linejoin="round"/>
<path d="M163.297 202.608C164.657 203.306 165.97 204.093 167.226 204.965" stroke="#263238" stroke-linecap="round" stroke-linejoin="round"/>
<path d="M189.858 174.832C186.983 176.837 174.068 190.118 174.068 190.118C174.068 190.118 180.119 197.003 185.424 197.998L199.803 191.018L189.858 174.832Z" fill="#27B1FF" stroke="#263238" stroke-linecap="round" stroke-linejoin="round"/>
<path opacity="0.4" d="M189.858 174.832C186.983 176.837 174.068 190.118 174.068 190.118C174.068 190.118 180.119 197.003 185.424 197.998L199.803 191.018L189.858 174.832Z" fill="white" stroke="#263238" stroke-linecap="round" stroke-linejoin="round"/>
<path d="M182.915 300.33L189.01 316.362C189.01 316.362 190.02 320.482 171.639 319.179L161.512 318.316L182.915 300.33Z" fill="#27B1FF"/>
<mask id="mask6_1969_7898" style="mask-type:luminance" maskUnits="userSpaceOnUse" x="161" y="300" width="29" height="20">
<path d="M182.915 300.33L189.01 316.362C189.01 316.362 190.02 320.482 171.639 319.179L161.512 318.316L182.915 300.33Z" fill="white"/>
</mask>
<g mask="url(#mask6_1969_7898)">
<path opacity="0.3" d="M182.915 300.33L189.01 316.362C189.01 316.362 190.02 320.482 171.639 319.179L161.512 318.316L182.915 300.33Z" fill="black"/>
</g>
<path d="M182.915 300.33L189.01 316.362C189.01 316.362 190.02 320.482 171.639 319.179L161.512 318.316L182.915 300.33Z" stroke="#263238" stroke-linecap="round" stroke-linejoin="round"/>
<path d="M180.602 307.998C180.602 307.998 181.905 314.225 180.602 318.857C180.602 318.857 161.204 321.894 156.865 320.738C152.526 319.581 149.892 317.415 149.76 316.347C149.76 316.347 149.914 313.376 154.26 312.506C158.607 311.635 167.248 311.042 170.665 306.14C174.082 301.237 180.602 307.998 180.602 307.998Z" fill="#27B1FF" stroke="#263238" stroke-linecap="round" stroke-linejoin="round"/>
<path d="M206.198 218.106C212.396 209.267 240.889 219.906 240.889 219.906C240.889 219.906 243.604 241.185 232.255 246.863C220.906 252.541 204.544 252.234 200.125 256.836L182.139 309.945C182.139 309.945 175.678 312.645 166.282 308.394C166.282 308.394 177.705 268.288 181.056 254.049C184.371 239.956 205.832 230.392 205.832 230.392C204.726 229.085 203.888 227.574 203.366 225.943" fill="#263238"/>
<path d="M206.198 218.106C212.396 209.267 240.889 219.906 240.889 219.906C240.889 219.906 243.604 241.185 232.255 246.863C220.906 252.541 204.544 252.234 200.125 256.836L182.139 309.945C182.139 309.945 175.678 312.645 166.282 308.394C166.282 308.394 177.705 268.288 181.056 254.049C184.371 239.956 205.832 230.392 205.832 230.392C204.726 229.085 203.888 227.574 203.366 225.943" stroke="#263238" stroke-linecap="round" stroke-linejoin="round"/>
<path d="M235.042 238.448C234.133 239.254 233.178 240.007 232.181 240.702" stroke="white" stroke-linecap="round" stroke-linejoin="round"/>
<path d="M237.377 220.426C239.704 225.475 239.887 231.885 236.645 236.56" stroke="white" stroke-linecap="round" stroke-linejoin="round"/>
<path d="M230.886 221.238C230.886 221.238 230.294 225.131 232.028 226.674C233.762 228.218 239.082 229.001 239.082 229.001" stroke="white" stroke-linecap="round" stroke-linejoin="round"/>
<path d="M207.53 221.414C207.53 221.414 207.771 225.292 206.198 225.109C204.625 224.926 204.544 226.66 204.544 226.66" stroke="white" stroke-linecap="round" stroke-linejoin="round"/>
<path d="M190.239 177.817C189.999 176.84 189.872 175.838 189.859 174.832C189.859 174.832 198.639 167.427 209.944 167.471C223.408 167.515 231.64 171.751 234.933 177.635C240.157 186.942 240.889 219.906 240.889 219.906C240.889 219.906 207.105 225.116 202.261 218.728C201.42 217.616 202.064 209.764 202.064 209.764C202.064 209.764 198.281 199.842 197.483 192.145C196.372 190.613 195.339 189.025 194.388 187.388C193.185 185.374 192.143 183.267 191.271 181.088" fill="#27B1FF"/>
<path d="M190.239 177.817C189.999 176.84 189.872 175.838 189.859 174.832C189.859 174.832 198.639 167.427 209.944 167.471C223.408 167.515 231.64 171.751 234.933 177.635C240.157 186.942 240.889 219.906 240.889 219.906C240.889 219.906 207.105 225.116 202.261 218.728C201.42 217.616 202.064 209.764 202.064 209.764C202.064 209.764 198.281 199.842 197.483 192.145C196.372 190.613 195.339 189.025 194.388 187.388C193.185 185.374 192.143 183.267 191.271 181.088" stroke="#263238" stroke-linecap="round" stroke-linejoin="round"/>
<g opacity="0.6">
<path d="M190.239 177.817C189.999 176.84 189.872 175.838 189.859 174.832C189.859 174.832 198.639 167.427 209.944 167.471C223.408 167.515 231.64 171.751 234.933 177.635C240.157 186.942 240.889 219.906 240.889 219.906C240.889 219.906 207.105 225.116 202.261 218.728C201.42 217.616 202.064 209.764 202.064 209.764C202.064 209.764 198.281 199.842 197.483 192.145C196.372 190.613 195.339 189.025 194.388 187.388C193.185 185.374 192.143 183.267 191.271 181.088" fill="white"/>
<path d="M190.239 177.817C189.999 176.84 189.872 175.838 189.859 174.832C189.859 174.832 198.639 167.427 209.944 167.471C223.408 167.515 231.64 171.751 234.933 177.635C240.157 186.942 240.889 219.906 240.889 219.906C240.889 219.906 207.105 225.116 202.261 218.728C201.42 217.616 202.064 209.764 202.064 209.764C202.064 209.764 198.281 199.842 197.483 192.145C196.372 190.613 195.339 189.025 194.388 187.388C193.185 185.374 192.143 183.267 191.271 181.088" stroke="#263238" stroke-linecap="round" stroke-linejoin="round"/>
</g>
<path d="M203.176 185.742C203.176 185.742 208.334 205.755 207.566 210.16C207.383 211.68 207.636 213.221 208.298 214.601C207.624 215.31 207.19 216.214 207.059 217.183C206.928 218.153 207.105 219.139 207.566 220.001" stroke="#263238" stroke-linecap="round" stroke-linejoin="round"/>
<path d="M216.859 202.301C215.938 202.266 215.043 201.983 214.269 201.481L212.74 194.779C215.774 195.055 218.832 194.84 221.798 194.142L223.437 201.459C222.516 201.716 221.58 201.919 220.635 202.067" stroke="#263238" stroke-linecap="round" stroke-linejoin="round"/>
<path d="M199.51 188.347C199.51 188.347 195.12 169.644 206.198 167.471C217.276 165.298 219.552 170.471 218.901 173.976C218.03 178.652 208.847 190.118 208.847 190.118L203.176 185.727L199.51 188.347Z" fill="#27B1FF" stroke="#263238" stroke-linecap="round" stroke-linejoin="round"/>
<path opacity="0.4" d="M199.51 188.347C199.51 188.347 195.12 169.644 206.198 167.471C217.276 165.298 219.552 170.471 218.901 173.976C218.03 178.652 208.847 190.118 208.847 190.118L203.176 185.727L199.51 188.347Z" fill="white" stroke="#263238" stroke-linecap="round" stroke-linejoin="round"/>
<path d="M184.978 246.117C184.978 246.117 192.134 237.855 208.291 231.614C208.291 231.614 204.105 230.333 203.169 228.592" stroke="white" stroke-linecap="round" stroke-linejoin="round"/>
<path d="M176.563 271.397L170.021 295.149" stroke="white" stroke-linecap="round" stroke-linejoin="round"/>
<path d="M227.111 202.945C227.111 202.945 230.037 207.884 242.089 207.43C239.846 205.029 237.009 203.262 233.864 202.308C228.94 200.991 227.111 202.945 227.111 202.945Z" fill="#27B1FF" stroke="#263238" stroke-linecap="round" stroke-linejoin="round"/>
<path d="M180.354 204.928C180.354 204.928 183.149 200.596 185.71 199.725C188.271 198.854 195.793 198.781 196.956 198.752C198.12 198.723 218.791 203.976 228.494 207.211L227.645 191.018L240.684 192.049C240.684 192.049 240.157 211.806 238.13 217.038C236.103 222.269 233.199 220.996 228.245 218.86C208.759 210.467 197.344 204.62 196.283 204.957C195.222 205.293 180.354 204.928 180.354 204.928Z" fill="white" stroke="#263238" stroke-linecap="round" stroke-linejoin="round"/>
<path d="M224.389 181.608C224.048 182.95 223.939 184.341 224.067 185.72C224.645 190.784 227.111 202.945 227.111 202.945C227.111 202.945 239.265 204.679 242.089 207.43C242.089 207.43 244.094 191.333 240.011 183.159C235.928 174.986 231.706 174.086 231.706 174.086C229.035 173.427 226.584 175.915 225.23 179.113" fill="#27B1FF"/>
<path d="M224.389 181.608C224.048 182.95 223.939 184.341 224.067 185.72C224.645 190.784 227.111 202.945 227.111 202.945C227.111 202.945 239.265 204.679 242.089 207.43C242.089 207.43 244.094 191.333 240.011 183.159C235.928 174.986 231.706 174.086 231.706 174.086C229.035 173.427 226.584 175.915 225.23 179.113" stroke="#263238" stroke-linecap="round" stroke-linejoin="round"/>
<g opacity="0.4">
<path d="M224.389 181.608C224.048 182.95 223.939 184.341 224.067 185.72C224.645 190.784 227.111 202.945 227.111 202.945C227.111 202.945 239.265 204.679 242.089 207.43C242.089 207.43 244.094 191.333 240.011 183.159C235.928 174.986 231.706 174.086 231.706 174.086C229.035 173.427 226.584 175.915 225.23 179.113" fill="white"/>
<path d="M224.389 181.608C224.048 182.95 223.939 184.341 224.067 185.72C224.645 190.784 227.111 202.945 227.111 202.945C227.111 202.945 239.265 204.679 242.089 207.43C242.089 207.43 244.094 191.333 240.011 183.159C235.928 174.986 231.706 174.086 231.706 174.086C229.035 173.427 226.584 175.915 225.23 179.113" stroke="#263238" stroke-linecap="round" stroke-linejoin="round"/>
</g>
<path d="M188.68 187.871C190.5 189.36 192.623 190.434 194.9 191.018" stroke="#263238" stroke-linecap="round" stroke-linejoin="round"/>
<path d="M227.111 187.871C227.111 187.871 231.501 196.169 237.047 197.998" stroke="#263238" stroke-linecap="round" stroke-linejoin="round"/>
<path d="M198.661 251.787C198.661 251.787 199.473 252.402 199.803 254.619" stroke="white" stroke-linecap="round" stroke-linejoin="round"/>
<path d="M195.654 254.619C196.361 254.696 197.044 254.919 197.66 255.274C198.276 255.629 198.811 256.109 199.232 256.683" stroke="white" stroke-linecap="round" stroke-linejoin="round"/>
<path d="M171.448 246.117C171.448 246.117 173.79 247.302 173.285 250.661" stroke="white" stroke-linecap="round" stroke-linejoin="round"/>
<path d="M168.982 248.97C168.982 248.97 172.18 250.865 172.407 252.563" stroke="white" stroke-linecap="round" stroke-linejoin="round"/>
<path d="M206.044 228.497C206.044 228.497 213.164 229.492 214.759 228.497" stroke="white" stroke-linecap="round" stroke-linejoin="round"/>
<path d="M203.176 184.937C202.561 183.195 202.312 181.344 202.444 179.501C202.474 178.875 202.539 178.252 202.642 177.635L201.405 175.674L199.817 173.149L201.654 165.832C201.654 165.832 213.362 168.086 214.24 171.349C215.118 174.613 203.176 184.937 203.176 184.937Z" fill="white"/>
<mask id="mask7_1969_7898" style="mask-type:luminance" maskUnits="userSpaceOnUse" x="199" y="165" width="16" height="20">
<path d="M203.176 184.937C202.561 183.195 202.312 181.344 202.444 179.501C202.474 178.875 202.539 178.252 202.642 177.635L201.405 175.674L199.817 173.149L201.654 165.832C201.654 165.832 213.362 168.086 214.24 171.349C215.118 174.613 203.176 184.937 203.176 184.937Z" fill="white"/>
</mask>
<g mask="url(#mask7_1969_7898)">
<path opacity="0.2" d="M202.43 179.53C202.459 178.905 202.525 178.282 202.627 177.664L201.391 175.703C203.619 175.358 205.649 174.22 207.105 172.498C207.167 174.013 206.748 175.509 205.908 176.772C205.068 178.035 203.851 179 202.43 179.53Z" fill="black" fill-opacity="0.7"/>
</g>
<path d="M203.176 184.937C202.561 183.195 202.312 181.344 202.444 179.501C202.474 178.875 202.539 178.252 202.642 177.635L201.405 175.674L199.817 173.149L201.654 165.832C201.654 165.832 213.362 168.086 214.24 171.349C215.118 174.613 203.176 184.937 203.176 184.937Z" stroke="#263238" stroke-linecap="round" stroke-linejoin="round"/>
<path d="M210.522 166.446C214.181 156.934 211.752 140.741 194.19 143.843C183.888 145.673 182.644 158.127 186.083 163.659C189.522 169.19 185.871 169.366 191.044 173.464C193.144 175.125 194.834 177.942 197.337 178.125C200.315 178.33 204.127 175.512 206.974 172.468" fill="white"/>
<path d="M210.522 166.446C214.181 156.934 211.752 140.741 194.19 143.843C183.888 145.673 182.644 158.127 186.083 163.659C189.522 169.19 185.871 169.366 191.044 173.464C193.144 175.125 194.834 177.942 197.337 178.125C200.315 178.33 204.127 175.512 206.974 172.468" stroke="#263238" stroke-linecap="round" stroke-linejoin="round"/>
<path d="M193.217 163.659C193.217 163.659 195.807 161.302 198.888 162.276" stroke="#263238" stroke-linecap="round" stroke-linejoin="round"/>
<path d="M188.366 163.658C188.019 163.047 187.535 162.525 186.952 162.131C186.37 161.738 185.704 161.484 185.007 161.39" stroke="#263238" stroke-linecap="round" stroke-linejoin="round"/>
<path d="M190.078 167.09C190.078 167.09 189.705 168.985 189.215 170.903C188.724 172.82 192.288 171.773 192.141 171.481" fill="white"/>
<path d="M190.078 167.09C190.078 167.09 189.705 168.985 189.215 170.903C188.724 172.82 192.288 171.773 192.141 171.481" stroke="#263238" stroke-linecap="round" stroke-linejoin="round"/>
<path d="M193.978 173.874C195.489 173.441 196.833 172.561 197.834 171.349" stroke="#263238" stroke-linecap="round" stroke-linejoin="round"/>
<path d="M196.825 166.066C196.877 166.158 196.91 166.26 196.923 166.365C196.935 166.47 196.927 166.577 196.899 166.679C196.87 166.781 196.822 166.876 196.756 166.959C196.691 167.042 196.61 167.112 196.517 167.164C196.33 167.266 196.109 167.291 195.904 167.232C195.698 167.173 195.524 167.035 195.42 166.849C195.353 166.736 195.317 166.607 195.317 166.476C195.265 166.384 195.232 166.282 195.219 166.177C195.206 166.072 195.215 165.965 195.243 165.863C195.272 165.761 195.32 165.666 195.386 165.583C195.451 165.5 195.532 165.43 195.625 165.378C195.812 165.276 196.033 165.251 196.238 165.31C196.443 165.369 196.617 165.507 196.722 165.693C196.789 165.806 196.825 165.935 196.825 166.066Z" fill="#263238"/>
<path d="M189.01 165.905C189.156 166.432 189.054 166.929 188.776 167.003C188.498 167.076 188.154 166.71 188.044 166.176C187.934 165.642 188.007 165.151 188.285 165.078C188.563 165.005 188.849 165.371 189.01 165.905Z" fill="#263238"/>
<path d="M199.693 153.861C199.693 153.861 196.971 160.98 190.239 160.819C190.239 160.819 192.573 159.041 193.217 157.344C193.217 157.344 188.036 162.466 182.863 159.861C177.69 157.256 180.229 145.139 188.168 140.353C196.107 135.568 204.229 136.848 206.981 141.422C206.981 141.422 212.542 140.909 214.993 149.083C217.188 156.4 213.676 167.493 210.244 167.617C204.925 167.815 203.856 162.041 203.856 162.041C201.66 159.808 200.206 156.951 199.693 153.861Z" fill="#263238" stroke="#263238" stroke-linecap="round" stroke-linejoin="round"/>
<path d="M205.525 166.483C205.525 166.483 205.356 159.766 209.183 160.578C213.01 161.39 210.237 169.154 207.361 169.073" fill="white"/>
<path d="M205.525 166.483C205.525 166.483 205.356 159.766 209.183 160.578C213.01 161.39 210.237 169.154 207.361 169.073" stroke="#263238" stroke-linecap="round" stroke-linejoin="round"/>
<path d="M193.707 204.196H134.709C134.05 204.196 133.516 204.73 133.516 205.389V207.445C133.516 208.104 134.05 208.638 134.709 208.638H193.707C194.366 208.638 194.9 208.104 194.9 207.445V205.389C194.9 204.73 194.366 204.196 193.707 204.196Z" fill="#27B1FF" stroke="#263238" stroke-linecap="round" stroke-linejoin="round"/>
<path d="M47.6335 293.576H22.7476L25.3525 316.325H45.0285L47.6335 293.576Z" fill="#263238" stroke="#263238" stroke-linecap="round" stroke-linejoin="round"/>
<path d="M50.5822 277.741C50.5822 277.741 39.7161 278.597 39.2625 286.617C39.2625 286.617 50.2676 291.681 50.5822 277.741Z" fill="#27B1FF" stroke="#263238" stroke-linecap="round" stroke-linejoin="round"/>
<path d="M29.0842 279.732C29.0842 279.732 23.0109 271.522 13.1985 275.729C13.1985 275.729 19.1913 285.629 29.0842 279.732Z" fill="#27B1FF" stroke="#263238" stroke-linecap="round" stroke-linejoin="round"/>
<path d="M14.0328 253.814C14.0328 253.814 12.2839 269.604 26.6623 265.258C26.6623 265.258 22.0964 253.646 14.0328 253.814Z" fill="#27B1FF" stroke="#263238" stroke-linecap="round" stroke-linejoin="round"/>
<path d="M31.6891 245.019C31.6891 245.019 20.3181 251.15 28.6817 260.458C28.6744 260.458 36.6428 253.807 31.6891 245.019Z" fill="#27B1FF" stroke="#263238" stroke-linecap="round" stroke-linejoin="round"/>
<path d="M45.6723 259.134C45.6723 259.134 33.3062 257.882 33.3062 269.326C33.3062 269.326 45.6723 269.817 45.6723 259.134Z" fill="#27B1FF" stroke="#263238" stroke-linecap="round" stroke-linejoin="round"/>
<path d="M34.0159 302.949C34.0159 302.949 39.6502 291.125 34.2428 279.08C28.8353 267.036 26.9987 256.887 29.8524 249.738" stroke="#263238" stroke-linecap="round" stroke-linejoin="round"/>
<path d="M41.6114 262.214C41.6114 262.214 34.199 265.141 31.6892 272.787" stroke="#263238" stroke-linecap="round" stroke-linejoin="round"/>
<path d="M17.9399 260.128C17.9399 260.128 22.2205 265.982 29.4719 265.331" stroke="#263238" stroke-linecap="round" stroke-linejoin="round"/>
<path d="M17.9399 277.412C17.9399 277.412 29.7939 280.822 34.5062 279.71" stroke="#263238" stroke-linecap="round" stroke-linejoin="round"/>
<path d="M47.0553 281.349C47.0553 281.349 41.7503 287.202 36.4233 287.078" stroke="#263238" stroke-linecap="round" stroke-linejoin="round"/>
<path d="M48.7017 293.071H21.6792V296.283H48.7017V293.071Z" fill="#263238" stroke="#263238" stroke-linecap="round" stroke-linejoin="round"/>
<path d="M244.796 272.458C238.479 276.585 233.178 282.089 229.291 288.556C222.844 299.313 217.737 314.445 225.669 316.362L233.213 316.077L247.73 311.093L246.208 308.167C246.208 308.167 233.498 314.898 231.325 314.898C229.152 314.898 226.32 315.44 225.127 314.569C223.935 313.698 229.306 294.139 240.801 287.62C252.296 281.1 244.796 272.458 244.796 272.458Z" fill="#27B1FF"/>
<mask id="mask8_1969_7898" style="mask-type:luminance" maskUnits="userSpaceOnUse" x="221" y="272" width="27" height="45">
<path d="M244.796 272.458C238.479 276.585 233.178 282.089 229.291 288.556C222.844 299.313 217.737 314.445 225.669 316.362L233.213 316.077L247.73 311.093L246.208 308.167C246.208 308.167 233.498 314.898 231.325 314.898C229.152 314.898 226.32 315.44 225.127 314.569C223.935 313.698 229.306 294.139 240.801 287.62C252.296 281.1 244.796 272.458 244.796 272.458Z" fill="white"/>
</mask>
<g mask="url(#mask8_1969_7898)">
<path opacity="0.5" d="M244.796 272.458C238.479 276.585 233.178 282.089 229.291 288.556C222.844 299.313 217.737 314.445 225.669 316.362L233.213 316.077L247.73 311.093L246.208 308.167C246.208 308.167 233.498 314.898 231.325 314.898C229.152 314.898 226.32 315.44 225.127 314.569C223.935 313.698 229.306 294.139 240.801 287.62C252.296 281.1 244.796 272.458 244.796 272.458Z" fill="black" fill-opacity="0.7"/>
</g>
<path d="M244.796 272.458C238.479 276.585 233.178 282.089 229.291 288.556C222.844 299.313 217.737 314.445 225.669 316.362L233.213 316.077L247.73 311.093L246.208 308.167C246.208 308.167 233.498 314.898 231.325 314.898C229.152 314.898 226.32 315.44 225.127 314.569C223.935 313.698 229.306 294.139 240.801 287.62C252.296 281.1 244.796 272.458 244.796 272.458Z" stroke="#263238" stroke-linecap="round" stroke-linejoin="round"/>
<path d="M253.057 265.405C253.057 265.405 253.057 262.251 257.836 261.819C262.614 261.387 263.294 265.99 263.294 265.99H261.648C261.648 265.99 261.684 263.231 258.172 263.019C254.66 262.807 254.792 265.99 254.792 265.99L253.057 265.405Z" fill="#27B1FF" stroke="#263238" stroke-linecap="round" stroke-linejoin="round"/>
<path d="M245.989 316.362C235.884 316.362 237.801 271.046 238.964 268.8C240.128 266.553 269.448 265.434 272.338 266.385C275.228 267.336 286.819 312.484 280.424 316.091L245.989 316.362Z" fill="#27B1FF"/>
<mask id="mask9_1969_7898" style="mask-type:luminance" maskUnits="userSpaceOnUse" x="238" y="266" width="45" height="51">
<path d="M245.989 316.362C235.884 316.362 237.801 271.046 238.964 268.8C240.128 266.553 269.448 265.434 272.338 266.385C275.228 267.336 286.819 312.484 280.424 316.091L245.989 316.362Z" fill="white"/>
</mask>
<g mask="url(#mask9_1969_7898)">
<path opacity="0.2" d="M245.989 316.362C235.884 316.362 237.801 271.046 238.964 268.8C240.128 266.553 269.448 265.434 272.338 266.385C275.228 267.336 286.819 312.484 280.424 316.091L245.989 316.362Z" fill="black" fill-opacity="0.7"/>
</g>
<path d="M245.989 316.362C235.884 316.362 237.801 271.046 238.964 268.8C240.128 266.553 269.448 265.434 272.338 266.385C275.228 267.336 286.819 312.484 280.424 316.091L245.989 316.362Z" stroke="#263238" stroke-linecap="round" stroke-linejoin="round"/>
<path d="M238.964 268.748C242.623 269.531 244.73 284.363 249.655 288.139C254.579 291.915 277.797 291.103 280.424 288.139C283.051 285.176 277.914 268.536 274.182 265.99C270.45 263.443 267.794 265.917 257.294 264.753C241.73 263.019 238.964 268.748 238.964 268.748Z" fill="#27B1FF" stroke="#263238" stroke-linecap="round" stroke-linejoin="round"/>
<path d="M265.614 277.273L269.916 280.785C269.975 280.835 270.023 280.896 270.058 280.965C270.093 281.033 270.115 281.108 270.121 281.185C270.127 281.262 270.118 281.339 270.094 281.413C270.07 281.486 270.032 281.554 269.982 281.612L266.631 285.227C266.524 285.333 266.379 285.393 266.228 285.393C266.077 285.393 265.933 285.333 265.826 285.227L261.545 281.239C261.441 281.131 261.382 280.987 261.382 280.837C261.382 280.686 261.441 280.542 261.545 280.434L264.86 277.354C264.954 277.25 265.083 277.185 265.221 277.17C265.36 277.155 265.5 277.192 265.614 277.273Z" fill="#27B1FF"/>
<mask id="mask10_1969_7898" style="mask-type:luminance" maskUnits="userSpaceOnUse" x="261" y="277" width="10" height="9">
<path d="M265.614 277.273L269.916 280.785C269.975 280.835 270.023 280.896 270.058 280.965C270.093 281.033 270.115 281.108 270.121 281.185C270.127 281.262 270.118 281.339 270.094 281.413C270.07 281.486 270.032 281.554 269.982 281.612L266.631 285.227C266.524 285.333 266.379 285.393 266.228 285.393C266.077 285.393 265.933 285.333 265.826 285.227L261.545 281.239C261.441 281.131 261.382 280.987 261.382 280.837C261.382 280.686 261.441 280.542 261.545 280.434L264.86 277.354C264.954 277.25 265.083 277.185 265.221 277.17C265.36 277.155 265.5 277.192 265.614 277.273Z" fill="white"/>
</mask>
<g mask="url(#mask10_1969_7898)">
<path opacity="0.2" d="M265.614 277.273L269.916 280.785C269.975 280.835 270.023 280.896 270.058 280.965C270.093 281.033 270.115 281.108 270.121 281.185C270.127 281.262 270.118 281.339 270.094 281.413C270.07 281.486 270.032 281.554 269.982 281.612L266.631 285.227C266.524 285.333 266.379 285.393 266.228 285.393C266.077 285.393 265.933 285.333 265.826 285.227L261.545 281.239C261.441 281.131 261.382 280.987 261.382 280.837C261.382 280.686 261.441 280.542 261.545 280.434L264.86 277.354C264.954 277.25 265.083 277.185 265.221 277.17C265.36 277.155 265.5 277.192 265.614 277.273Z" fill="black" fill-opacity="0.7"/>
</g>
<path d="M265.614 277.273L269.916 280.785C269.975 280.835 270.023 280.896 270.058 280.965C270.093 281.033 270.115 281.108 270.121 281.185C270.127 281.262 270.118 281.339 270.094 281.413C270.07 281.486 270.032 281.554 269.982 281.612L266.631 285.227C266.524 285.333 266.379 285.393 266.228 285.393C266.077 285.393 265.933 285.333 265.826 285.227L261.545 281.239C261.441 281.131 261.382 280.987 261.382 280.837C261.382 280.686 261.441 280.542 261.545 280.434L264.86 277.354C264.954 277.25 265.083 277.185 265.221 277.17C265.36 277.155 265.5 277.192 265.614 277.273Z" stroke="#263238" stroke-linecap="round" stroke-linejoin="round"/>
<path d="M251.426 295.72C251.426 295.72 270.875 297.322 280.424 294.849C281.701 295.855 282.651 297.217 283.153 298.764C284.024 301.369 285.839 310.281 280.424 312.564C275.009 314.847 255.545 314.408 252.948 311.832C250.35 309.257 251.426 295.72 251.426 295.72Z" fill="#27B1FF"/>
<mask id="mask11_1969_7898" style="mask-type:luminance" maskUnits="userSpaceOnUse" x="251" y="294" width="34" height="21">
<path d="M251.426 295.72C251.426 295.72 270.875 297.322 280.424 294.849C281.701 295.855 282.651 297.217 283.153 298.764C284.024 301.369 285.839 310.281 280.424 312.564C275.009 314.847 255.545 314.408 252.948 311.832C250.35 309.257 251.426 295.72 251.426 295.72Z" fill="white"/>
</mask>
<g mask="url(#mask11_1969_7898)">
<path opacity="0.4" d="M251.426 295.72C251.426 295.72 270.875 297.322 280.424 294.849C281.701 295.855 282.651 297.217 283.153 298.764C284.024 301.369 285.839 310.281 280.424 312.564C275.009 314.847 255.545 314.408 252.948 311.832C250.35 309.257 251.426 295.72 251.426 295.72Z" fill="black" fill-opacity="0.7"/>
</g>
<path d="M251.426 295.72C251.426 295.72 270.875 297.322 280.424 294.849C281.701 295.855 282.651 297.217 283.153 298.764C284.024 301.369 285.839 310.281 280.424 312.564C275.009 314.847 255.545 314.408 252.948 311.832C250.35 309.257 251.426 295.72 251.426 295.72Z" stroke="#263238" stroke-linecap="round" stroke-linejoin="round"/>
<path d="M251.426 295.72C251.426 295.72 253.709 301.874 254.901 302.818C256.094 303.761 281.36 303.762 284.17 301.479C286.98 299.196 283.131 295.069 280.431 294.849C280.424 294.849 262.723 296.913 251.426 295.72Z" fill="#27B1FF" stroke="#263238" stroke-linecap="round" stroke-linejoin="round"/>
<path d="M243.274 294.41C243.274 294.41 243.925 307.34 245.228 310.274C244.261 310.779 243.187 311.042 242.096 311.042C241.005 311.042 239.931 310.779 238.964 310.274C235.672 308.532 236.213 297.396 236.864 297.425C237.515 297.454 243.274 294.41 243.274 294.41Z" fill="#27B1FF"/>
<mask id="mask12_1969_7898" style="mask-type:luminance" maskUnits="userSpaceOnUse" x="236" y="294" width="10" height="18">
<path d="M243.274 294.41C243.274 294.41 243.925 307.34 245.228 310.274C244.261 310.779 243.187 311.042 242.096 311.042C241.005 311.042 239.931 310.779 238.964 310.274C235.672 308.532 236.213 297.396 236.864 297.425C237.515 297.454 243.274 294.41 243.274 294.41Z" fill="white"/>
</mask>
<g mask="url(#mask12_1969_7898)">
<path opacity="0.4" d="M243.274 294.41C243.274 294.41 243.925 307.34 245.228 310.274C244.261 310.779 243.187 311.042 242.096 311.042C241.005 311.042 239.931 310.779 238.964 310.274C235.672 308.532 236.213 297.396 236.864 297.425C237.515 297.454 243.274 294.41 243.274 294.41Z" fill="black" fill-opacity="0.7"/>
</g>
<path d="M243.274 294.41C243.274 294.41 243.925 307.34 245.228 310.274C244.261 310.779 243.187 311.042 242.096 311.042C241.005 311.042 239.931 310.779 238.964 310.274C235.672 308.532 236.213 297.396 236.864 297.425C237.515 297.454 243.274 294.41 243.274 294.41Z" stroke="#263238" stroke-linecap="round" stroke-linejoin="round"/>
<path d="M243.274 294.41L238.379 295.391C238.379 295.391 233.711 298.976 235.774 300.169C237.837 301.362 243.157 298.435 243.274 294.41Z" fill="#27B1FF" stroke="#263238" stroke-linecap="round" stroke-linejoin="round"/>
</svg>
