<svg width="273" height="320" viewBox="0 0 273 320" fill="none" xmlns="http://www.w3.org/2000/svg">
<g clip-path="url(#clip0_1969_7899)">
<path d="M272.496 213.102C272.496 213.602 272.482 214.103 272.467 214.588C272.496 213.365 272.482 212.156 272.437 210.947C272.482 211.66 272.496 212.379 272.496 213.102Z" fill="#475993"/>
<path d="M272.363 234.659C272.452 235.823 272.496 236.988 272.496 238.167C272.496 239.346 272.452 240.51 272.363 241.675V234.659Z" fill="#475993"/>
<path d="M272.437 210.952C272.481 212.161 272.496 213.37 272.467 214.594C272.467 214.683 272.467 214.772 272.467 214.861C272.437 215.451 272.407 216.025 272.363 216.615V210.045H272.392V210.06C272.422 210.348 272.437 210.655 272.437 210.952Z" fill="#475993"/>
<path d="M272.363 209.594C272.377 209.743 272.377 209.887 272.392 210.035H272.363V209.594Z" fill="#475993"/>
<path d="M210.595 281.806C214.44 280.305 220.335 277.753 227.009 274.116C228.188 273.467 229.382 272.804 230.606 272.1C236.011 268.994 240.996 265.615 245.489 262.008C245.623 261.889 245.742 261.785 245.871 261.701C253.679 255.438 261.076 247.778 266.368 238.583C270.138 232.043 271.907 224.79 272.362 217.422V234.664V241.679C272.125 245.068 271.535 248.413 270.653 251.683C270.653 251.683 270.653 251.697 270.638 251.712C268.077 259.213 264.098 267.596 257.895 275.053C257.44 275.613 256.954 276.158 256.454 276.703C256.394 276.792 256.32 276.881 256.231 276.955C245.385 288.92 227.792 298.745 216.639 304.23C216.625 304.245 216.595 304.245 216.565 304.26C214.549 305.156 212.483 306.013 210.377 306.836V281.905C210.451 281.865 210.526 281.836 210.595 281.806Z" fill="#1B97DD"/>
<path d="M272.362 217.417C271.907 224.785 270.138 232.033 266.368 238.578C261.076 247.774 253.679 255.433 245.871 261.696C258.688 251.276 267.487 238.989 270.906 225.642C271.674 222.679 272.159 219.677 272.362 216.61V217.417Z" fill="#475993"/>
<path d="M257.896 275.043C264.099 267.587 268.077 259.204 270.638 251.703C268.34 259.972 263.994 267.825 257.896 275.043Z" fill="#475993"/>
<path d="M256.449 276.698C256.949 276.153 257.435 275.608 257.891 275.048C257.44 275.603 256.954 276.153 256.449 276.698Z" fill="#475993"/>
<path d="M257.455 207.93V214.148C257.455 213.072 257.147 212.027 256.558 211.051C257.142 210.065 257.455 209.02 257.455 207.93Z" fill="#898684"/>
<path d="M257.455 207.93C257.455 206.855 257.147 205.824 256.558 204.848C256.558 204.833 256.558 204.833 256.558 204.833C257.133 203.862 257.44 202.846 257.455 201.781V207.93Z" fill="#9B9894"/>
<path d="M257.455 196.762V201.727C257.455 200.874 257.261 200.047 256.88 199.249C257.261 198.457 257.455 197.614 257.455 196.762Z" fill="#B7B3AC"/>
<path d="M256.553 204.838C256.023 203.956 255.27 203.129 254.343 202.361C254.918 201.89 255.418 201.39 255.829 200.889L257.449 201.786C257.44 202.846 257.127 203.862 256.553 204.838Z" fill="#B7B3AC"/>
<path d="M257.455 201.786L255.834 200.889C256.275 200.359 256.617 199.814 256.88 199.254C257.261 200.052 257.455 200.875 257.455 201.732C257.455 201.742 257.455 201.771 257.455 201.786Z" fill="#B7B3AC"/>
<path d="M242.864 190.133V186.714C244.999 187.036 246.976 187.527 248.759 188.156C251.237 189.628 253.62 191.163 255.919 192.739C256.905 193.992 257.45 195.33 257.45 196.762C257.45 197.614 257.256 198.456 256.875 199.254C256.607 199.814 256.27 200.359 255.829 200.889L242.864 193.73V190.133Z" fill="#CBC6BD"/>
<path d="M253.536 207.945C254.849 207.003 255.879 205.958 256.558 204.848C257.147 205.819 257.455 206.85 257.455 207.93C257.455 209.02 257.147 210.065 256.558 211.051C255.874 209.922 254.844 208.876 253.536 207.945Z" fill="#9B9894"/>
<path d="M251.767 215.208C253.947 214.058 255.612 212.631 256.558 211.051C257.147 212.022 257.455 213.067 257.455 214.147C257.455 214.588 257.41 215 257.306 215.416C257.098 216.327 256.657 217.199 256.023 218.022C254.655 217.066 253.223 216.124 251.767 215.208Z" fill="#898684"/>
<path d="M256.553 204.853C255.874 205.958 254.844 207.003 253.531 207.949C252.143 206.978 250.434 206.121 248.507 205.457C250.835 204.645 252.837 203.599 254.343 202.361C255.27 203.129 256.023 203.951 256.553 204.838C256.553 204.838 256.553 204.838 256.553 204.853Z" fill="#B7B3AC"/>
<path d="M253.536 207.944C254.848 208.871 255.879 209.921 256.558 211.056C255.616 212.631 253.952 214.063 251.767 215.213C249.676 213.885 247.496 212.592 245.242 211.353C248.551 210.61 251.41 209.421 253.536 207.944Z" fill="#9B9894"/>
<path d="M255.918 192.739C253.62 191.164 251.232 189.633 248.759 188.156C251.925 189.276 254.432 190.881 255.918 192.739Z" fill="#CBC6BD"/>
<path d="M245.797 197.545C246.401 198.59 245.118 199.665 244.028 200.344C243.186 199.561 242.348 198.784 241.496 198.001C241.818 197.619 242.086 197.218 242.294 196.807C242.413 196.584 242.517 196.366 242.586 196.128C244.072 196.336 245.37 196.807 245.797 197.545Z" fill="#CBC6BD"/>
<path d="M240.669 198.883C241.437 199.576 242.17 200.27 242.908 200.959C241.11 201.841 239.311 202.361 237.587 202.475C236.616 202.549 235.511 202.475 234.609 202.237C237.136 201.42 239.212 200.255 240.669 198.883Z" fill="#CBC6BD"/>
<path d="M242.878 162.18L242.893 162.195C242.893 162.24 242.878 162.269 242.878 162.314V162.18Z" fill="#FFCE00"/>
<path d="M242.878 162.18V162.314C242.849 162.492 242.819 162.651 242.774 162.829C242.819 162.591 242.849 162.373 242.864 162.165L242.878 162.18Z" fill="#D6AD00"/>
<path d="M242.878 162.105V162.18L242.864 162.165C242.878 162.15 242.878 162.12 242.878 162.105Z" fill="#D6AD00"/>
<path d="M242.348 192.016C242.655 191.412 242.804 190.777 242.863 190.128V193.725L241.684 193.076C241.952 192.739 242.175 192.388 242.348 192.016Z" fill="#CBC6BD"/>
<path d="M242.864 185.461V186.714C242.789 186.7 242.7 186.685 242.611 186.685C242.75 186.283 242.819 185.872 242.864 185.461Z" fill="#C9A200"/>
<path d="M242.864 171.479V175.205C242.804 174.571 242.656 173.952 242.363 173.362L242.348 173.303V173.288C242.438 173.139 242.497 172.996 242.556 172.847C242.616 172.669 242.675 172.51 242.72 172.347C242.794 172.039 242.849 171.742 242.864 171.479Z" fill="#D6AD00"/>
<path d="M242.864 166.896V170.553C242.819 169.904 242.656 169.27 242.348 168.665V168.636C242.512 168.328 242.631 168.016 242.7 167.724C242.794 167.427 242.834 167.144 242.864 166.896Z" fill="#BF9A00"/>
<path d="M242.864 165.851C242.804 165.217 242.656 164.583 242.348 163.979C242.452 163.785 242.542 163.597 242.601 163.404C242.675 163.24 242.72 163.067 242.765 162.904C242.765 162.874 242.779 162.844 242.779 162.829C242.824 162.651 242.854 162.492 242.883 162.314V163.686C242.883 163.701 242.869 163.731 242.869 163.761V165.851H242.864Z" fill="#D6AD00"/>
<path d="M242.893 162.195C260.294 175.294 271.109 191.709 272.363 209.594V210.035L257.45 201.786C257.45 201.771 257.45 201.741 257.45 201.727V196.762C257.45 195.335 256.905 193.993 255.919 192.739C254.432 190.881 251.925 189.276 248.76 188.156C246.976 187.522 245.004 187.037 242.864 186.715V185.461V180.789V176.102V176.057V175.205V171.48C242.849 171.747 242.789 172.039 242.715 172.347C242.789 172.039 242.834 171.742 242.864 171.435V171.405V170.553V166.897C242.834 167.149 242.789 167.427 242.7 167.724C242.775 167.417 242.834 167.105 242.864 166.783V166.768V165.856V163.765C242.864 163.736 242.879 163.706 242.879 163.691V162.319C242.879 162.269 242.893 162.239 242.893 162.195Z" fill="#066FAA"/>
<path d="M238.712 186.343C239.39 185.917 240.01 185.476 240.54 185C241.338 184.277 241.952 183.514 242.353 182.672C242.353 182.657 242.353 182.657 242.353 182.657C242.66 182.053 242.809 181.433 242.868 180.784V185.456C242.824 185.867 242.75 186.284 242.616 186.68C241.362 186.507 240.049 186.388 238.712 186.343Z" fill="#BF9A00"/>
<path d="M242.601 163.404C242.661 163.24 242.72 163.067 242.765 162.903C242.72 163.067 242.675 163.24 242.601 163.404Z" fill="#5C80CB"/>
<path d="M242.348 168.666C242.656 169.27 242.819 169.904 242.864 170.553V171.405L242.348 168.666Z" fill="#BF9A00"/>
<path d="M242.556 172.847C242.497 172.996 242.438 173.139 242.348 173.288V173.258C242.423 173.13 242.497 172.981 242.556 172.847Z" fill="#D6AD00"/>
<path d="M242.363 173.362C242.661 173.952 242.804 174.571 242.864 175.205V176.058L242.363 173.362Z" fill="#D6AD00"/>
<path d="M242.348 163.979C242.656 164.583 242.804 165.217 242.864 165.851V166.763L242.348 163.979Z" fill="#D6AD00"/>
<path d="M242.363 173.362C242.363 173.347 242.363 173.332 242.348 173.318C242.348 173.303 242.348 173.303 242.348 173.303L242.363 173.362Z" fill="#5C80CB"/>
<path d="M242.289 164.097V164.112C242.2 164.276 242.11 164.434 242.006 164.583C242.115 164.419 242.205 164.256 242.289 164.097Z" fill="#5C80CB"/>
<path d="M241.541 165.247C241.63 165.128 241.719 165.009 241.793 164.895C241.729 165.009 241.645 165.128 241.541 165.247Z" fill="#D6AD00"/>
<path d="M241.07 165.777C241.248 165.598 241.392 165.425 241.541 165.247C241.392 165.42 241.243 165.598 241.07 165.777Z" fill="#D6AD00"/>
<path d="M237.81 155.095C240.976 156.79 242.923 159.089 242.923 161.635C242.923 161.828 242.908 162.002 242.893 162.195L242.878 162.18V162.106C242.878 162.121 242.878 162.15 242.864 162.165C238.206 158.643 233.093 155.388 227.569 152.395C231.562 152.692 235.13 153.663 237.81 155.095Z" fill="#FFCE00"/>
<path d="M242.809 195.345C241.779 195.226 240.703 195.212 239.703 195.286C239.554 195.301 239.41 195.316 239.277 195.33C240.277 194.652 241.09 193.889 241.694 193.076L242.874 193.725V195.068C242.849 195.157 242.834 195.261 242.809 195.345Z" fill="#CBC6BD"/>
<path d="M239.475 191.179C239.415 191.06 239.168 190.97 238.855 190.926C239.192 190.718 239.505 190.5 239.797 190.277C240.372 190.396 240.753 190.614 240.917 190.896C241.035 191.104 240.812 191.322 240.416 191.397C240.02 191.471 239.594 191.367 239.475 191.179Z" fill="#9B9894"/>
<path d="M239.816 196.054C240.713 195.979 241.689 196.009 242.586 196.128C242.512 196.366 242.408 196.584 242.294 196.807C242.086 197.218 241.823 197.619 241.496 198.001C240.802 197.367 240.094 196.732 239.375 196.098C239.519 196.083 239.668 196.054 239.816 196.054Z" fill="#CBC6BD"/>
<path d="M235.323 192.65C236.442 192.239 237.458 191.768 238.36 191.233L241.689 193.076C241.085 193.889 240.277 194.651 239.271 195.33C239.034 195.345 238.801 195.375 238.578 195.405C237.503 194.493 236.428 193.566 235.323 192.65Z" fill="#CBC6BD"/>
<path d="M238.712 186.343C238.152 186.695 237.518 187.037 236.854 187.344C235.838 187.815 234.703 188.211 233.495 188.553L230.562 186.933C232.697 186.536 234.996 186.313 237.384 186.313C237.825 186.313 238.271 186.328 238.712 186.343Z" fill="#CBC6BD"/>
<path d="M238.355 191.238C238.533 191.134 238.692 191.03 238.855 190.931C239.163 190.976 239.415 191.065 239.475 191.184C239.594 191.377 240.02 191.481 240.416 191.407C240.812 191.332 241.035 191.109 240.916 190.906C240.753 190.624 240.371 190.406 239.797 190.287C240.049 190.094 240.297 189.891 240.52 189.682C241.333 188.959 241.947 188.181 242.348 187.354C242.467 187.131 242.556 186.913 242.616 186.69C242.705 186.69 242.794 186.705 242.869 186.72V190.138C242.809 190.787 242.66 191.421 242.353 192.026C242.175 192.393 241.957 192.749 241.689 193.086L238.355 191.238Z" fill="#CBC6BD"/>
<path d="M237.696 190.866L236.398 190.143C236.854 190.128 237.339 190.098 237.84 190.098C238.622 190.084 239.281 190.143 239.802 190.277C239.504 190.5 239.197 190.718 238.86 190.926C238.538 190.881 238.152 190.851 237.785 190.866C237.751 190.866 237.726 190.866 237.696 190.866Z" fill="#9B9894"/>
<path d="M233.495 188.552C234.704 188.216 235.838 187.814 236.854 187.344C237.518 187.036 238.152 186.695 238.712 186.343C240.054 186.387 241.362 186.506 242.616 186.68C242.556 186.903 242.467 187.121 242.348 187.344C241.952 188.171 241.333 188.949 240.52 189.672C240.297 189.88 240.049 190.083 239.797 190.277C239.281 190.143 238.618 190.083 237.835 190.098C237.334 190.098 236.849 190.128 236.393 190.143L233.495 188.552Z" fill="#CBC6BD"/>
<path d="M238.855 190.926C238.692 191.03 238.533 191.134 238.355 191.233L237.691 190.866C237.721 190.866 237.751 190.866 237.78 190.866C238.152 190.851 238.533 190.881 238.855 190.926Z" fill="#CBC6BD"/>
<path d="M241.496 198.001C241.258 198.308 240.981 198.605 240.669 198.883C239.727 198.016 238.751 197.144 237.78 196.276C237.736 196.276 237.706 196.291 237.661 196.291C238.236 195.994 238.781 195.672 239.267 195.335C239.4 195.32 239.549 195.305 239.693 195.291C240.694 195.216 241.769 195.231 242.799 195.35C242.755 195.618 242.68 195.88 242.576 196.133C241.679 196.014 240.703 195.984 239.807 196.058C239.658 196.058 239.514 196.088 239.366 196.103C240.094 196.732 240.803 197.366 241.496 198.001Z" fill="#9B9894"/>
<path d="M245.237 211.348C242.646 209.907 239.931 208.519 237.131 207.207C237.221 207.207 237.295 207.207 237.384 207.207C241.511 207.207 245.326 206.557 248.507 205.453C250.439 206.117 252.148 206.969 253.531 207.945C251.41 209.421 248.551 210.61 245.237 211.348Z" fill="#B7B3AC"/>
<path d="M221.252 207.944C224.908 210.506 230.77 212.175 237.384 212.175C240.183 212.175 242.819 211.883 245.237 211.348C247.491 212.587 249.671 213.885 251.762 215.208C248.135 217.17 243.037 218.374 237.379 218.374C228.391 218.374 220.771 215.292 218.24 211.051C218.909 209.921 219.939 208.876 221.252 207.944Z" fill="#9B9894"/>
<path d="M237.136 207.207C239.935 208.519 242.646 209.902 245.242 211.348C242.824 211.879 240.188 212.176 237.389 212.176C230.775 212.176 224.909 210.511 221.257 207.945C222.644 206.974 224.339 206.117 226.281 205.453C229.397 206.533 233.128 207.182 237.136 207.207Z" fill="#B7B3AC"/>
<path d="M234.01 193.091C235.011 193.918 235.997 194.756 236.973 195.598C236.324 195.672 235.689 195.717 235.07 195.702C233.331 195.657 231.77 195.053 231.27 194.215C231.181 194.082 231.136 193.933 231.121 193.789C232.137 193.611 233.098 193.373 234.01 193.091Z" fill="#CBC6BD"/>
<path d="M233.495 188.553L236.398 190.143C235.1 190.247 233.936 190.435 232.979 190.718C232.316 190.188 231.667 189.658 231.008 189.127C231.875 188.984 232.697 188.791 233.495 188.553Z" fill="#CBC6BD"/>
<path d="M237.414 203.257C235.942 203.332 234.302 203.153 233.098 202.683C233.614 202.549 234.129 202.405 234.614 202.242C235.511 202.48 236.616 202.549 237.592 202.48C239.316 202.361 241.115 201.845 242.913 200.964C242.175 200.27 241.442 199.576 240.674 198.888C240.981 198.605 241.263 198.313 241.501 198.006C242.353 198.788 243.196 199.566 244.033 200.349C245.123 199.67 246.406 198.595 245.802 197.55C245.376 196.812 244.078 196.341 242.591 196.133C242.695 195.88 242.77 195.618 242.814 195.35C244.831 195.588 246.644 196.217 247.248 197.282C247.912 198.417 246.966 199.789 244.771 201.053C245.683 201.92 246.599 202.777 247.481 203.659C247.66 203.837 247.511 204.07 247.129 204.174C247.04 204.204 246.921 204.233 246.822 204.233C246.54 204.248 246.262 204.174 246.129 204.04C245.316 203.228 244.464 202.435 243.622 201.622C241.645 202.549 239.673 203.094 237.701 203.243C237.607 203.257 237.503 203.257 237.414 203.257Z" fill="#9B9894"/>
<path d="M233.762 191.357C235.045 191.005 236.532 190.886 237.696 190.872L238.36 191.238C237.463 191.768 236.443 192.239 235.323 192.655C234.808 192.224 234.292 191.783 233.762 191.357Z" fill="#CBC6BD"/>
<path d="M232.509 191.828C233.009 192.239 233.51 192.67 234.01 193.096C233.098 193.373 232.137 193.611 231.122 193.79C230.988 193.091 231.508 192.358 232.509 191.828Z" fill="#CBC6BD"/>
<path d="M256.231 276.945C246.564 287.716 232.979 297.041 216.639 304.22C227.792 298.74 245.385 288.91 256.231 276.945Z" fill="#475993"/>
<path d="M232.023 201.137C232.42 201.048 232.851 201.137 232.994 201.33C233.292 201.742 233.891 202.039 234.614 202.242C234.129 202.406 233.614 202.549 233.098 202.683C232.42 202.43 231.89 202.079 231.567 201.653C231.434 201.464 231.637 201.226 232.023 201.137Z" fill="#9B9894"/>
<path d="M245.489 262.008C240.996 265.62 236.016 268.994 230.606 272.1C235.442 269.286 240.54 265.927 245.489 262.008Z" fill="#5C80CB"/>
<path d="M226.955 184.946C230.74 184.738 234.159 183.915 236.854 182.662C238.311 181.998 239.549 181.22 240.525 180.333C241.338 179.61 241.952 178.832 242.353 178.005V177.99C242.661 177.385 242.809 176.751 242.869 176.102V180.789C242.809 181.438 242.661 182.057 242.353 182.662C242.353 182.662 242.353 182.662 242.353 182.677C241.957 183.519 241.338 184.282 240.54 185.005C240.01 185.476 239.391 185.917 238.712 186.348C238.271 186.333 237.83 186.318 237.384 186.318C234.996 186.318 232.697 186.541 230.562 186.937L226.955 184.946Z" fill="#C9A200"/>
<path d="M235.07 195.702C235.689 195.717 236.324 195.672 236.973 195.598C236.002 194.756 235.011 193.918 234.01 193.091C234.466 192.957 234.907 192.808 235.323 192.65C236.428 193.562 237.503 194.493 238.578 195.405C238.801 195.375 239.034 195.345 239.271 195.33C238.786 195.667 238.241 195.994 237.666 196.286C236.769 196.405 235.838 196.495 234.897 196.465C232.583 196.405 230.507 195.598 229.828 194.493C229.739 194.344 229.68 194.201 229.635 194.037C230.135 193.978 230.636 193.889 231.121 193.784C231.136 193.933 231.181 194.077 231.27 194.211C231.77 195.053 233.331 195.657 235.07 195.702Z" fill="#9B9894"/>
<path d="M237.696 190.866C236.532 190.881 235.045 191 233.762 191.352C234.292 191.778 234.808 192.219 235.323 192.65C234.912 192.814 234.471 192.957 234.01 193.091C233.51 192.665 233.009 192.234 232.509 191.823C231.508 192.353 230.993 193.091 231.122 193.785C230.636 193.889 230.136 193.978 229.635 194.037C229.382 193.037 230.165 191.917 231.696 191.193C230.943 190.589 230.225 189.97 229.472 189.38C230.002 189.306 230.502 189.231 231.003 189.127C231.667 189.658 232.316 190.188 232.975 190.718C233.931 190.435 235.095 190.247 236.393 190.143L237.696 190.866Z" fill="#9B9894"/>
<path d="M231.002 189.127C230.502 189.231 230.002 189.306 229.472 189.38C229.412 189.321 229.353 189.276 229.293 189.231C229.07 189.068 229.174 188.82 229.531 188.701C229.883 188.568 230.358 188.612 230.576 188.79C230.725 188.909 230.874 189.013 231.002 189.127Z" fill="#9B9894"/>
<path d="M222.828 189.588C224.948 188.409 227.604 187.497 230.562 186.938L233.495 188.558C232.697 188.795 231.875 188.984 231.003 189.132C230.869 189.013 230.72 188.909 230.576 188.795C230.353 188.617 229.883 188.572 229.531 188.706C229.179 188.825 229.075 189.073 229.293 189.236C229.353 189.281 229.412 189.326 229.472 189.385C228.055 189.578 226.553 189.677 225.022 189.677C224.269 189.672 223.536 189.648 222.828 189.588Z" fill="#CBC6BD"/>
<path d="M226.747 160.753C228.734 160.59 231.136 161.021 231.696 161.992C232.197 162.859 231.136 163.746 230.24 164.305C228.986 163.126 227.703 161.962 226.38 160.798C226.494 160.783 226.613 160.768 226.747 160.753Z" fill="#FFCE00"/>
<path d="M210.466 281.722C216.318 279.438 221.842 276.891 227.014 274.117C220.341 277.758 214.445 280.305 210.6 281.806L210.466 281.722Z" fill="#475993"/>
<path d="M233.098 202.683C234.307 203.153 235.942 203.332 237.414 203.257C237.503 203.257 237.607 203.257 237.696 203.243C239.668 203.094 241.645 202.549 243.617 201.622C244.459 202.435 245.311 203.228 246.124 204.04C246.257 204.174 246.535 204.248 246.817 204.233C246.921 204.233 247.04 204.204 247.125 204.174C247.506 204.07 247.655 203.837 247.476 203.659C246.594 202.777 245.678 201.92 244.766 201.053C246.961 199.784 247.902 198.417 247.243 197.282C246.639 196.222 244.826 195.588 242.809 195.35C242.839 195.261 242.854 195.157 242.869 195.073V193.73L255.834 200.889C255.423 201.39 254.923 201.89 254.348 202.361C252.847 203.599 250.84 204.645 248.512 205.457C245.331 206.562 241.511 207.211 237.389 207.211C237.3 207.211 237.225 207.211 237.136 207.211C233.128 207.181 229.402 206.532 226.276 205.457C224.745 204.927 223.358 204.293 222.179 203.57C223.105 203.659 224.051 203.703 225.023 203.703C227.926 203.703 230.681 203.332 233.098 202.683Z" fill="#CBC6BD"/>
<path d="M236.839 177.99C238.296 177.326 239.534 176.533 240.52 175.661C241.333 174.938 241.947 174.16 242.348 173.318C242.363 173.333 242.363 173.348 242.363 173.362L242.864 176.058V176.102C242.804 176.751 242.656 177.385 242.348 177.99V178.005C241.952 178.832 241.333 179.61 240.52 180.333C239.549 181.215 238.31 181.998 236.849 182.662C234.154 183.915 230.735 184.738 226.95 184.946L216.56 179.199C219.082 179.922 221.951 180.319 225.018 180.319C229.546 180.319 233.688 179.437 236.839 177.99Z" fill="#D6AD00"/>
<path d="M225.023 194.359C222.62 194.359 220.336 194.106 218.245 193.651C219.156 192.105 220.752 190.718 222.828 189.583C223.536 189.642 224.27 189.672 225.023 189.672C226.554 189.672 228.06 189.568 229.472 189.38C230.225 189.969 230.943 190.589 231.696 191.193C230.165 191.917 229.383 193.036 229.635 194.037C228.159 194.255 226.613 194.359 225.023 194.359Z" fill="#CBC6BD"/>
<path d="M234.897 196.465C235.838 196.495 236.77 196.406 237.666 196.287C234.441 197.966 229.962 199.012 225.022 199.012C222.342 199.012 219.805 198.705 217.521 198.16C217.388 197.704 217.328 197.233 217.328 196.757C217.328 195.682 217.65 194.622 218.24 193.646C220.331 194.102 222.615 194.354 225.017 194.354C226.608 194.354 228.154 194.25 229.63 194.032C229.675 194.196 229.734 194.34 229.823 194.488C230.502 195.598 232.583 196.411 234.897 196.465Z" fill="#CBC6BD"/>
<path d="M219.657 159.232C219.26 158.568 219.686 157.776 220.672 157.26C221.941 158.276 223.179 159.321 224.383 160.372C223.838 160.431 223.308 160.476 222.793 160.461C221.366 160.426 220.073 159.926 219.657 159.232Z" fill="#FFCE00"/>
<path d="M222.179 203.57C221.267 203.51 220.365 203.391 219.498 203.248C219.781 202.94 220.103 202.643 220.455 202.366C220.97 202.787 221.544 203.188 222.179 203.57Z" fill="#B7B3AC"/>
<path d="M218.245 204.838C218.567 204.278 218.983 203.748 219.498 203.248C220.365 203.396 221.267 203.515 222.179 203.57C223.358 204.293 224.74 204.927 226.276 205.457C224.329 206.121 222.635 206.973 221.252 207.949C219.939 207.008 218.909 205.963 218.245 204.853V204.838Z" fill="#B7B3AC"/>
<path d="M220.455 202.361C219.439 201.533 218.641 200.622 218.111 199.666C219.523 200.106 220.91 200.592 222.283 201.083C221.604 201.479 221 201.905 220.455 202.361Z" fill="#CBC6BD"/>
<path d="M219.498 203.242C218.983 203.743 218.572 204.273 218.245 204.833C217.848 204.184 217.581 203.505 217.447 202.816C218.111 202.995 218.79 203.129 219.498 203.242Z" fill="#B7B3AC"/>
<path d="M237.384 218.379C243.042 218.379 248.14 217.17 251.767 215.213C253.223 216.125 254.655 217.071 256.023 218.027C253.075 221.872 245.841 224.597 237.384 224.597C226.321 224.597 217.328 219.925 217.328 214.153C217.328 213.078 217.635 212.032 218.24 211.056C220.776 215.297 228.396 218.379 237.384 218.379Z" fill="#898684"/>
<path d="M231.696 161.987C231.136 161.015 228.733 160.584 226.747 160.748C226.613 160.763 226.494 160.778 226.38 160.792C227.708 161.957 228.986 163.121 230.24 164.3C231.136 163.74 232.197 162.859 231.696 161.987ZM220.677 157.26C219.691 157.775 219.265 158.573 219.662 159.232C220.073 159.925 221.371 160.426 222.798 160.456C223.313 160.47 223.843 160.426 224.388 160.366C223.179 159.321 221.941 158.276 220.677 157.26ZM230.844 164.89C231.597 165.613 232.36 166.332 233.098 167.055C233.247 167.204 233.113 167.392 232.806 167.496C232.732 167.511 232.643 167.526 232.553 167.526C232.316 167.54 232.083 167.481 231.964 167.377C231.3 166.698 230.591 166.034 229.888 165.375C228.268 166.143 226.618 166.599 224.998 166.718C224.909 166.718 224.834 166.733 224.745 166.733C222.857 166.822 220.648 166.411 219.914 165.39C219.796 165.227 219.959 165.038 220.281 164.964C220.603 164.905 220.96 164.979 221.079 165.128C221.639 165.896 223.452 166.188 224.894 166.084C226.335 165.98 227.812 165.554 229.313 164.816C227.926 163.517 226.514 162.224 225.057 160.941C224.274 161.03 223.482 161.119 222.654 161.105C220.737 161.045 219.013 160.381 218.468 159.455C217.908 158.543 218.542 157.409 219.999 156.73C220.014 156.715 220.014 156.715 220.014 156.715C219.35 156.185 218.701 155.64 218.012 155.11C217.834 154.961 217.923 154.758 218.22 154.654C218.517 154.55 218.899 154.58 219.087 154.728C219.751 155.258 220.415 155.803 221.074 156.333C222.164 156.011 223.536 155.833 225.112 155.818C226.499 155.803 227.396 156.041 227.658 156.482C227.762 156.646 227.569 156.834 227.232 156.893C226.91 156.953 226.553 156.878 226.464 156.7C226.345 156.507 225.652 156.447 225.052 156.447C224.081 156.462 222.798 156.551 221.723 156.859C223.08 157.963 224.403 159.083 225.716 160.218C226.023 160.173 226.335 160.143 226.643 160.114C229.105 159.921 232.137 160.436 232.905 161.764C233.45 162.71 232.667 163.844 230.844 164.89Z" fill="#CEA600"/>
<path d="M217.333 207.93C217.333 206.855 217.64 205.824 218.245 204.848C218.909 205.953 219.939 206.998 221.252 207.945C219.939 208.871 218.909 209.922 218.245 211.056C217.64 210.065 217.333 209.02 217.333 207.93Z" fill="#9B9894"/>
<path d="M236.854 168.651C233.703 170.092 229.561 170.979 225.023 170.979C220.895 170.979 217.11 170.256 214.088 169.047C213.781 168.913 213.469 168.78 213.176 168.651C211.72 167.972 210.481 167.179 209.495 166.307C208.698 165.584 208.078 164.806 207.682 163.979V163.964C207.3 163.226 207.107 162.448 207.107 161.635C207.107 156.463 215.138 152.291 225.023 152.291C225.89 152.291 226.747 152.321 227.574 152.395C233.098 155.388 238.211 158.643 242.869 162.165C242.854 162.373 242.824 162.591 242.779 162.829C242.779 162.844 242.765 162.874 242.765 162.904C242.72 163.067 242.661 163.24 242.601 163.404C242.542 163.597 242.452 163.785 242.348 163.979C242.334 164.023 242.319 164.053 242.289 164.098C242.2 164.261 242.111 164.42 242.007 164.583C241.947 164.687 241.873 164.791 241.784 164.89C241.709 165.009 241.62 165.128 241.531 165.242C241.382 165.42 241.239 165.594 241.06 165.772C240.897 165.951 240.723 166.124 240.53 166.302C239.564 167.174 238.325 167.972 236.854 168.651ZM232.801 167.501C233.108 167.397 233.242 167.209 233.093 167.06C232.355 166.337 231.592 165.619 230.839 164.895C232.667 163.85 233.445 162.715 232.9 161.774C232.132 160.446 229.1 159.931 226.638 160.124C226.331 160.154 226.018 160.183 225.711 160.228C224.398 159.094 223.075 157.974 221.718 156.869C222.793 156.562 224.076 156.473 225.047 156.458C225.652 156.458 226.345 156.517 226.459 156.71C226.549 156.889 226.9 156.963 227.227 156.904C227.564 156.844 227.757 156.651 227.653 156.492C227.386 156.051 226.489 155.814 225.107 155.829C223.531 155.843 222.159 156.022 221.069 156.344C220.405 155.814 219.741 155.269 219.082 154.739C218.889 154.59 218.507 154.56 218.215 154.664C217.923 154.768 217.834 154.971 218.007 155.12C218.701 155.65 219.35 156.195 220.009 156.725C220.009 156.725 220.009 156.725 219.994 156.74C218.537 157.419 217.903 158.553 218.463 159.465C219.008 160.392 220.732 161.055 222.649 161.115C223.477 161.13 224.269 161.041 225.052 160.951C226.509 162.235 227.926 163.528 229.308 164.826C227.807 165.564 226.331 165.99 224.889 166.094C223.447 166.198 221.634 165.901 221.074 165.138C220.955 164.989 220.603 164.915 220.276 164.974C219.954 165.049 219.791 165.242 219.91 165.401C220.648 166.416 222.857 166.827 224.74 166.743C224.829 166.743 224.904 166.728 224.993 166.728C226.613 166.609 228.263 166.154 229.883 165.386C230.591 166.05 231.295 166.714 231.959 167.387C232.078 167.491 232.311 167.551 232.548 167.536C232.638 167.531 232.727 167.516 232.801 167.501Z" fill="#FFCE00"/>
<path d="M217.333 207.93V202.787C217.363 202.802 217.408 202.817 217.452 202.817C217.586 203.51 217.849 204.189 218.25 204.833V204.848C217.64 205.824 217.333 206.855 217.333 207.93Z" fill="#9B9894"/>
<path d="M217.908 199.254C217.967 199.388 218.042 199.522 218.116 199.666C218.012 199.606 217.893 199.576 217.794 199.547C217.819 199.443 217.863 199.353 217.908 199.254Z" fill="#BF9A00"/>
<path d="M217.447 202.817C217.358 202.465 217.328 202.093 217.328 201.727C217.328 200.989 217.477 200.255 217.784 199.547C217.888 199.577 218.007 199.606 218.106 199.666C218.636 200.622 219.434 201.539 220.449 202.361C220.098 202.643 219.771 202.936 219.493 203.243C218.79 203.129 218.111 202.995 217.447 202.817Z" fill="#B7B3AC"/>
<path d="M217.521 198.16C219.805 198.705 222.337 199.012 225.023 199.012C229.957 199.012 234.436 197.966 237.666 196.287C237.711 196.287 237.741 196.272 237.785 196.272C238.756 197.139 239.732 198.011 240.674 198.878C239.217 200.25 237.136 201.415 234.619 202.237C233.896 202.029 233.292 201.737 232.999 201.326C232.851 201.132 232.425 201.043 232.028 201.132C231.647 201.221 231.439 201.454 231.572 201.648C231.894 202.074 232.425 202.43 233.103 202.678C230.686 203.327 227.931 203.694 225.028 203.694C224.056 203.694 223.11 203.649 222.184 203.56C221.549 203.179 220.975 202.777 220.459 202.351C221.004 201.895 221.609 201.469 222.288 201.068C220.915 200.582 219.533 200.097 218.116 199.651C218.042 199.502 217.967 199.373 217.908 199.24C217.744 198.898 217.611 198.531 217.521 198.16Z" fill="#CBC6BD"/>
<path d="M217.521 198.159C217.462 198.145 217.388 198.13 217.328 198.115V196.757C217.333 197.233 217.388 197.704 217.521 198.159Z" fill="#B7B3AC"/>
<path d="M217.333 199.398V198.115C217.393 198.13 217.467 198.144 217.526 198.159C217.616 198.526 217.749 198.898 217.908 199.249C217.863 199.353 217.819 199.443 217.789 199.547C217.64 199.487 217.477 199.428 217.333 199.398Z" fill="#B7B3AC"/>
<path d="M217.333 201.727C217.333 202.093 217.363 202.465 217.452 202.817C217.408 202.817 217.363 202.802 217.333 202.787V201.727Z" fill="#9B9894"/>
<path d="M217.333 207.93C217.333 209.02 217.64 210.065 218.245 211.051C217.64 212.022 217.333 213.067 217.333 214.148V207.93Z" fill="#898684"/>
<path d="M217.789 199.547C217.482 200.255 217.333 200.988 217.333 201.727V199.398C217.477 199.428 217.64 199.487 217.789 199.547Z" fill="#B7B3AC"/>
<path d="M210.595 281.806C210.521 281.836 210.446 281.865 210.372 281.895V281.747C210.402 281.732 210.432 281.732 210.461 281.717L210.595 281.806Z" fill="#475993"/>
<path d="M210.466 281.722C210.436 281.736 210.407 281.736 210.377 281.751V281.662L210.466 281.722Z" fill="#5C80CB"/>
<path d="M207.682 192.016C207.315 191.292 207.122 190.559 207.107 189.791C207.107 189.747 207.107 189.717 207.107 189.672V185.015C207.107 185.813 207.3 186.591 207.682 187.344C208.078 188.171 208.698 188.949 209.51 189.672C211.497 191.456 214.564 192.868 218.25 193.651C217.66 194.622 217.338 195.682 217.338 196.762V198.12C216.144 197.827 215.01 197.456 213.979 197.03C210.922 195.791 208.668 194.037 207.682 192.016Z" fill="#C9A200"/>
<path d="M236.854 173.318C238.31 172.654 239.549 171.861 240.535 170.974C241.333 170.251 241.937 169.488 242.348 168.66L242.863 171.4V171.43C242.834 171.737 242.789 172.034 242.715 172.342C242.67 172.505 242.611 172.664 242.551 172.842C242.492 172.976 242.418 173.124 242.343 173.253V173.283V173.298C242.343 173.298 242.343 173.298 242.343 173.313C241.947 174.155 241.328 174.933 240.515 175.656C239.529 176.523 238.29 177.321 236.834 177.985C233.683 179.426 229.541 180.313 225.017 180.313C221.951 180.313 219.077 179.917 216.56 179.194L208.722 174.863C208.455 174.556 208.222 174.259 208.029 173.937C207.895 173.744 207.761 173.541 207.677 173.318C207.677 173.303 207.677 173.303 207.677 173.303C207.31 172.594 207.117 171.861 207.102 171.093C207.102 171.048 207.102 171.019 207.102 170.974C207.102 170.162 207.295 169.384 207.677 168.646C208.058 169.473 208.692 170.251 209.49 170.974C209.812 171.257 210.169 171.549 210.55 171.802C211.318 172.376 212.215 172.877 213.186 173.318C216.352 174.774 220.479 175.661 225.017 175.661C229.546 175.661 233.703 174.779 236.854 173.318Z" fill="#BF9A00"/>
<path d="M208.727 174.868L216.565 179.198C215.342 178.876 214.222 178.46 213.191 177.989C211.735 177.326 210.496 176.533 209.51 175.661C209.228 175.398 208.96 175.131 208.727 174.868Z" fill="#BF9A00"/>
<path d="M207.682 177.99C207.3 177.237 207.107 176.459 207.107 175.661C207.107 175.324 207.137 174.997 207.196 174.675C207.345 174.541 207.494 174.393 207.652 174.279L208.727 174.868C208.965 175.136 209.228 175.399 209.51 175.666C210.496 176.533 211.735 177.331 213.191 177.995C214.222 178.465 215.342 178.877 216.565 179.204L226.955 184.951C226.321 184.995 225.672 185.01 225.023 185.01C220.469 185.01 216.327 184.128 213.176 182.667C211.72 182.003 210.481 181.225 209.505 180.338C208.693 179.615 208.078 178.837 207.677 178.01V177.99H207.682Z" fill="#D6AD00"/>
<path d="M207.682 182.662C207.315 181.953 207.122 181.22 207.107 180.452C207.107 180.408 207.107 180.378 207.107 180.333V175.661C207.107 176.459 207.3 177.237 207.682 177.99V178.005C208.078 178.832 208.698 179.61 209.51 180.333C210.481 181.215 211.72 181.998 213.181 182.662C216.332 184.118 220.474 185.005 225.028 185.005C225.677 185.005 226.326 184.99 226.96 184.946L230.572 186.938C227.609 187.497 224.958 188.409 222.838 189.588C219.171 189.365 215.852 188.558 213.201 187.349C211.745 186.685 210.491 185.892 209.505 185.005C208.707 184.282 208.088 183.504 207.692 182.677C207.682 182.662 207.682 182.662 207.682 182.662Z" fill="#C9A200"/>
<path d="M207.682 173.318C207.771 173.541 207.905 173.744 208.034 173.937C207.9 174.041 207.781 174.16 207.652 174.274L207.36 174.111C207.429 173.848 207.548 173.585 207.682 173.318Z" fill="#D6AD00"/>
<path d="M208.034 173.937C208.227 174.259 208.46 174.556 208.727 174.863L207.652 174.274C207.781 174.16 207.9 174.041 208.034 173.937Z" fill="#D6AD00"/>
<path d="M207.107 189.792C207.122 190.559 207.315 191.293 207.682 192.016C208.668 194.033 210.922 195.786 213.974 197.025C215.005 197.451 216.139 197.823 217.333 198.115V199.398V201.727V202.787C211.294 201.301 207.107 198.085 207.107 194.36V189.792Z" fill="#BF9A00"/>
<path d="M207.355 174.115L207.647 174.279C207.484 174.398 207.34 174.546 207.191 174.675C207.221 174.482 207.281 174.294 207.355 174.115Z" fill="#D6AD00"/>
<path d="M207.107 166.426C207.122 167.194 207.315 167.927 207.682 168.65C207.3 169.389 207.107 170.166 207.107 170.979V166.426Z" fill="#BF9A00"/>
<path d="M207.107 180.452C207.122 181.22 207.315 181.953 207.682 182.662C207.682 182.662 207.682 182.662 207.682 182.677C208.078 183.504 208.697 184.282 209.495 185.005C210.481 185.887 211.734 186.685 213.191 187.349C215.842 188.558 219.156 189.365 222.828 189.588C220.752 190.723 219.161 192.11 218.245 193.656C214.563 192.873 211.497 191.461 209.505 189.677C208.692 188.954 208.078 188.176 207.677 187.349C207.295 186.596 207.102 185.818 207.102 185.02V180.452H207.107Z" fill="#BF9A00"/>
<path d="M236.854 168.65C238.325 167.972 239.564 167.179 240.535 166.307C240.728 166.128 240.902 165.955 241.065 165.777C241.243 165.598 241.387 165.425 241.536 165.247C241.64 165.128 241.729 165.009 241.788 164.895C241.878 164.791 241.952 164.687 242.011 164.588C242.115 164.439 242.205 164.28 242.294 164.117V164.102C242.324 164.058 242.338 164.028 242.353 163.983L242.869 166.768V166.782C242.839 167.105 242.779 167.417 242.705 167.724C242.631 168.016 242.512 168.328 242.353 168.635V168.665C241.942 169.493 241.338 170.256 240.54 170.979C239.554 171.861 238.315 172.658 236.859 173.322C233.708 174.779 229.551 175.666 225.027 175.666C220.489 175.666 216.362 174.784 213.196 173.322C212.225 172.881 211.323 172.381 210.56 171.806C210.179 171.554 209.822 171.261 209.5 170.979C208.702 170.256 208.073 169.478 207.687 168.65C207.32 167.927 207.127 167.194 207.112 166.426C207.112 166.381 207.112 166.351 207.112 166.307V161.635C207.112 162.447 207.305 163.225 207.687 163.963V163.978C208.083 164.806 208.702 165.583 209.5 166.307C210.486 167.174 211.725 167.972 213.181 168.65C213.474 168.784 213.786 168.918 214.093 169.047C217.115 170.256 220.9 170.979 225.027 170.979C229.561 170.979 233.703 170.092 236.854 168.65Z" fill="#D6AD00"/>
<path d="M207.191 174.675C207.162 174.705 207.117 174.72 207.102 174.764V173.967L207.355 174.115C207.28 174.294 207.221 174.482 207.191 174.675Z" fill="#D6AD00"/>
<path d="M207.107 173.967V171.093C207.122 171.861 207.315 172.594 207.682 173.303C207.682 173.303 207.682 173.303 207.682 173.318C207.548 173.585 207.429 173.848 207.36 174.115L207.107 173.967Z" fill="#D6AD00"/>
<path d="M207.107 173.967L197.852 168.854V141.034L199.061 140.475C209.421 143.715 218.983 147.723 227.574 152.395C226.747 152.321 225.894 152.291 225.022 152.291C215.133 152.291 207.107 156.463 207.107 161.635V166.307C207.107 166.352 207.107 166.382 207.107 166.426V170.979C207.107 171.024 207.107 171.054 207.107 171.098V173.967Z" fill="#066FAA"/>
<path d="M201.92 63.9027C203.347 64.4328 204.689 65.8498 204.481 67.2915C204.288 68.5747 203.054 69.308 202.108 69.6944C201.989 67.7325 201.84 65.7755 201.652 63.8135C201.741 63.8432 201.83 63.8729 201.92 63.9027Z" fill="#FFCE00"/>
<path d="M198.12 59.3644C198.254 58.3784 199.002 57.5213 199.993 57.229C200.215 58.9978 200.404 60.7814 200.582 62.5501C200.186 62.4312 199.814 62.2974 199.477 62.0943C198.546 61.5146 197.986 60.3949 198.12 59.3644Z" fill="#FFCE00"/>
<path d="M199.829 85.1924C196.722 86.7233 194.26 90.8355 193.289 96.1418L192.199 102.137L187.235 100.531L186.437 96.1418C185.951 93.4911 185.094 91.1328 183.96 89.2451C182.84 87.3724 181.438 85.9603 179.892 85.1924C182.617 81.8481 184.797 77.3693 186.229 72.1968C188.409 75.8086 191.991 78.4741 196.202 79.46C199.294 84.5285 199.561 84.8703 199.829 85.1924Z" fill="#F4F2ED"/>
<path d="M202.108 69.6947C203.049 69.3132 204.288 68.575 204.481 67.2917C204.689 65.85 203.347 64.433 201.92 63.9029C201.831 63.8731 201.742 63.8434 201.652 63.8137C201.846 65.7757 201.994 67.7327 202.108 69.6947ZM198.12 59.3646C197.986 60.3951 198.546 61.5148 199.477 62.0895C199.814 62.2976 200.186 62.4264 200.582 62.5453C200.404 60.7766 200.216 58.993 199.993 57.2242C199.002 57.5215 198.249 58.3786 198.12 59.3646ZM195.098 66.8805C195.35 66.9103 195.538 67.1332 195.524 67.3809C195.434 68.5452 196.465 69.5906 197.496 69.987C198.511 70.3833 199.75 70.3833 201.192 70.0018C201.043 67.8516 200.884 65.6865 200.676 63.5164C200.102 63.3529 199.527 63.1647 198.982 62.8377C197.743 62.0697 196.99 60.5834 197.183 59.1961C197.362 57.8237 198.452 56.6495 199.849 56.3077C199.849 56.3077 199.849 56.3077 199.864 56.3077C199.73 55.3812 199.626 54.4349 199.497 53.5232C199.453 53.2706 199.646 53.0526 199.893 53.0228C200.161 53.008 200.394 53.1863 200.424 53.4341C200.557 54.3457 200.676 55.2771 200.79 56.2036C201.702 56.2036 202.722 56.4811 203.783 57.031C204.709 57.5166 205.185 58.1507 205.081 58.8146C205.051 59.0673 204.813 59.2258 204.566 59.1813C204.298 59.1367 204.125 58.9038 204.154 58.666C204.199 58.3737 203.773 58.0318 203.372 57.8287C202.708 57.4918 201.811 57.1202 200.909 57.1053C201.147 59.0227 201.35 60.9203 201.543 62.8377C201.781 62.912 201.999 62.9714 202.222 63.0606C203.976 63.7097 205.7 65.4933 205.403 67.4503C205.195 68.8524 204.001 70.0118 202.163 70.6608C202.237 71.8548 202.311 73.0489 202.356 74.228C202.371 74.4807 202.163 74.6838 201.915 74.6838C201.841 74.6838 201.766 74.669 201.707 74.6392C201.543 74.5649 201.429 74.4014 201.429 74.228C201.37 73.1232 201.31 72.0332 201.236 70.9283C199.705 71.295 198.318 71.2652 197.169 70.8243C197.109 70.7946 197.05 70.7648 197.005 70.75C195.677 70.1604 194.473 68.8177 194.572 67.2571C194.612 67.0242 194.83 66.8508 195.098 66.8805Z" fill="#BF9A00"/>
<path d="M194.582 67.2622C194.478 68.8229 195.687 70.1656 197.015 70.7552C197.059 70.77 197.119 70.7998 197.178 70.8295C198.328 71.2704 199.715 71.3001 201.246 70.9335C201.32 72.0384 201.38 73.1284 201.439 74.2332C201.439 74.4116 201.558 74.5701 201.717 74.6444C201.776 74.6742 201.85 74.689 201.925 74.689C202.177 74.689 202.38 74.4809 202.366 74.2332C202.321 73.054 202.247 71.86 202.172 70.666C204.015 70.0169 205.209 68.8526 205.413 67.4555C205.705 65.4935 203.986 63.7148 202.232 63.0658C202.009 62.9766 201.791 62.9172 201.553 62.8428C201.36 60.9255 201.157 59.0279 200.919 57.1105C201.816 57.1254 202.717 57.492 203.381 57.8339C203.778 58.042 204.209 58.3789 204.164 58.6712C204.134 58.909 204.313 59.1419 204.575 59.1864C204.828 59.231 205.061 59.0675 205.091 58.8198C205.195 58.1559 204.724 57.5217 203.792 57.0362C202.732 56.4912 201.717 56.2088 200.8 56.2088C200.681 55.2823 200.562 54.3509 200.433 53.4392C200.404 53.1866 200.166 53.0132 199.903 53.028C199.651 53.0578 199.462 53.2807 199.507 53.5284C199.641 54.4401 199.745 55.3864 199.873 56.3128C199.859 56.3128 199.859 56.3128 199.859 56.3128C198.456 56.6498 197.366 57.8289 197.193 59.2013C197 60.5886 197.753 62.0749 198.992 62.8428C199.537 63.1649 200.111 63.3581 200.686 63.5216C200.894 65.6867 201.053 67.8518 201.201 70.007C199.76 70.3885 198.521 70.3885 197.505 69.9922C196.475 69.5958 195.444 68.5504 195.533 67.3861C195.548 67.1334 195.355 66.9154 195.107 66.8857C194.83 66.851 194.612 67.0244 194.582 67.2622ZM183.93 63.9477C183.93 55.1535 191.059 48.019 199.859 48.019C208.653 48.019 215.787 55.1485 215.787 63.9477C215.787 72.7568 208.658 79.8912 199.859 79.8912C198.605 79.8912 197.381 79.7426 196.202 79.4651C195.994 79.039 195.791 78.5981 195.583 78.1373C194.389 75.4421 193.433 72.4496 192.754 69.2242L189.851 55.5053L186.962 69.2242C186.739 70.2399 186.506 71.2258 186.224 72.2019C184.767 69.7989 183.93 66.9699 183.93 63.9477Z" fill="#FFCE00"/>
<path d="M192.754 69.2238C193.433 72.4492 194.389 75.4417 195.583 78.137C195.791 78.5928 195.994 79.0337 196.202 79.4648C191.986 78.4788 188.409 75.8083 186.229 72.2015C186.511 71.2304 186.744 70.2395 186.967 69.2238L189.856 55.5049L192.754 69.2238Z" fill="#F4F2ED"/>
<path d="M192.194 102.136L189.851 114.884L187.23 100.531L192.194 102.136Z" fill="#F4F2ED"/>
<path d="M187.656 177.668C190.693 183.96 189.013 200.27 189.013 200.27C187.259 201.727 185.094 202.48 182.914 202.48C181.691 202.48 180.452 202.242 179.273 201.756L178.332 201.375C178.332 201.375 177.846 183.945 181.468 177.549C182.117 178.802 183.266 179.64 184.589 179.64C185.872 179.64 187.007 178.862 187.656 177.668Z" fill="#BA5055"/>
<path d="M188.275 247.035C190.767 246.827 193.77 247.357 194.478 248.566C195.097 249.656 193.77 250.776 192.635 251.484C191.074 249.998 189.469 248.537 187.819 247.08C187.968 247.065 188.127 247.05 188.275 247.035Z" fill="#FFCE00"/>
<path d="M185.402 175.339L185.506 170.935C187.096 171.42 188.275 173.159 188.275 175.22C188.275 176.117 188.052 176.959 187.656 177.668C187.081 176.474 186.343 175.646 185.402 175.339Z" fill="#BA5055"/>
<path d="M184.579 146.534L161.328 132.671C162.537 132.805 163.745 132.953 164.954 133.112L186.085 145.711L186.07 146.494L184.569 147.188L184.579 146.534Z" fill="#BA5055"/>
<path d="M186.066 146.489L185.699 162.15L184.237 161.343L184.564 147.183L186.066 146.489Z" fill="#BA5055"/>
<path d="M177.34 258.411C179.932 259.104 182.835 259.486 185.887 259.486C189.925 259.486 193.695 258.807 196.851 257.643C201.271 256.023 204.511 253.427 205.675 250.394C205.982 249.597 206.146 248.759 206.146 247.902V252.867C206.146 259.263 197.084 264.45 185.887 264.45C185.446 264.45 185.005 264.435 184.574 264.421L173.684 257.157C174.824 257.643 176.047 258.074 177.34 258.411Z" fill="#DBB100"/>
<path d="M184.237 161.343L185.694 162.155L185.501 170.935C185.203 170.845 184.896 170.801 184.589 170.801C184.396 170.801 184.207 170.816 184.029 170.86L184.237 161.343Z" fill="#BA5055"/>
<path d="M185.402 175.339L185.327 178.55L183.856 178.52L183.93 175.309C184.138 175.25 184.356 175.22 184.594 175.22C184.871 175.22 185.149 175.265 185.402 175.339Z" fill="#BA5055"/>
<path d="M184.589 175.22C184.351 175.22 184.133 175.25 183.925 175.309L184.029 170.86C184.207 170.816 184.396 170.801 184.589 170.801C184.896 170.801 185.208 170.845 185.501 170.935L185.397 175.339C185.149 175.265 184.871 175.22 184.589 175.22Z" fill="#BA5055"/>
<path d="M184.029 170.86L183.925 175.309C182.939 175.562 182.127 176.355 181.463 177.549C181.111 176.87 180.903 176.077 180.903 175.22C180.908 173.011 182.265 171.168 184.029 170.86Z" fill="#BA5055"/>
<path d="M183.93 175.31L183.856 178.52L185.327 178.55L185.402 175.339C186.343 175.646 187.081 176.474 187.656 177.668C187.007 178.862 185.872 179.64 184.589 179.64C183.261 179.64 182.112 178.802 181.468 177.549C182.132 176.355 182.939 175.557 183.93 175.31Z" fill="#BA5055"/>
<path d="M179.422 245.133C178.921 244.306 179.451 243.305 180.705 242.656C182.265 243.939 183.816 245.247 185.332 246.56C184.653 246.634 184.004 246.679 183.36 246.664C181.557 246.624 179.937 245.99 179.422 245.133Z" fill="#FFCE00"/>
<path d="M177.623 239.415L177.123 237.453C179.773 236.73 182.751 236.319 185.892 236.319C197.089 236.319 206.151 241.506 206.151 247.897C206.151 248.75 205.987 249.592 205.68 250.39C204.516 253.427 201.276 256.018 196.856 257.638L196.044 255.384C196.296 255.25 196.381 255.077 196.222 254.913C195.31 254.001 194.349 253.1 193.408 252.203C195.692 250.905 196.663 249.478 195.984 248.299C195.028 246.634 191.223 245.985 188.146 246.238C187.765 246.267 187.378 246.327 186.982 246.371C185.362 244.959 183.697 243.557 182.003 242.155C183.36 241.789 184.951 241.67 186.16 241.655C186.927 241.655 187.78 241.729 187.928 241.977C188.047 242.185 188.488 242.284 188.899 242.2C189.311 242.125 189.548 241.907 189.429 241.685C189.093 241.14 187.973 240.842 186.234 240.857C184.272 240.887 182.563 241.11 181.195 241.506C180.353 240.842 179.545 240.164 178.703 239.505C178.46 239.331 177.99 239.287 177.623 239.415Z" fill="#FFCE00"/>
<path d="M166.971 243.721C168.829 240.966 172.495 238.727 177.123 237.458L177.623 239.42C177.256 239.554 177.137 239.787 177.37 239.98C178.213 240.644 179.02 241.308 179.848 241.997C178.019 242.864 177.227 244.266 177.915 245.415C178.624 246.565 180.774 247.402 183.162 247.462C184.193 247.491 185.193 247.387 186.155 247.268C187.983 248.874 189.766 250.494 191.491 252.114C189.618 253.025 187.765 253.57 185.966 253.689C184.168 253.838 181.899 253.452 181.205 252.51C181.056 252.302 180.601 252.218 180.204 252.302C179.793 252.391 179.585 252.624 179.734 252.832C180.66 254.101 183.415 254.616 185.788 254.497C185.877 254.497 185.981 254.497 186.08 254.482C188.112 254.333 190.178 253.759 192.209 252.803C193.076 253.645 193.963 254.467 194.8 255.309C194.949 255.458 195.226 255.518 195.523 255.503C195.642 255.503 195.746 255.488 195.846 255.458C195.92 255.443 195.979 255.414 196.039 255.384L196.851 257.638C193.7 258.802 189.925 259.481 185.887 259.481C182.835 259.481 179.937 259.1 177.341 258.406C176.042 258.069 174.819 257.638 173.684 257.153L167.957 253.328C167.119 252.416 166.485 251.425 166.084 250.395C165.777 249.597 165.613 248.76 165.613 247.903C165.613 246.431 166.099 245.019 166.971 243.721Z" fill="#FFCE00"/>
<path d="M192.635 251.485C193.77 250.776 195.098 249.656 194.478 248.566C193.77 247.357 190.767 246.827 188.275 247.035C188.127 247.05 187.968 247.065 187.819 247.08C189.469 248.537 191.074 249.998 192.635 251.485ZM178.698 239.505C179.54 240.169 180.348 240.847 181.19 241.506C182.563 241.11 184.272 240.887 186.229 240.857C187.968 240.842 189.088 241.135 189.425 241.685C189.544 241.908 189.306 242.126 188.895 242.2C188.483 242.289 188.042 242.185 187.923 241.977C187.775 241.724 186.923 241.655 186.155 241.655C184.946 241.67 183.355 241.789 181.998 242.155C183.692 243.557 185.357 244.955 186.977 246.372C187.373 246.327 187.76 246.267 188.141 246.238C191.223 245.985 195.023 246.634 195.979 248.299C196.658 249.478 195.687 250.905 193.403 252.203C194.344 253.1 195.306 254.001 196.217 254.913C196.381 255.077 196.292 255.25 196.039 255.384C195.979 255.413 195.92 255.443 195.846 255.458C195.742 255.488 195.638 255.503 195.524 255.503C195.231 255.517 194.949 255.458 194.8 255.309C193.958 254.467 193.076 253.645 192.209 252.802C190.178 253.759 188.112 254.333 186.08 254.482C185.976 254.497 185.872 254.497 185.788 254.497C183.415 254.616 180.66 254.101 179.734 252.832C179.585 252.624 179.793 252.391 180.204 252.302C180.601 252.213 181.057 252.302 181.205 252.51C181.899 253.451 184.168 253.838 185.966 253.689C187.765 253.57 189.623 253.025 191.491 252.114C189.766 250.494 187.983 248.874 186.155 247.268C185.198 247.387 184.193 247.491 183.162 247.461C180.774 247.402 178.624 246.565 177.915 245.415C177.222 244.266 178.019 242.869 179.848 241.997C179.02 241.303 178.213 240.639 177.37 239.98C177.133 239.787 177.251 239.554 177.623 239.42C177.99 239.287 178.46 239.331 178.698 239.505ZM179.422 245.133C179.937 245.985 181.557 246.619 183.355 246.664C184.004 246.679 184.653 246.634 185.327 246.56C183.811 245.247 182.26 243.939 180.7 242.656C179.451 243.31 178.921 244.31 179.422 245.133Z" fill="#CEA600"/>
<path d="M167.957 253.328L173.689 257.157C171.316 256.142 169.354 254.829 167.957 253.328Z" fill="#FFCE00"/>
<path d="M166.084 250.394C166.48 251.425 167.114 252.411 167.957 253.327L165.613 251.752V247.907C165.613 248.759 165.777 249.597 166.084 250.394Z" fill="#DBB100"/>
<path d="M165.613 251.752L167.957 253.327C169.359 254.829 171.316 256.142 173.689 257.157L184.579 264.421C183.489 264.391 182.429 264.287 181.398 264.153C172.366 262.989 165.618 258.376 165.618 252.867V251.752H165.613Z" fill="#DBB100"/>
<path d="M168.531 24.0441C166.01 25.2827 164.023 28.6121 163.225 32.9126L160.456 48.0733L157.671 32.9126C157.275 30.7624 156.596 28.8599 155.684 27.3289C154.773 25.798 153.653 24.6634 152.385 24.0441C155.006 20.8336 157.012 16.325 158.117 11.1228L160.456 0L162.799 11.1228C163.344 13.714 164.127 16.1467 165.083 18.3266C166.054 20.5116 167.204 22.4388 168.531 24.0441Z" fill="#F4F2ED"/>
<path d="M144.735 121.028L164.949 133.112C163.741 132.948 162.532 132.805 161.323 132.671L143.363 121.944C143.893 121.707 144.354 121.394 144.735 121.028Z" fill="#BA5055"/>
<path d="M144.735 121.028L141.876 119.333L141.109 120.602L143.363 121.944C142.55 122.326 141.594 122.549 140.564 122.549C137.616 122.549 135.228 120.736 135.228 118.496C135.228 116.257 137.616 114.443 140.564 114.443C143.526 114.443 145.914 116.257 145.914 118.496C145.914 119.452 145.473 120.334 144.735 121.028Z" fill="#252528"/>
<path d="M141.876 119.333L144.735 121.028C144.354 121.395 143.893 121.707 143.363 121.94L141.108 120.597L141.876 119.333Z" fill="#252528"/>
<path d="M139.444 234.278L165.613 251.752V252.872C165.613 258.381 172.361 262.994 181.393 264.158C182.424 264.292 183.484 264.396 184.574 264.426L210.372 281.667V281.756C189.008 290.095 163.518 294.945 136.124 294.945C67.9209 294.945 11.415 264.886 1.36238 225.652C0.698481 223.061 0.227805 220.405 -0.0100098 217.74V208.485C2.86359 177.559 34.3344 151.211 78.8059 138.834L83.6513 140.97V170.672L54.9203 177.801L80.3665 194.805C80.8075 196.044 81.3673 197.238 82.0015 198.372L82.2393 198.799C82.4326 199.165 82.6208 199.522 82.8289 199.859L54.628 188.424L52.4034 187.527C51.4769 187.26 50.5009 187.131 49.515 187.131C44.9618 187.131 40.9982 190.019 38.9669 194.29C36.7869 193.864 34.4434 193.626 31.9811 193.626C20.9177 193.626 11.9253 198.298 11.9253 204.075V206.711V209.039V215.242V221.46C10.9245 236.755 23.9796 241.159 42.0288 240.055C55.6437 239.212 54.3307 229.784 52.8741 225.201C57.7493 228.501 81.8281 244.281 103.544 248.893C127.855 254.051 140.38 256.261 139.275 234.525L139.444 234.278Z" fill="#066FAA"/>
<path d="M119.7 221.074L138.607 233.718C138.002 240.644 132.874 246.064 126.641 246.064C124.977 246.064 123.401 245.683 121.954 244.989C117.639 242.898 114.602 238.003 114.602 232.315C114.602 227.673 116.623 223.581 119.7 221.074Z" fill="#BFBABA"/>
<path d="M136.129 294.935C163.523 294.935 189.008 290.09 210.377 281.746V281.895V306.826C189.013 315.149 163.508 320 136.129 320C63.4174 320 3.99331 285.829 0 242.794V233.539V217.729C0.237815 220.395 0.708491 223.051 1.37239 225.642C11.4201 264.876 67.9259 294.935 136.129 294.935Z" fill="#005483"/>
<path d="M130.209 219.186C135.114 220.925 138.666 226.157 138.666 232.316C138.666 232.786 138.651 233.242 138.606 233.718L119.7 221.074C121.662 219.498 124.06 218.567 126.641 218.567C127.88 218.567 129.089 218.79 130.209 219.186Z" fill="#BFBABA"/>
<path d="M139.285 234.525C140.39 256.261 127.865 254.046 103.554 248.893C81.8331 244.281 57.7593 228.501 52.8841 225.201C52.5323 224.096 52.1607 223.269 52.0022 222.917V222.223C52.0468 221.971 52.0617 221.723 52.0617 221.456V216.595L78.5978 227.47L82.7249 229.165C83.1807 229.432 83.6514 229.65 84.1419 229.858C84.1568 229.858 84.1716 229.873 84.1865 229.873C84.6572 230.081 85.1576 230.24 85.658 230.359L121.875 245.197L121.964 244.989C123.406 245.683 124.987 246.064 126.651 246.064C132.884 246.064 138.012 240.644 138.616 233.718L139.459 234.278L139.285 234.525Z" fill="#27B1FF"/>
<path d="M106.502 81.2586C103.39 82.7895 100.948 86.9018 99.9765 92.2229L98.6338 99.5307L94.6702 100.754L93.1096 92.2229C92.624 89.5722 91.7669 87.2139 90.6472 85.3262C89.5275 83.4386 88.1254 82.0266 86.5647 81.2586C89.8198 77.295 92.2822 71.7262 93.6347 65.3002L96.5381 51.5664L99.4414 65.3002C100.12 68.5107 101.076 71.5032 102.256 74.1985C103.45 76.8987 104.876 79.2867 106.502 81.2586Z" fill="#F4F2ED"/>
<path d="M94.6702 100.755L98.6338 99.5308L96.538 110.951L94.6702 100.755Z" fill="#F4F2ED"/>
<path d="M96.7907 205.512L130.253 219.082L130.209 219.186C129.089 218.79 127.88 218.567 126.641 218.567C124.065 218.567 121.662 219.494 119.7 221.074L95.8196 205.116L96.7907 205.512Z" fill="#D2C9C9"/>
<path d="M93.9766 31.9317C93.8428 29.9698 93.6942 28.0128 93.5208 26.0508C93.6099 26.0805 93.6991 26.0954 93.7883 26.1251C95.2053 26.6701 96.5579 28.0871 96.3498 29.5288C96.1565 30.812 94.9179 31.5453 93.9766 31.9317Z" fill="#CBC6BD"/>
<path d="M93.4165 25.0794C93.2233 23.162 93.0202 21.2496 92.7675 19.3471C93.6791 19.3619 94.5809 19.7137 95.2299 20.0555C95.6411 20.2785 96.0722 20.6005 96.0276 20.8978C95.9978 21.1505 96.1762 21.3833 96.4239 21.4279C96.6915 21.4725 96.9243 21.309 96.954 21.0613C97.0432 20.3974 96.5874 19.7632 95.656 19.2777C94.5957 18.7178 93.58 18.4354 92.6486 18.4354C92.5297 17.5238 92.4256 16.5924 92.2968 15.6807C92.2671 15.4281 92.0144 15.2398 91.7667 15.2695C91.4992 15.2844 91.3258 15.5073 91.3703 15.7551C91.5041 16.6815 91.6082 17.613 91.7221 18.5395C90.32 18.8764 89.23 20.0704 89.0417 21.4428C88.8634 22.8152 89.6165 24.3164 90.8551 25.0695C91.4001 25.4064 91.9748 25.5847 92.5495 25.7631C92.7576 27.9134 92.9161 30.0785 93.0499 32.2485C91.623 32.63 90.3695 32.6152 89.3687 32.2188C88.3382 31.8373 87.3077 30.777 87.3919 29.6127C87.4068 29.3601 87.2135 29.1421 86.9509 29.1123C86.6983 29.0826 86.4654 29.261 86.4505 29.5087C86.3316 31.0694 87.5554 32.412 88.8683 32.9867C88.9278 33.0165 88.9872 33.0462 89.0467 33.0611C90.1961 33.5169 91.5685 33.5317 93.1143 33.1651C93.1738 34.27 93.2481 35.3748 93.2927 36.4797C93.3075 36.658 93.4265 36.8166 93.585 36.876C93.6445 36.9057 93.7188 36.9206 93.7931 36.9206C94.0458 36.9206 94.2489 36.7274 94.234 36.4797C94.1894 35.2856 94.1151 34.0916 94.0408 32.9124C95.8839 32.2485 97.0779 31.0842 97.281 29.7019C97.5783 27.7251 95.8541 25.9613 94.1003 25.3123C93.8724 25.2082 93.6345 25.1537 93.4165 25.0794ZM91.7221 10.2407C100.516 10.2407 107.651 17.3851 107.651 26.1694C107.651 34.9784 100.521 42.1129 91.7221 42.1129C82.9279 42.1129 75.7935 34.9834 75.7935 26.1694C75.7935 17.3851 82.923 10.2407 91.7221 10.2407Z" fill="#CBC6BD"/>
<path d="M91.3357 24.3118C90.3944 23.7371 89.8494 22.6174 89.9782 21.5868C90.112 20.6157 90.8601 19.7586 91.8361 19.4663C92.0591 21.2351 92.2622 23.0038 92.4406 24.7874C92.0442 24.6636 91.6776 24.5199 91.3357 24.3118Z" fill="#CBC6BD"/>
<path d="M87.8031 201.875L87.1689 201.608C87.1838 201.563 87.1838 201.519 87.1838 201.474C87.595 201.137 88.036 200.706 88.5116 200.235L95.8195 205.116L93.4463 204.159L87.8031 201.875Z" fill="#5C80CB"/>
<path d="M87.1245 198.174C87.4763 194.934 87.9915 191.397 89.79 188.553C90.1121 188.037 90.4836 187.725 90.7165 187.77C90.9246 187.814 91.1426 188.181 91.2912 188.741C92.0889 192.026 91.0237 195.652 88.596 197.981C88.4325 198.145 88.2294 198.377 87.9767 198.645C87.9024 198.719 87.8132 198.823 87.6992 198.937C87.506 198.774 87.3177 198.6 87.1394 198.437C87.1394 198.353 87.1394 198.263 87.1245 198.174Z" fill="#3F3F44"/>
<path d="M87.2583 199.398C87.4218 199.235 87.5655 199.076 87.6992 198.942C88.051 199.264 88.4375 199.577 88.8487 199.869C88.7298 200.003 88.6109 200.122 88.5118 200.235L87.2583 199.398Z" fill="#AD4D56"/>
<path d="M87.8031 201.875C87.5801 201.89 87.3621 201.905 87.1541 201.935C87.1689 201.831 87.1838 201.712 87.1689 201.613L87.8031 201.875Z" fill="#BA5055"/>
<path d="M87.6993 198.942C87.5655 199.076 87.4169 199.24 87.2583 199.398L87.1989 199.354C87.184 199.046 87.1691 198.749 87.1394 198.442C87.3178 198.605 87.506 198.779 87.6993 198.942Z" fill="#5C80CB"/>
<path d="M93.9766 31.9317C94.9179 31.5502 96.1565 30.812 96.3498 29.5288C96.5579 28.087 95.2003 26.67 93.7883 26.125C93.6991 26.0953 93.6099 26.0804 93.5208 26.0507C93.6942 28.0077 93.8428 29.9697 93.9766 31.9317ZM89.9833 21.5867C89.8495 22.6173 90.3945 23.737 91.3408 24.3117C91.6777 24.5198 92.0493 24.6635 92.4456 24.7824C92.2673 22.9988 92.0641 21.23 91.8412 19.4613C90.8652 19.7585 90.117 20.6157 89.9833 21.5867ZM88.8635 32.9771C87.5506 32.4024 86.3268 31.0597 86.4458 29.499C86.4606 29.2464 86.6984 29.073 86.9462 29.1027C87.2137 29.1324 87.402 29.3554 87.3871 29.6031C87.2979 30.7674 88.3285 31.8276 89.3639 32.2091C90.3647 32.6055 91.6182 32.6204 93.0451 32.2389C92.9114 30.0738 92.7528 27.9086 92.5447 25.7535C91.97 25.5751 91.3953 25.4017 90.8503 25.0598C89.6117 24.3067 88.8635 22.8055 89.037 21.4331C89.2302 20.0608 90.3202 18.8717 91.7173 18.5298C91.5984 17.6033 91.4944 16.6719 91.3656 15.7454C91.321 15.4927 91.4993 15.2747 91.7619 15.2599C92.0146 15.2301 92.2623 15.4234 92.292 15.6711C92.4258 16.5827 92.5299 17.5141 92.6438 18.4258C93.5703 18.4258 94.5909 18.7082 95.6512 19.268C96.5777 19.7536 97.0384 20.3877 96.9493 21.0516C96.9195 21.3043 96.6817 21.4629 96.4191 21.4183C96.1664 21.3737 95.993 21.1359 96.0228 20.8882C96.0674 20.5958 95.6413 20.2688 95.2251 20.0459C94.5761 19.709 93.6793 19.3523 92.7627 19.3374C93.0154 21.2399 93.2185 23.1523 93.4118 25.0697C93.6347 25.144 93.8676 25.2035 94.0905 25.2927C95.8444 25.9417 97.5686 27.7105 97.2713 29.6824C97.0632 31.0696 95.8692 32.2339 94.0311 32.8929C94.1054 34.072 94.1797 35.2661 94.2243 36.4601C94.2392 36.7128 94.0311 36.901 93.7833 36.901C93.709 36.901 93.6347 36.8862 93.5753 36.8564C93.4118 36.797 93.2928 36.6335 93.2829 36.4601C93.2383 35.3552 93.164 34.2504 93.1046 33.1455C91.5588 33.5122 90.1864 33.4973 89.037 33.0415C88.9825 33.0365 88.923 33.0068 88.8635 32.9771Z" fill="#989C9F"/>
<path d="M87.2582 199.398C87.2433 199.413 87.2136 199.443 87.1987 199.458C87.1987 199.428 87.1987 199.383 87.1987 199.354L87.2582 199.398Z" fill="#5C80CB"/>
<path d="M197.248 141.317L186.066 146.489L185.699 162.15L185.506 170.93C187.096 171.415 188.275 173.154 188.275 175.215C188.275 176.112 188.052 176.954 187.656 177.663C190.693 183.955 189.013 200.265 189.013 200.265C187.26 201.722 185.094 202.475 182.914 202.475C181.691 202.475 180.452 202.237 179.273 201.751L178.332 201.37C178.332 201.37 177.846 183.94 181.468 177.544C181.116 176.865 180.908 176.072 180.908 175.215C180.908 173.006 182.265 171.162 184.029 170.855L184.237 161.338L184.559 147.178L170.434 153.708L163.865 156.745L142.233 166.748L126.79 159.955L120.468 157.171L84.1915 141.198L83.6614 140.96V170.662V187.943C83.8843 188.236 84.0726 188.533 84.2361 188.81C85.1031 190.252 85.8116 191.907 86.2972 193.656C86.7232 191.61 87.402 189.588 88.5514 187.76C89.4779 186.289 90.4688 186.214 90.9841 186.318C91.5737 186.422 92.3565 186.878 92.7231 188.394C93.6347 192.165 92.4308 196.351 89.6315 199.031C89.4829 199.18 89.2798 199.383 89.0568 199.636C88.9825 199.71 88.9082 199.785 88.8487 199.859C90.2905 200.979 92.0295 202.024 94.0063 203.01C104.336 208.167 121.415 211.527 140.742 211.527C157.979 211.527 173.437 208.846 183.9 204.615C192.581 201.107 197.823 196.539 197.823 191.53H197.852V168.839V141.019L197.248 141.317Z" fill="#3F3F44"/>
<path d="M85.3855 196.435C85.871 197.114 86.4606 197.778 87.1394 198.437C87.1691 198.744 87.184 199.041 87.1988 199.348L85.6233 198.303C85.6382 198.273 85.6382 198.229 85.6382 198.199C85.5787 197.614 85.5044 197.01 85.3855 196.435Z" fill="#AD4D56"/>
<path d="M87.1541 202.024C86.6834 202.083 86.2276 202.157 85.752 202.247C85.752 202.247 85.752 202.232 85.7371 202.232C85.6777 202.247 85.6034 202.247 85.5291 202.247C86.0592 202.098 86.5893 201.994 87.1492 201.939C87.1492 201.954 87.1492 201.969 87.1492 201.984V202.024H87.1541Z" fill="#AD4D56"/>
<path d="M85.752 202.242C86.2226 202.153 86.6785 202.078 87.1541 202.019V201.974C87.1541 201.959 87.1541 201.944 87.1541 201.93C87.3622 201.9 87.5802 201.885 87.8031 201.87L93.4463 204.154L95.8195 205.11L119.705 221.069C116.623 223.576 114.607 227.668 114.607 232.31C114.607 237.998 117.644 242.888 121.959 244.984L121.87 245.192L85.6529 230.353L84.5778 229.912L82.7198 229.159C78.6076 226.771 75.7935 221.896 75.7935 216.283C75.7935 210.228 79.0486 205.056 83.6612 202.92C84.2508 202.643 84.8701 202.405 85.5191 202.242C85.534 202.242 85.534 202.242 85.534 202.242C85.6083 202.242 85.6826 202.242 85.7421 202.227C85.752 202.227 85.752 202.242 85.752 202.242Z" fill="#D2C9C9"/>
<path d="M87.1541 201.935C86.5943 201.994 86.0642 202.098 85.534 202.242C85.534 202.242 85.534 202.242 85.5192 202.242C85.4894 202.242 85.4746 202.242 85.4449 202.242C84.8553 202.212 84.3251 201.845 83.8396 201.286C84.444 201.167 85.0782 201.122 85.7124 201.122C85.8016 201.122 85.8759 201.122 85.9651 201.122H85.9799L87.174 201.608C87.1839 201.712 87.169 201.831 87.1541 201.935Z" fill="#AD4D56"/>
<path d="M83.6612 200.196L85.9601 201.122C85.8709 201.122 85.7966 201.122 85.7074 201.122C85.0732 201.122 84.4391 201.167 83.8346 201.286C83.7752 201.226 83.7157 201.152 83.6562 201.093V200.196H83.6612Z" fill="#AD4D56"/>
<path d="M84.5729 229.913L85.648 230.354C85.1476 230.235 84.6472 230.076 84.1765 229.868C84.3103 229.883 84.4441 229.898 84.5729 229.913Z" fill="#D2C9C9"/>
<path d="M83.8397 201.286C84.3253 201.846 84.8554 202.212 85.445 202.242C85.4747 202.242 85.4896 202.242 85.5193 202.242C84.8703 202.405 84.251 202.638 83.6614 202.921V201.315C83.7208 201.301 83.7803 201.286 83.8397 201.286Z" fill="#BA5055"/>
<path d="M83.6614 190.866C84.4739 192.531 85.0635 194.433 85.3855 196.435C84.2658 194.874 83.6614 193.239 83.6614 191.545V190.866Z" fill="#3F3F44"/>
<path d="M86.297 193.666C86.7231 191.62 87.4018 189.598 88.5513 187.77C89.4778 186.298 90.4687 186.224 90.9839 186.328C91.5735 186.432 92.3563 186.888 92.7229 188.404C93.6346 192.174 92.4257 196.361 89.6264 199.041C89.4778 199.19 89.2746 199.393 89.0517 199.646C88.9774 199.72 88.903 199.794 88.8436 199.869C88.4324 199.576 88.0459 199.264 87.6941 198.942C87.8131 198.823 87.9022 198.719 87.9716 198.65C88.2243 198.382 88.4274 198.15 88.5909 197.986C91.0236 195.657 92.0838 192.036 91.2861 188.746C91.1375 188.186 90.9195 187.819 90.7114 187.775C90.4736 187.73 90.107 188.042 89.7849 188.558C87.9865 191.402 87.4712 194.939 87.1194 198.179C87.1343 198.268 87.1343 198.358 87.1343 198.447C86.4555 197.783 85.8659 197.119 85.3804 196.445C85.0584 194.444 84.4688 192.541 83.6562 190.876V187.958C83.8792 188.25 84.0675 188.548 84.231 188.825C85.103 190.262 85.8114 191.917 86.297 193.666Z" fill="#AD4D56"/>
<path d="M83.6614 138.473C83.6614 139.399 83.8397 140.301 84.1915 141.198L83.6614 140.96V138.473Z" fill="#343438"/>
<path d="M83.6614 201.092C83.7208 201.152 83.7803 201.226 83.8397 201.286C83.7803 201.286 83.7208 201.3 83.6614 201.315V201.092Z" fill="#D2C9C9"/>
<path d="M192.194 102.137L189.851 114.88L187.23 100.526L142.6 86.0742L98.6337 99.5256L96.5429 110.946L94.6701 100.749L34.2998 119.23L78.8109 138.825L83.6563 140.96V138.468C83.6563 139.394 83.8347 140.296 84.1865 141.193L120.463 157.166L126.785 159.95L142.228 166.743L163.859 156.74L170.429 153.703L184.559 147.178L184.574 146.529L161.323 132.666L143.363 121.94C142.55 122.321 141.594 122.544 140.563 122.544C137.616 122.544 135.228 120.731 135.228 118.491C135.228 116.252 137.616 114.439 140.563 114.439C143.526 114.439 145.909 116.252 145.909 118.491C145.909 119.448 145.468 120.334 144.73 121.028L164.945 133.112L186.075 145.711L186.06 146.494L197.243 141.322L197.847 141.044L199.056 140.484L244.999 119.24L192.194 102.137Z" fill="#343438"/>
<path d="M82.72 229.165L84.5779 229.918C84.4441 229.903 84.3104 229.888 84.1815 229.873C84.1667 229.873 84.1518 229.858 84.137 229.858C83.6465 229.65 83.1758 229.427 82.72 229.165Z" fill="#D2C9C9"/>
<path d="M85.6231 198.308C85.6082 198.561 85.5785 198.794 85.5488 199.046L85.5191 199.339C85.4596 199.765 85.415 200.25 85.415 200.741C85.1078 200.607 84.5628 200.003 83.5422 198.105L83.2895 197.649C83.0369 197.208 82.804 196.752 82.5811 196.277L85.6231 198.308Z" fill="#5C80CB"/>
<path d="M82.834 199.854L83.6614 200.191V201.088C83.3691 200.726 83.1015 200.315 82.834 199.854Z" fill="#AD4D56"/>
<path d="M85.6233 198.308L87.1989 199.353C87.1989 199.383 87.1989 199.428 87.1989 199.457C87.2137 199.442 87.2434 199.413 87.2583 199.398L88.5118 200.24C88.0411 200.711 87.6002 201.137 87.184 201.479C87.184 201.523 87.184 201.568 87.1691 201.613L85.9751 201.127H85.9602L83.6614 200.201L82.834 199.864C82.6259 199.527 82.4376 199.17 82.2444 198.803L82.0066 198.377C81.3724 197.243 80.8125 196.049 80.3716 194.81L82.5813 196.282C82.8042 196.752 83.0371 197.208 83.2898 197.654L83.5424 198.11C84.5581 200.012 85.1031 200.617 85.4152 200.746C85.4152 200.26 85.4598 199.774 85.5193 199.343L85.549 199.051C85.5787 198.793 85.6085 198.561 85.6233 198.308Z" fill="#AD4D56"/>
<path d="M85.3853 196.435C85.5042 197.01 85.5785 197.614 85.638 198.204C85.638 198.234 85.638 198.278 85.6231 198.308L82.586 196.276C81.496 194.007 80.8024 191.56 80.5398 189.102C80.4655 188.409 80.6141 187.646 80.9362 187.586C81.0551 187.571 81.2582 187.646 81.496 187.809C82.1153 188.25 82.586 188.959 82.9675 189.578C83.2202 189.989 83.453 190.42 83.6611 190.876V191.555C83.6611 193.239 84.2656 194.874 85.3853 196.435Z" fill="#5C80CB"/>
<path d="M82.9677 189.573C82.5862 188.954 82.1155 188.246 81.4962 187.805C81.2584 187.641 81.0553 187.567 80.9364 187.582C80.6143 187.641 80.4657 188.409 80.54 189.098C80.8075 191.56 81.4962 194.003 82.5862 196.272L80.3765 194.8C79.7275 193.002 79.2865 191.129 79.0784 189.261C78.8852 187.552 79.5342 186.313 80.6986 186.14C81.2287 186.051 81.7737 186.214 82.3335 186.596C82.8785 186.977 83.3046 187.463 83.6613 187.953V190.872C83.4532 190.411 83.2204 189.985 82.9677 189.573Z" fill="#AD4D56"/>
<path d="M257.454 201.786V207.93V214.147C257.454 214.588 257.41 215 257.306 215.416C257.098 216.327 256.657 217.199 256.023 218.022C253.075 221.867 245.841 224.592 237.384 224.592C226.32 224.592 217.328 219.919 217.328 214.143V207.925V202.787C211.289 201.3 207.102 198.085 207.102 194.359V189.791C207.102 189.747 207.102 189.717 207.102 189.672V185.015V180.447C207.102 180.402 207.102 180.373 207.102 180.328V175.656C207.102 175.319 207.132 174.992 207.191 174.67C207.161 174.7 207.117 174.715 207.102 174.759V173.962L197.847 168.849V191.54H197.817C197.817 196.549 192.571 201.117 183.895 204.625C173.431 208.856 157.978 211.536 140.737 211.536C121.404 211.536 104.326 208.177 94.0011 203.02C92.0243 202.034 90.2902 200.988 88.8435 199.869C88.7246 200.002 88.6057 200.121 88.5066 200.235L95.8194 205.115L96.7905 205.512L130.253 219.082L130.208 219.186C135.113 220.925 138.666 226.157 138.666 232.316C138.666 232.786 138.651 233.242 138.606 233.718L139.444 234.278L165.613 251.752V247.907C165.613 246.436 166.099 245.019 166.971 243.721C168.829 240.966 172.495 238.727 177.122 237.458C179.773 236.735 182.751 236.324 185.887 236.324C197.084 236.324 206.146 241.511 206.146 247.907V252.872C206.146 259.268 197.084 264.455 185.887 264.455C185.446 264.455 185.005 264.44 184.574 264.426L210.372 281.667L210.461 281.727C216.312 279.443 221.837 276.896 227.009 274.121C228.188 273.472 229.382 272.809 230.606 272.105C235.437 269.291 240.535 265.932 245.489 262.013C245.623 261.894 245.742 261.79 245.871 261.706C258.688 251.286 267.487 238.999 270.906 225.652C271.674 222.689 272.159 219.687 272.362 216.62V210.05L257.454 201.786Z" fill="#27B1FF"/>
<path d="M80.3764 194.8C79.7273 193.002 79.2864 191.129 79.0783 189.261C78.8851 187.552 79.5341 186.313 80.6984 186.14C81.2286 186.051 81.7735 186.214 82.3334 186.596C82.8784 186.977 83.3045 187.463 83.6612 187.953V170.672L54.9302 177.801L80.3764 194.8Z" fill="#27B1FF"/>
<path d="M75.7936 216.283C75.7936 221.896 78.6077 226.772 82.72 229.16L78.5929 227.465C75.2635 224.859 73.0835 220.494 73.0835 215.545C73.0835 208.371 77.6664 202.415 83.6613 201.311V202.916C79.0487 205.056 75.7936 210.229 75.7936 216.283Z" fill="#BA5055"/>
<path d="M78.5928 227.47L52.0566 216.595V216.035V215.238V209.035V204.07C52.0566 202.643 51.5116 201.286 50.5257 200.047C49.0394 198.189 46.5175 196.584 43.3665 195.464C42.0089 194.979 40.5375 194.582 38.9768 194.285C41.0081 190.014 44.9717 187.126 49.5249 187.126C50.5108 187.126 51.4869 187.26 52.4134 187.522L54.6379 188.419L82.8388 199.854C83.1064 200.31 83.3689 200.721 83.6662 201.093V201.316C77.6713 202.42 73.0884 208.376 73.0884 215.55C73.0835 220.499 75.2634 224.859 78.5928 227.47Z" fill="#D2C9C9"/>
<path d="M51.9973 222.917C52.1608 223.269 52.5274 224.096 52.8792 225.201C52.2896 224.805 51.9824 224.582 51.9824 224.582L51.9973 222.917Z" fill="#5C80CB"/>
<path d="M52.0566 216.035V216.595L52.0417 216.58L52.0566 216.035Z" fill="#D6AD00"/>
<path d="M51.8931 216.521C52.012 216.109 52.0566 215.668 52.0566 215.237V216.035L52.0417 216.58L51.8931 216.521Z" fill="#D6AD00"/>
<path d="M52.0565 221.455C52.0565 221.723 52.0417 221.971 51.9971 222.223L52.0417 216.58L52.0565 216.595V221.455Z" fill="#D6AD00"/>
<path d="M51.908 222.724C51.9525 222.56 51.9823 222.402 51.9971 222.223V222.917C51.9377 222.783 51.908 222.724 51.908 222.724Z" fill="#5C80CB"/>
<path d="M48.3706 215.079C49.5795 214.182 50.5209 213.191 51.155 212.146C51.155 212.131 51.155 212.131 51.155 212.131C51.7446 211.16 52.0518 210.115 52.0518 209.035V215.238C52.0518 215.664 52.0072 216.105 51.8883 216.521L48.3706 215.079Z" fill="#BF9A00"/>
<path d="M51.6455 223.566C51.6901 223.492 51.7198 223.417 51.7347 223.328C51.705 223.402 51.6752 223.477 51.6455 223.566Z" fill="#D6AD00"/>
<path d="M51.6455 223.566C49.4655 229.501 39.8291 231.211 39.8291 231.211C39.2246 231.285 38.635 231.359 38.0603 231.404C43.7926 230.463 48.4201 228.223 50.6298 225.335C51.0708 224.77 51.4077 224.165 51.6455 223.566Z" fill="#5C80CB"/>
<path d="M48.9452 209.669C50.0947 208.713 50.9617 207.667 51.477 206.548C51.8585 205.765 52.0517 204.927 52.0517 204.07V209.035C52.0517 210.11 51.7445 211.155 51.1549 212.131C51.1549 212.131 51.1549 212.131 51.1549 212.146C50.5208 213.192 49.5794 214.177 48.3705 215.079L45.378 213.855L45.3929 213.811C44.6695 213.504 43.9809 213.132 43.3467 212.676C45.5712 211.879 47.5035 210.848 48.9452 209.669Z" fill="#DBB100"/>
<path d="M43.3465 212.676C42.8164 212.324 42.3011 211.908 41.8305 211.438C42.1376 211.334 42.2417 211.13 42.0831 210.952C41.2557 210.125 40.3887 209.317 39.5365 208.505C39.4919 208.445 39.4622 208.386 39.4325 208.326C41.5827 207.058 42.5142 205.69 41.8503 204.571C41.2607 203.555 39.5514 202.936 37.6043 202.683C37.53 202.093 37.5002 201.489 37.5002 200.885C37.5002 198.496 38.0304 196.242 38.9717 194.285C40.5324 194.577 42.0088 194.979 43.3614 195.464C46.5124 196.584 49.0343 198.189 50.5206 200.047C51.5066 201.286 52.0516 202.638 52.0516 204.07C52.0516 204.922 51.8583 205.765 51.4768 206.547C50.9616 207.667 50.0896 208.713 48.9451 209.669C47.5033 210.848 45.5711 211.879 43.3465 212.676Z" fill="#FFCE00"/>
<path d="M42.0833 210.952C42.2468 211.13 42.1427 211.333 41.8306 211.437C40.9487 210.595 40.1659 209.609 39.5317 208.504C40.3889 209.317 41.2559 210.125 42.0833 210.952Z" fill="#CEA600"/>
<path d="M40.4038 204.838C40.9488 205.779 39.948 206.755 38.962 207.429C38.3873 206.22 37.9612 204.907 37.7383 203.525C38.9868 203.763 40.0322 204.204 40.4038 204.838Z" fill="#FFCE00"/>
<path d="M40.4038 204.838C40.0371 204.204 38.9868 203.763 37.7383 203.525C37.6788 203.242 37.6342 202.965 37.6045 202.683C39.5516 202.935 41.2609 203.55 41.8505 204.57C42.5144 205.69 41.5829 207.062 39.4327 208.326C39.2543 208.033 39.0958 207.736 38.962 207.429C39.943 206.75 40.9488 205.779 40.4038 204.838Z" fill="#CEA600"/>
<path d="M39.5317 208.505C39.4722 208.46 39.4276 208.4 39.3682 208.356C39.383 208.341 39.4128 208.326 39.4276 208.326C39.4573 208.386 39.4871 208.445 39.5317 208.505Z" fill="#FFCE00"/>
<path d="M34.4187 203.347C35.5087 203.273 36.6879 203.332 37.7333 203.525C37.9562 204.913 38.3823 206.22 38.957 207.429C38.8381 207.504 38.7341 207.578 38.635 207.652C37.1189 206.225 35.5682 204.808 33.9778 203.406C34.1264 203.391 34.2701 203.362 34.4187 203.347Z" fill="#FFCE00"/>
<path d="M20.9226 230.15C24.7673 231.493 30.237 232.211 37.9858 231.419C36.0833 231.726 34.0817 231.889 31.9909 231.889C27.9084 231.889 24.0885 231.255 20.9226 230.15Z" fill="#D6AD00"/>
<path d="M11.9353 204.07C11.9353 198.293 20.9227 193.621 31.991 193.621C34.4534 193.621 36.7919 193.859 38.9769 194.285C38.0355 196.247 37.5054 198.501 37.5054 200.884C37.5054 201.489 37.5351 202.093 37.6094 202.683C36.5343 202.534 35.37 202.504 34.3097 202.594C33.9282 202.623 33.5567 202.668 33.19 202.713C31.6145 201.34 30.0092 200.002 28.3743 198.66C29.6872 198.293 31.2181 198.189 32.3973 198.174C33.1207 198.159 33.9431 198.234 34.0917 198.467C34.2106 198.675 34.6367 198.774 35.0331 198.704C35.4294 198.615 35.6524 198.397 35.5335 198.204C35.2263 197.659 34.1165 197.377 32.4518 197.391C30.5493 197.421 28.8994 197.644 27.5915 198.026C26.7789 197.377 26.0011 196.728 25.1885 196.079C24.9656 195.915 24.4949 195.87 24.1431 196.004C23.7914 196.123 23.6873 196.356 23.9053 196.534C24.7179 197.183 25.5106 197.832 26.3231 198.481C26.3083 198.496 26.3082 198.496 26.3082 198.496C24.5246 199.324 23.7567 200.676 24.4355 201.796C25.1142 202.901 27.1901 203.713 29.5039 203.768C30.4898 203.798 31.451 203.694 32.3775 203.575C34.1462 205.12 35.8555 206.681 37.5202 208.262C35.7218 209.129 33.9233 209.664 32.1991 209.778C30.4601 209.911 28.2653 209.54 27.6014 208.628C27.4527 208.435 27.0267 208.346 26.6303 208.435C26.2339 208.524 26.0407 208.742 26.1745 208.935C27.0712 210.159 29.7417 210.674 32.0257 210.556C32.1149 210.556 32.2189 210.541 32.3032 210.541C34.28 210.392 36.2519 209.847 38.2287 208.921C39.071 209.733 39.9083 210.526 40.7357 211.338C40.8695 211.472 41.1469 211.546 41.4293 211.532C41.5334 211.517 41.6374 211.502 41.7365 211.472C41.7811 211.457 41.8108 211.457 41.8405 211.427C42.3112 211.898 42.8265 212.309 43.3566 212.666C43.2823 212.696 43.1931 212.726 43.1188 212.755C39.938 213.86 36.1181 214.494 31.996 214.494C31.9068 214.494 31.8325 214.494 31.7433 214.494C27.7203 214.479 24.0094 213.83 20.8831 212.755C18.5396 211.943 16.5677 210.883 15.0616 209.659C14.0459 208.816 13.2482 207.92 12.7181 206.949C12.6289 206.815 12.5695 206.681 12.51 206.537C12.1434 205.765 11.9353 204.927 11.9353 204.07Z" fill="#FFCE00"/>
<path d="M31.5748 202.891C30.9258 202.965 30.2916 203.025 29.6723 203.01C27.9333 202.965 26.3726 202.346 25.8722 201.523C25.3867 200.726 25.902 199.769 27.1109 199.135C28.6269 200.374 30.1182 201.637 31.5748 202.891Z" fill="#FFCE00"/>
<path d="M27.1109 199.136C25.902 199.77 25.3868 200.726 25.8723 201.524C26.3727 202.351 27.9334 202.965 29.6724 203.01C30.2917 203.025 30.9259 202.965 31.5749 202.891C30.1183 201.638 28.627 200.374 27.1109 199.136ZM24.1333 196.009C24.4851 195.876 24.9607 195.92 25.1787 196.084C25.9912 196.733 26.7691 197.382 27.5816 198.031C28.8945 197.649 30.5444 197.426 32.442 197.397C34.1067 197.382 35.2115 197.664 35.5236 198.209C35.6426 198.402 35.4196 198.62 35.0232 198.71C34.6269 198.784 34.1958 198.68 34.0819 198.472C33.9333 198.234 33.1108 198.165 32.3875 198.179C31.2083 198.194 29.6774 198.298 28.3644 198.665C29.9994 200.008 31.6047 201.345 33.1802 202.718C33.5468 202.673 33.9184 202.629 34.2999 202.599C35.3601 202.51 36.5245 202.539 37.5996 202.688C37.6293 202.97 37.6739 203.248 37.7333 203.53C36.688 203.337 35.5088 203.278 34.4188 203.352C34.2702 203.367 34.1265 203.397 33.9778 203.411C35.5682 204.813 37.114 206.226 38.6351 207.657C38.7391 207.583 38.8431 207.509 38.9571 207.434C39.0909 207.742 39.2494 208.039 39.4278 208.331C39.4129 208.331 39.3832 208.346 39.3683 208.361C39.4278 208.405 39.4724 208.465 39.5318 208.51C40.166 209.614 40.9438 210.6 41.8307 211.443C41.801 211.472 41.7712 211.472 41.7267 211.487C41.6226 211.517 41.5186 211.532 41.4195 211.547C41.1371 211.562 40.8596 211.487 40.7258 211.353C39.8985 210.541 39.0611 209.748 38.2189 208.936C36.242 209.862 34.2702 210.407 32.2933 210.556C32.2041 210.556 32.1001 210.571 32.0159 210.571C29.7319 210.69 27.0663 210.174 26.1646 208.95C26.0309 208.757 26.2241 208.539 26.6204 208.45C27.0168 208.361 27.4478 208.45 27.5915 208.643C28.2554 209.555 30.4503 209.927 32.1893 209.793C33.9134 209.674 35.7119 209.144 37.5104 208.277C35.8457 206.701 34.1364 205.141 32.3676 203.59C31.4412 203.709 30.48 203.813 29.494 203.783C27.1803 203.724 25.1044 202.916 24.4256 201.811C23.7468 200.691 24.5148 199.334 26.2984 198.511C26.2984 198.511 26.2984 198.511 26.3133 198.497C25.5007 197.848 24.708 197.198 23.8955 196.549C23.6775 196.366 23.7815 196.128 24.1333 196.009Z" fill="#CEA600"/>
<path d="M12.718 206.959C12.614 206.914 12.4951 206.869 12.396 206.855C12.4257 206.75 12.4703 206.646 12.5149 206.547C12.5694 206.691 12.6289 206.825 12.718 206.959Z" fill="#5C80CB"/>
<path d="M12.8469 218.349C15.3836 222.59 22.9987 225.686 31.9861 225.686C37.6292 225.686 42.7423 224.477 46.3689 222.52C48.5489 221.356 50.2136 219.929 51.1599 218.349C51.5117 217.774 51.7644 217.155 51.8981 216.521L52.0468 216.58L52.0022 222.223C51.9873 222.401 51.9576 222.56 51.913 222.724C51.8684 222.932 51.809 223.135 51.7346 223.328C51.7198 223.417 51.6901 223.491 51.6455 223.566C51.4076 224.17 51.0707 224.775 50.6298 225.335C48.4201 228.223 43.7926 230.462 38.0603 231.404C38.0306 231.419 38.0157 231.419 37.986 231.419C30.2372 232.216 24.7674 231.493 20.9227 230.15C12.7032 227.247 11.9353 221.455 11.9353 221.455V215.237C11.9353 216.312 12.2425 217.373 12.8469 218.349Z" fill="#D6AD00"/>
<path d="M12.718 206.959C13.2481 207.93 14.0458 208.832 15.0614 209.669C16.5626 210.893 18.5395 211.953 20.883 212.765C24.0043 213.84 27.7201 214.49 31.7432 214.504C31.8324 214.504 31.9067 214.504 31.9959 214.504C36.1229 214.504 39.9379 213.87 43.1187 212.765C43.193 212.736 43.2822 212.706 43.3565 212.676C43.9906 213.132 44.6843 213.504 45.4027 213.811L45.3878 213.855L48.3803 215.079C48.306 215.139 48.2317 215.198 48.1425 215.257C46.022 216.729 43.1633 217.923 39.8487 218.661C37.4309 219.191 34.7951 219.489 31.9959 219.489C25.3816 219.489 19.5155 217.824 15.8641 215.257C14.5511 214.316 13.5206 213.271 12.8567 212.151V212.136C12.2522 211.165 11.9451 210.12 11.9451 209.04V206.711V204.075C11.9451 204.927 12.1532 205.77 12.5198 206.552C12.4752 206.656 12.4306 206.761 12.4009 206.86C12.495 206.87 12.6139 206.914 12.718 206.959Z" fill="#DBB100"/>
<path d="M12.8468 212.146C13.5107 213.265 14.5412 214.311 15.8541 215.252C19.5105 217.814 25.3717 219.483 31.9859 219.483C34.7852 219.483 37.421 219.191 39.8388 218.656C43.1533 217.918 46.012 216.724 48.1326 215.252C48.2217 215.193 48.2961 215.133 48.3704 215.074L51.893 216.516C51.7592 217.15 51.5115 217.769 51.1548 218.344C50.2134 219.919 48.5487 221.351 46.3638 222.515C42.7371 224.477 37.6241 225.681 31.981 225.681C22.9935 225.681 15.3735 222.585 12.8418 218.344C12.2374 217.373 11.9302 216.312 11.9302 215.232V209.029C11.9302 210.104 12.2374 211.15 12.8418 212.126V212.146H12.8468Z" fill="#BF9A00"/>
<path d="M11.9353 221.456C11.9353 221.456 12.7032 227.247 20.9227 230.151C15.5174 228.293 11.9353 225.097 11.9353 221.456Z" fill="#D6AD00"/>
<path d="M42.0386 240.05C23.9895 241.155 10.9344 236.75 11.9352 221.456C11.9352 225.097 15.5173 228.293 20.9226 230.151C24.0885 231.256 27.9085 231.89 31.986 231.89C34.0768 231.89 36.0833 231.726 37.9809 231.419C38.0106 231.419 38.0255 231.419 38.0552 231.404C38.6299 231.36 39.2195 231.285 39.824 231.211C39.824 231.211 49.4604 229.502 51.6404 223.566C51.6701 223.477 51.6999 223.403 51.7296 223.328C51.8039 223.135 51.8634 222.932 51.908 222.724C51.908 222.724 51.9377 222.783 51.9971 222.917L51.9823 224.582C51.9823 224.582 52.2895 224.805 52.879 225.201C54.3406 229.784 55.6535 239.212 42.0386 240.05Z" fill="#27B1FF"/>
<path d="M165.435 254.784C165.435 254.784 171.712 265.644 185.887 264.45L195.271 267.676C195.276 267.681 168.016 273.938 165.435 254.784Z" fill="#27B1FF"/>
<path d="M5.86109 249.096C5.87595 252.371 5.88586 255.646 5.90072 258.921C5.90568 260.204 10.1764 259.412 10.1715 257.777C10.1566 254.502 10.1467 251.227 10.1319 247.952C10.1269 246.669 5.85613 247.461 5.86109 249.096Z" fill="#1C80B8"/>
<path d="M23.6129 265.788C24.1232 270.203 24.2669 274.617 24.0439 279.051C24.0043 279.804 28.2453 279.249 28.3147 277.907C28.5327 273.468 28.389 269.058 27.8837 264.644C27.7747 263.707 23.4742 264.564 23.6129 265.788Z" fill="#1C80B8"/>
<path d="M45.175 279.546C45.5069 282.821 45.8438 286.096 46.1758 289.366C46.3442 291.021 50.6298 290.045 50.4465 288.222C50.1146 284.947 49.7777 281.672 49.4457 278.402C49.2773 276.747 44.9867 277.728 45.175 279.546Z" fill="#1C80B8"/>
<path d="M82.0264 294.281C82.6952 298.185 83.0173 302.109 82.9974 306.068C82.9925 307.262 87.2583 306.504 87.2682 304.923C87.288 300.96 86.961 297.041 86.2971 293.137C86.0643 291.794 81.7737 292.795 82.0264 294.281Z" fill="#1C80B8"/>
<path d="M108.592 297.715C109.221 302.63 109.851 307.544 110.48 312.459C110.614 313.49 114.914 312.598 114.751 311.315C114.121 306.4 113.492 301.485 112.863 296.57C112.729 295.535 108.424 296.427 108.592 297.715Z" fill="#1C80B8"/>
<path d="M135.034 299.687C135.53 304.433 136.02 309.18 136.516 313.931C136.64 315.135 140.935 314.243 140.786 312.786C140.291 308.04 139.801 303.294 139.305 298.542C139.181 297.338 134.886 298.23 135.034 299.687Z" fill="#1C80B8"/>
<path d="M168.239 297.779C168.279 297.72 168.319 297.66 168.363 297.601C167.134 297.928 165.906 298.26 164.677 298.587C165.361 298.973 165.222 305.28 165.276 306.029C165.45 308.501 165.623 310.973 165.797 313.45C165.911 315.09 170.196 314.139 170.067 312.306C169.84 309.071 169.612 305.84 169.389 302.605C169.265 300.816 169.84 297.363 168.031 296.343C166.867 295.689 165.068 296.273 164.345 297.329C164.305 297.388 164.266 297.447 164.221 297.507C163.012 299.271 167.338 299.107 168.239 297.779Z" fill="#1C80B8"/>
<path d="M190.539 293.241C191.124 298.319 191.406 303.407 191.377 308.52C191.372 309.65 195.637 308.917 195.647 307.376C195.677 302.263 195.4 297.175 194.81 292.096C194.666 290.853 190.366 291.769 190.539 293.241Z" fill="#1C80B8"/>
<path d="M221.336 281.444C221.946 284.555 222.129 287.672 221.891 290.833C221.837 291.576 226.058 291.061 226.162 289.688C226.4 286.527 226.217 283.411 225.607 280.3C225.409 279.269 221.108 280.27 221.336 281.444Z" fill="#27B1FF"/>
<path d="M238.677 273.656C239.168 276.767 239.658 279.879 240.149 282.99C240.426 284.739 244.712 283.699 244.419 281.846C243.929 278.734 243.438 275.623 242.948 272.511C242.67 270.762 238.385 271.803 238.677 273.656Z" fill="#27B1FF"/>
<path d="M250.692 263.831C250.692 266.125 250.692 268.414 250.697 270.708C250.697 271.615 254.967 270.946 254.967 269.564C254.967 267.27 254.967 264.981 254.967 262.687C254.962 261.78 250.692 262.449 250.692 263.831Z" fill="#27B1FF"/>
<path d="M263.742 249.096C263.742 250.895 263.742 252.698 263.742 254.497C263.742 255.27 268.012 254.64 268.012 253.352C268.012 251.554 268.012 249.75 268.012 247.952C268.012 247.179 263.742 247.808 263.742 249.096Z" fill="#27B1FF"/>
</g>
<defs>
<clipPath id="clip0_1969_7899">
<rect width="272.496" height="320" fill="white"/>
</clipPath>
</defs>
</svg>
