<svg width="79" height="82" viewBox="0 0 79 82" fill="none" xmlns="http://www.w3.org/2000/svg">
<path d="M44.2452 42.9813C44.2452 42.9813 42.2347 38.7392 42.0937 36.0303H36.361C36.22 38.7392 34.2095 42.9813 34.2095 42.9813C39.1286 47.215 38.5702 52.5046 38.5702 52.5046H39.0667V43.8601C38.4207 43.7811 37.921 43.2312 37.921 42.5638C37.921 41.842 38.5061 41.258 39.2268 41.258C39.9476 41.258 40.5327 41.842 40.5327 42.5638C40.5327 43.2312 40.033 43.7811 39.387 43.8601V52.5046H39.8835C39.8846 52.5046 39.3272 47.215 44.2452 42.9813Z" fill="#013046"/>
<path d="M42.3778 33.6909H36.0653V35.3096H42.3778V33.6909Z" fill="#013046"/>
<path d="M70.716 43.202C68.1342 40.4013 65.2886 37.8249 62.1409 35.6765C59.7523 34.0472 57.1791 32.6473 54.4424 31.7003C52.1265 30.8984 49.739 30.5983 47.3024 30.3784C44.191 30.0976 41.0443 30.1275 37.9521 30.5759C37.9115 30.5812 37.871 30.5866 37.8325 30.5941C37.7418 30.6069 37.6531 30.6208 37.5624 30.6346C34.8247 31.0639 32.1393 31.8284 29.6076 32.9559C27.344 33.9617 25.2139 35.2527 23.2663 36.7827C23.2289 36.8116 23.1915 36.8425 23.1531 36.8735C22.2306 37.6038 21.3507 38.3876 20.5158 39.2172C20.125 39.6037 19.7438 40.0009 19.3733 40.4077C19.0295 40.7825 18.6952 41.1648 18.3685 41.5545C18.2767 41.6645 18.1859 41.7745 18.0941 41.8845C17.6948 42.3756 17.3061 42.8785 16.9303 43.3889C16.4861 43.9943 16.06 44.6136 15.6522 45.2425C15.3393 45.7251 15.0361 46.2152 14.7435 46.7107C13.7986 48.3155 12.9593 49.9833 12.2226 51.6938C11.6235 53.0841 11.0918 54.5031 10.6327 55.9435C10.3209 56.9183 10.0411 57.9028 9.8041 58.899C9.79022 58.9577 9.58949 59.9999 9.56706 59.9999H1.07312C1.08273 59.9999 1.51944 57.8313 1.55147 57.6935C1.91878 56.1015 2.2658 54.4935 2.71105 52.9218C3.4179 50.4275 4.52195 47.9781 5.75093 45.7241C8.67976 40.3565 12.8162 35.6691 17.7065 32.0056C17.8079 31.9288 17.9094 31.8529 18.0108 31.7771C18.0877 31.7216 18.1656 31.664 18.2415 31.6084C18.2585 31.5978 18.2735 31.5849 18.2906 31.5732C24.2881 27.2371 31.8424 25.5949 39.0935 25.4326C45.4466 25.2906 51.7816 26.7021 57.336 29.8285C58.2169 30.3239 59.0754 30.8599 59.9114 31.4322C60.0566 31.5315 60.1997 31.6309 60.3428 31.7344C60.4442 31.807 60.5457 31.8796 60.6471 31.9544C63.2246 33.8197 65.5481 36.0385 67.548 38.5114C68.415 39.5813 69.2254 40.7014 69.9504 41.8727C70.196 42.2688 70.3999 42.8604 70.716 43.202Z" fill="#FDB614"/>
<path d="M60.6482 20.2903C60.6482 20.2903 52.2845 12.9783 36.2042 16.7571C36.2042 16.7571 52.3828 15.589 60.6482 22.3916V20.2903Z" fill="white"/>
<path d="M74.8353 25.7082C74.8353 25.3911 74.6452 25.1188 74.374 24.9971V16.517L78.8874 15.2763L39.2152 0L0 14.8193L18.0108 19.8356V30.0678C23.4841 26.3093 30.7437 24.2283 39.0636 24.0404C39.3615 24.035 39.6647 24.0308 39.9626 24.0308C46.4471 24.0308 52.6913 25.6164 58.0193 28.6157C58.9045 29.1143 59.7886 29.6642 60.6471 30.2493V22.3928C52.3816 15.5902 36.2031 16.7572 36.2031 16.7572C52.2834 12.9774 60.6471 20.2904 60.6471 20.2904L73.7387 16.6911V24.9971C73.4665 25.1188 73.2775 25.3911 73.2775 25.7082C73.2775 26.0072 73.4462 26.2666 73.6928 26.3969C72.6486 28.9808 72.8354 33.0895 72.8354 33.0895C74.1754 32.5279 75.3339 33.0895 75.3339 33.0895C75.3339 28.7331 74.626 26.8411 74.4253 26.3937C74.6698 26.2613 74.8353 26.004 74.8353 25.7082Z" fill="url(#paint0_linear_1977_437)"/>
<path d="M59.0582 45.1655L54.469 43.9419C46.1705 46.3059 39.2632 54.0738 39.2632 54.0738V54.0727C39.2632 54.0727 36.5138 51.0125 32.4147 48.1499C31.2124 47.3106 29.8948 46.4885 28.4971 45.7645C27.0653 45.0246 25.5491 44.3871 23.9859 43.9419L19.3956 45.1655C19.3956 45.1655 31.222 47.7901 39.228 58.727C47.2329 47.7901 59.0582 45.1655 59.0582 45.1655Z" fill="url(#paint1_linear_1977_437)"/>
<path d="M20.1035 46.8286L17.6648 48.065C27.9974 48.3395 37.2857 57.2434 37.2857 57.2434C28.2718 47.7351 20.1035 46.8286 20.1035 46.8286Z" fill="#013046"/>
<path d="M19.2035 49.5672L17.6029 51.1699C17.6029 51.1699 27.0632 50.0434 35.6916 56.6389C35.6916 56.6389 28.3818 49.4572 19.2035 49.5672Z" fill="#013046"/>
<path d="M18.0673 52.8644L16.4913 54.6593C16.4913 54.6593 26.6777 52.3871 34.3719 56.2716C34.3729 56.2727 27.0076 50.8859 18.0673 52.8644Z" fill="#013046"/>
<path d="M58.3514 46.8286C58.3514 46.8286 50.1831 47.7351 41.1692 57.2434C41.1692 57.2434 50.4575 48.3395 60.7901 48.065L58.3514 46.8286Z" fill="#013046"/>
<path d="M60.8522 51.1699L59.2516 49.5672C50.0732 49.4572 42.7634 56.6389 42.7634 56.6389C51.3919 50.0434 60.8522 51.1699 60.8522 51.1699Z" fill="#013046"/>
<path d="M44.0822 56.2725C51.7764 52.3891 61.9627 54.6602 61.9627 54.6602L60.3867 52.8653C51.4464 50.8857 44.0822 56.2725 44.0822 56.2725Z" fill="#013046"/>
<path d="M11.875 76.53V79H1.577V65.7H11.628V68.17H4.636V71.058H10.811V73.452H4.636V76.53H11.875ZM24.4529 64.902V79H21.6219V77.822C20.8872 78.7087 19.8232 79.152 18.4299 79.152C17.4672 79.152 16.5932 78.9367 15.8079 78.506C15.0352 78.0753 14.4272 77.461 13.9839 76.663C13.5405 75.865 13.3189 74.9403 13.3189 73.889C13.3189 72.8377 13.5405 71.913 13.9839 71.115C14.4272 70.317 15.0352 69.7027 15.8079 69.272C16.5932 68.8413 17.4672 68.626 18.4299 68.626C19.7345 68.626 20.7542 69.0377 21.4889 69.861V64.902H24.4529ZM18.9429 76.72C19.6902 76.72 20.3109 76.4667 20.8049 75.96C21.2989 75.4407 21.5459 74.7503 21.5459 73.889C21.5459 73.0277 21.2989 72.3437 20.8049 71.837C20.3109 71.3177 19.6902 71.058 18.9429 71.058C18.1829 71.058 17.5559 71.3177 17.0619 71.837C16.5679 72.3437 16.3209 73.0277 16.3209 73.889C16.3209 74.7503 16.5679 75.4407 17.0619 75.96C17.5559 76.4667 18.1829 76.72 18.9429 76.72ZM37.4941 68.778V79H34.6821V77.784C34.2895 78.2273 33.8208 78.5693 33.2761 78.81C32.7315 79.038 32.1425 79.152 31.5091 79.152C30.1665 79.152 29.1025 78.7657 28.3171 77.993C27.5318 77.2203 27.1391 76.074 27.1391 74.554V68.778H30.1031V74.117C30.1031 75.7637 30.7935 76.587 32.1741 76.587C32.8835 76.587 33.4535 76.359 33.8841 75.903C34.3148 75.4343 34.5301 74.744 34.5301 73.832V68.778H37.4941Z" fill="#27B1FF"/>
<path d="M52.6471 65.7V79H50.1201L43.4891 70.925V79H40.4491V65.7H42.9951L49.6071 73.775V65.7H52.6471ZM65.5978 73.927C65.5978 73.965 65.5788 74.231 65.5408 74.725H57.8078C57.9471 75.3583 58.2765 75.8587 58.7958 76.226C59.3151 76.5933 59.9611 76.777 60.7338 76.777C61.2658 76.777 61.7345 76.701 62.1398 76.549C62.5578 76.3843 62.9441 76.131 63.2988 75.789L64.8758 77.499C63.9131 78.601 62.5071 79.152 60.6578 79.152C59.5051 79.152 58.4855 78.9303 57.5988 78.487C56.7121 78.031 56.0281 77.404 55.5468 76.606C55.0655 75.808 54.8248 74.9023 54.8248 73.889C54.8248 72.8883 55.0591 71.989 55.5278 71.191C56.0091 70.3803 56.6615 69.7533 57.4848 69.31C58.3208 68.854 59.2518 68.626 60.2778 68.626C61.2785 68.626 62.1841 68.8413 62.9948 69.272C63.8055 69.7027 64.4388 70.3233 64.8948 71.134C65.3635 71.932 65.5978 72.863 65.5978 73.927ZM60.2968 70.868C59.6255 70.868 59.0618 71.058 58.6058 71.438C58.1498 71.818 57.8711 72.3373 57.7698 72.996H62.8048C62.7035 72.35 62.4248 71.837 61.9688 71.457C61.5128 71.0643 60.9555 70.868 60.2968 70.868ZM73.7908 79L71.5488 75.865L69.2308 79H66.0008L69.9338 73.851L66.1338 68.778H69.4588L71.6248 71.761L73.8478 68.778H77.0018L73.2018 73.775L77.1538 79H73.7908Z" fill="#FDB614"/>
<defs>
<linearGradient id="paint0_linear_1977_437" x1="11.8512" y1="9.59574" x2="68.1993" y2="27.8746" gradientUnits="userSpaceOnUse">
<stop stop-color="#0785CC"/>
<stop offset="0.3653" stop-color="#23ACF9"/>
<stop offset="1" stop-color="#0582C9"/>
</linearGradient>
<linearGradient id="paint1_linear_1977_437" x1="19.3955" y1="51.3348" x2="59.0582" y2="51.3348" gradientUnits="userSpaceOnUse">
<stop stop-color="#007BC0"/>
<stop offset="0.5098" stop-color="#27B1FF"/>
<stop offset="0.9834" stop-color="#007BC0"/>
</linearGradient>
</defs>
</svg>
