<svg width="162" height="60" viewBox="0 0 162 60" fill="none" xmlns="http://www.w3.org/2000/svg">
<path d="M44.2452 42.9813C44.2452 42.9813 42.2347 38.7392 42.0937 36.0303H36.361C36.22 38.7392 34.2095 42.9813 34.2095 42.9813C39.1286 47.215 38.5702 52.5046 38.5702 52.5046H39.0667V43.8601C38.4207 43.7811 37.921 43.2312 37.921 42.5638C37.921 41.842 38.5061 41.258 39.2268 41.258C39.9476 41.258 40.5327 41.842 40.5327 42.5638C40.5327 43.2312 40.033 43.7811 39.387 43.8601V52.5046H39.8835C39.8846 52.5046 39.3272 47.215 44.2452 42.9813Z" fill="#013046"/>
<path d="M42.3778 33.6909H36.0653V35.3096H42.3778V33.6909Z" fill="#013046"/>
<path d="M70.716 43.202C68.1342 40.4013 65.2886 37.8249 62.1409 35.6765C59.7523 34.0472 57.1791 32.6473 54.4424 31.7003C52.1265 30.8984 49.739 30.5983 47.3024 30.3784C44.191 30.0976 41.0443 30.1275 37.9521 30.5759C37.9115 30.5812 37.871 30.5866 37.8325 30.5941C37.7418 30.6069 37.6531 30.6208 37.5624 30.6346C34.8247 31.0639 32.1393 31.8284 29.6076 32.9559C27.344 33.9617 25.2139 35.2527 23.2663 36.7827C23.2289 36.8116 23.1915 36.8425 23.1531 36.8735C22.2306 37.6038 21.3507 38.3876 20.5158 39.2172C20.125 39.6037 19.7438 40.0009 19.3733 40.4077C19.0295 40.7825 18.6952 41.1648 18.3685 41.5545C18.2767 41.6645 18.1859 41.7745 18.0941 41.8845C17.6948 42.3756 17.3061 42.8785 16.9303 43.3889C16.4861 43.9943 16.06 44.6136 15.6522 45.2425C15.3393 45.7251 15.0361 46.2152 14.7435 46.7107C13.7986 48.3155 12.9593 49.9833 12.2226 51.6938C11.6235 53.0841 11.0918 54.5031 10.6327 55.9435C10.3209 56.9183 10.0411 57.9028 9.8041 58.899C9.79022 58.9577 9.58949 59.9999 9.56706 59.9999H1.07312C1.08273 59.9999 1.51944 57.8313 1.55147 57.6935C1.91878 56.1015 2.2658 54.4935 2.71105 52.9218C3.4179 50.4275 4.52195 47.9781 5.75093 45.7241C8.67976 40.3565 12.8162 35.6691 17.7065 32.0056C17.8079 31.9288 17.9094 31.8529 18.0108 31.7771C18.0877 31.7216 18.1656 31.664 18.2415 31.6084C18.2585 31.5978 18.2735 31.5849 18.2906 31.5732C24.2881 27.2371 31.8424 25.5949 39.0935 25.4326C45.4466 25.2906 51.7816 26.7021 57.336 29.8285C58.2169 30.3239 59.0754 30.8599 59.9114 31.4322C60.0566 31.5315 60.1997 31.6309 60.3428 31.7344C60.4442 31.807 60.5457 31.8796 60.6471 31.9544C63.2246 33.8197 65.5481 36.0385 67.548 38.5114C68.415 39.5813 69.2254 40.7014 69.9504 41.8727C70.196 42.2688 70.3999 42.8604 70.716 43.202Z" fill="#FDB614"/>
<path d="M60.6482 20.2903C60.6482 20.2903 52.2845 12.9783 36.2042 16.7571C36.2042 16.7571 52.3828 15.589 60.6482 22.3916V20.2903Z" fill="white"/>
<path d="M74.8353 25.7082C74.8353 25.3911 74.6452 25.1188 74.374 24.9971V16.517L78.8874 15.2763L39.2152 0L0 14.8193L18.0108 19.8356V30.0678C23.4841 26.3093 30.7437 24.2283 39.0636 24.0404C39.3615 24.035 39.6647 24.0308 39.9626 24.0308C46.4471 24.0308 52.6913 25.6164 58.0193 28.6157C58.9045 29.1143 59.7886 29.6642 60.6471 30.2493V22.3928C52.3816 15.5902 36.2031 16.7572 36.2031 16.7572C52.2834 12.9774 60.6471 20.2904 60.6471 20.2904L73.7387 16.6911V24.9971C73.4665 25.1188 73.2775 25.3911 73.2775 25.7082C73.2775 26.0072 73.4462 26.2666 73.6928 26.3969C72.6486 28.9808 72.8354 33.0895 72.8354 33.0895C74.1754 32.5279 75.3339 33.0895 75.3339 33.0895C75.3339 28.7331 74.626 26.8411 74.4253 26.3937C74.6698 26.2613 74.8353 26.004 74.8353 25.7082Z" fill="url(#paint0_linear_1977_456)"/>
<path d="M59.0582 45.1655L54.469 43.9419C46.1705 46.3059 39.2632 54.0738 39.2632 54.0738V54.0727C39.2632 54.0727 36.5138 51.0125 32.4147 48.1499C31.2124 47.3106 29.8948 46.4885 28.4971 45.7645C27.0653 45.0246 25.5491 44.3871 23.9859 43.9419L19.3956 45.1655C19.3956 45.1655 31.222 47.7901 39.228 58.727C47.2329 47.7901 59.0582 45.1655 59.0582 45.1655Z" fill="url(#paint1_linear_1977_456)"/>
<path d="M20.1035 46.8286L17.6648 48.065C27.9974 48.3395 37.2857 57.2434 37.2857 57.2434C28.2718 47.7351 20.1035 46.8286 20.1035 46.8286Z" fill="#013046"/>
<path d="M19.2035 49.5672L17.6029 51.1699C17.6029 51.1699 27.0632 50.0434 35.6916 56.6389C35.6916 56.6389 28.3818 49.4572 19.2035 49.5672Z" fill="#013046"/>
<path d="M18.0673 52.8644L16.4913 54.6593C16.4913 54.6593 26.6777 52.3871 34.3719 56.2716C34.3729 56.2727 27.0076 50.8859 18.0673 52.8644Z" fill="#013046"/>
<path d="M58.3514 46.8286C58.3514 46.8286 50.1831 47.7351 41.1692 57.2434C41.1692 57.2434 50.4575 48.3395 60.7901 48.065L58.3514 46.8286Z" fill="#013046"/>
<path d="M60.8522 51.1699L59.2516 49.5672C50.0732 49.4572 42.7634 56.6389 42.7634 56.6389C51.3919 50.0434 60.8522 51.1699 60.8522 51.1699Z" fill="#013046"/>
<path d="M44.0822 56.2725C51.7764 52.3891 61.9627 54.6602 61.9627 54.6602L60.3867 52.8653C51.4464 50.8857 44.0822 56.2725 44.0822 56.2725Z" fill="#013046"/>
<path d="M95.7625 34.03V36.5H85.4645V23.2H95.5155V25.67H88.5235V28.558H94.6985V30.952H88.5235V34.03H95.7625ZM108.34 22.402V36.5H105.509V35.322C104.775 36.2087 103.711 36.652 102.317 36.652C101.355 36.652 100.481 36.4367 99.6953 36.006C98.9226 35.5753 98.3146 34.961 97.8713 34.163C97.428 33.365 97.2063 32.4403 97.2063 31.389C97.2063 30.3377 97.428 29.413 97.8713 28.615C98.3146 27.817 98.9226 27.2027 99.6953 26.772C100.481 26.3413 101.355 26.126 102.317 26.126C103.622 26.126 104.642 26.5377 105.376 27.361V22.402H108.34ZM102.83 34.22C103.578 34.22 104.198 33.9667 104.692 33.46C105.186 32.9407 105.433 32.2503 105.433 31.389C105.433 30.5277 105.186 29.8437 104.692 29.337C104.198 28.8177 103.578 28.558 102.83 28.558C102.07 28.558 101.443 28.8177 100.949 29.337C100.455 29.8437 100.208 30.5277 100.208 31.389C100.208 32.2503 100.455 32.9407 100.949 33.46C101.443 33.9667 102.07 34.22 102.83 34.22ZM121.382 26.278V36.5H118.57V35.284C118.177 35.7273 117.708 36.0693 117.164 36.31C116.619 36.538 116.03 36.652 115.397 36.652C114.054 36.652 112.99 36.2657 112.205 35.493C111.419 34.7203 111.027 33.574 111.027 32.054V26.278H113.991V31.617C113.991 33.2637 114.681 34.087 116.062 34.087C116.771 34.087 117.341 33.859 117.772 33.403C118.202 32.9343 118.418 32.244 118.418 31.332V26.278H121.382Z" fill="#27B1FF"/>
<path d="M136.535 23.2V36.5H134.008L127.377 28.425V36.5H124.337V23.2H126.883L133.495 31.275V23.2H136.535ZM149.485 31.427C149.485 31.465 149.466 31.731 149.428 32.225H141.695C141.835 32.8583 142.164 33.3587 142.683 33.726C143.203 34.0933 143.849 34.277 144.621 34.277C145.153 34.277 145.622 34.201 146.027 34.049C146.445 33.8843 146.832 33.631 147.186 33.289L148.763 34.999C147.801 36.101 146.395 36.652 144.545 36.652C143.393 36.652 142.373 36.4303 141.486 35.987C140.6 35.531 139.916 34.904 139.434 34.106C138.953 33.308 138.712 32.4023 138.712 31.389C138.712 30.3883 138.947 29.489 139.415 28.691C139.897 27.8803 140.549 27.2533 141.372 26.81C142.208 26.354 143.139 26.126 144.165 26.126C145.166 26.126 146.072 26.3413 146.882 26.772C147.693 27.2027 148.326 27.8233 148.782 28.634C149.251 29.432 149.485 30.363 149.485 31.427ZM144.184 28.368C143.513 28.368 142.949 28.558 142.493 28.938C142.037 29.318 141.759 29.8373 141.657 30.496H146.692C146.591 29.85 146.312 29.337 145.856 28.957C145.4 28.5643 144.843 28.368 144.184 28.368ZM157.678 36.5L155.436 33.365L153.118 36.5H149.888L153.821 31.351L150.021 26.278H153.346L155.512 29.261L157.735 26.278H160.889L157.089 31.275L161.041 36.5H157.678Z" fill="#FDB614"/>
<defs>
<linearGradient id="paint0_linear_1977_456" x1="11.8512" y1="9.59574" x2="68.1993" y2="27.8746" gradientUnits="userSpaceOnUse">
<stop stop-color="#0785CC"/>
<stop offset="0.3653" stop-color="#23ACF9"/>
<stop offset="1" stop-color="#0582C9"/>
</linearGradient>
<linearGradient id="paint1_linear_1977_456" x1="19.3955" y1="51.3348" x2="59.0582" y2="51.3348" gradientUnits="userSpaceOnUse">
<stop stop-color="#007BC0"/>
<stop offset="0.5098" stop-color="#27B1FF"/>
<stop offset="0.9834" stop-color="#007BC0"/>
</linearGradient>
</defs>
</svg>
